<?xml version="1.0" encoding="utf-8" standalone="no"?>
<!DOCTYPE svg PUBLIC "-//W3C//DTD SVG 1.1//EN"
  "http://www.w3.org/Graphics/SVG/1.1/DTD/svg11.dtd">
<svg xmlns:xlink="http://www.w3.org/1999/xlink" width="406.885938pt" height="211.07625pt" viewBox="0 0 406.885938 211.07625" xmlns="http://www.w3.org/2000/svg" version="1.1">
 <metadata>
  <rdf:RDF xmlns:dc="http://purl.org/dc/elements/1.1/" xmlns:cc="http://creativecommons.org/ns#" xmlns:rdf="http://www.w3.org/1999/02/22-rdf-syntax-ns#">
   <cc:Work>
    <dc:type rdf:resource="http://purl.org/dc/dcmitype/StillImage"/>
    <dc:date>2023-10-06T22:31:41.219130</dc:date>
    <dc:format>image/svg+xml</dc:format>
    <dc:creator>
     <cc:Agent>
      <dc:title>Matplotlib v3.5.1, https://matplotlib.org/</dc:title>
     </cc:Agent>
    </dc:creator>
   </cc:Work>
  </rdf:RDF>
 </metadata>
 <defs>
  <style type="text/css">*{stroke-linejoin: round; stroke-linecap: butt}</style>
 </defs>
 <g id="figure_1">
  <g id="patch_1">
   <path d="M 0 211.07625 
L 406.885938 211.07625 
L 406.885938 0 
L 0 0 
z
" style="fill: #ffffff"/>
  </g>
  <g id="axes_1">
   <g id="patch_2">
    <path d="M 52.160938 173.52 
L 386.960938 173.52 
L 386.960938 7.2 
L 52.160938 7.2 
z
" style="fill: #ffffff"/>
   </g>
   <g id="matplotlib.axis_1">
    <g id="xtick_1">
     <g id="line2d_1">
      <path d="M 118.852829 173.52 
L 118.852829 7.2 
" clip-path="url(#p5a3472f504)" style="fill: none; stroke: #b0b0b0; stroke-width: 0.8; stroke-linecap: square"/>
     </g>
     <g id="line2d_2">
      <defs>
       <path id="m646484967e" d="M 0 0 
L 0 3.5 
" style="stroke: #000000; stroke-width: 0.8"/>
      </defs>
      <g>
       <use xlink:href="#m646484967e" x="118.852829" y="173.52" style="stroke: #000000; stroke-width: 0.8"/>
      </g>
     </g>
     <g id="text_1">
      <!-- 200 -->
      <g transform="translate(109.309079 188.118438)scale(0.1 -0.1)">
       <defs>
        <path id="DejaVuSans-32" d="M 1228 531 
L 3431 531 
L 3431 0 
L 469 0 
L 469 531 
Q 828 903 1448 1529 
Q 2069 2156 2228 2338 
Q 2531 2678 2651 2914 
Q 2772 3150 2772 3378 
Q 2772 3750 2511 3984 
Q 2250 4219 1831 4219 
Q 1534 4219 1204 4116 
Q 875 4013 500 3803 
L 500 4441 
Q 881 4594 1212 4672 
Q 1544 4750 1819 4750 
Q 2544 4750 2975 4387 
Q 3406 4025 3406 3419 
Q 3406 3131 3298 2873 
Q 3191 2616 2906 2266 
Q 2828 2175 2409 1742 
Q 1991 1309 1228 531 
z
" transform="scale(0.015625)"/>
        <path id="DejaVuSans-30" d="M 2034 4250 
Q 1547 4250 1301 3770 
Q 1056 3291 1056 2328 
Q 1056 1369 1301 889 
Q 1547 409 2034 409 
Q 2525 409 2770 889 
Q 3016 1369 3016 2328 
Q 3016 3291 2770 3770 
Q 2525 4250 2034 4250 
z
M 2034 4750 
Q 2819 4750 3233 4129 
Q 3647 3509 3647 2328 
Q 3647 1150 3233 529 
Q 2819 -91 2034 -91 
Q 1250 -91 836 529 
Q 422 1150 422 2328 
Q 422 3509 836 4129 
Q 1250 4750 2034 4750 
z
" transform="scale(0.015625)"/>
       </defs>
       <use xlink:href="#DejaVuSans-32"/>
       <use xlink:href="#DejaVuSans-30" x="63.623047"/>
       <use xlink:href="#DejaVuSans-30" x="127.246094"/>
      </g>
     </g>
    </g>
    <g id="xtick_2">
     <g id="line2d_3">
      <path d="M 185.879856 173.52 
L 185.879856 7.2 
" clip-path="url(#p5a3472f504)" style="fill: none; stroke: #b0b0b0; stroke-width: 0.8; stroke-linecap: square"/>
     </g>
     <g id="line2d_4">
      <g>
       <use xlink:href="#m646484967e" x="185.879856" y="173.52" style="stroke: #000000; stroke-width: 0.8"/>
      </g>
     </g>
     <g id="text_2">
      <!-- 400 -->
      <g transform="translate(176.336106 188.118438)scale(0.1 -0.1)">
       <defs>
        <path id="DejaVuSans-34" d="M 2419 4116 
L 825 1625 
L 2419 1625 
L 2419 4116 
z
M 2253 4666 
L 3047 4666 
L 3047 1625 
L 3713 1625 
L 3713 1100 
L 3047 1100 
L 3047 0 
L 2419 0 
L 2419 1100 
L 313 1100 
L 313 1709 
L 2253 4666 
z
" transform="scale(0.015625)"/>
       </defs>
       <use xlink:href="#DejaVuSans-34"/>
       <use xlink:href="#DejaVuSans-30" x="63.623047"/>
       <use xlink:href="#DejaVuSans-30" x="127.246094"/>
      </g>
     </g>
    </g>
    <g id="xtick_3">
     <g id="line2d_5">
      <path d="M 252.906883 173.52 
L 252.906883 7.2 
" clip-path="url(#p5a3472f504)" style="fill: none; stroke: #b0b0b0; stroke-width: 0.8; stroke-linecap: square"/>
     </g>
     <g id="line2d_6">
      <g>
       <use xlink:href="#m646484967e" x="252.906883" y="173.52" style="stroke: #000000; stroke-width: 0.8"/>
      </g>
     </g>
     <g id="text_3">
      <!-- 600 -->
      <g transform="translate(243.363133 188.118438)scale(0.1 -0.1)">
       <defs>
        <path id="DejaVuSans-36" d="M 2113 2584 
Q 1688 2584 1439 2293 
Q 1191 2003 1191 1497 
Q 1191 994 1439 701 
Q 1688 409 2113 409 
Q 2538 409 2786 701 
Q 3034 994 3034 1497 
Q 3034 2003 2786 2293 
Q 2538 2584 2113 2584 
z
M 3366 4563 
L 3366 3988 
Q 3128 4100 2886 4159 
Q 2644 4219 2406 4219 
Q 1781 4219 1451 3797 
Q 1122 3375 1075 2522 
Q 1259 2794 1537 2939 
Q 1816 3084 2150 3084 
Q 2853 3084 3261 2657 
Q 3669 2231 3669 1497 
Q 3669 778 3244 343 
Q 2819 -91 2113 -91 
Q 1303 -91 875 529 
Q 447 1150 447 2328 
Q 447 3434 972 4092 
Q 1497 4750 2381 4750 
Q 2619 4750 2861 4703 
Q 3103 4656 3366 4563 
z
" transform="scale(0.015625)"/>
       </defs>
       <use xlink:href="#DejaVuSans-36"/>
       <use xlink:href="#DejaVuSans-30" x="63.623047"/>
       <use xlink:href="#DejaVuSans-30" x="127.246094"/>
      </g>
     </g>
    </g>
    <g id="xtick_4">
     <g id="line2d_7">
      <path d="M 319.93391 173.52 
L 319.93391 7.2 
" clip-path="url(#p5a3472f504)" style="fill: none; stroke: #b0b0b0; stroke-width: 0.8; stroke-linecap: square"/>
     </g>
     <g id="line2d_8">
      <g>
       <use xlink:href="#m646484967e" x="319.93391" y="173.52" style="stroke: #000000; stroke-width: 0.8"/>
      </g>
     </g>
     <g id="text_4">
      <!-- 800 -->
      <g transform="translate(310.39016 188.118438)scale(0.1 -0.1)">
       <defs>
        <path id="DejaVuSans-38" d="M 2034 2216 
Q 1584 2216 1326 1975 
Q 1069 1734 1069 1313 
Q 1069 891 1326 650 
Q 1584 409 2034 409 
Q 2484 409 2743 651 
Q 3003 894 3003 1313 
Q 3003 1734 2745 1975 
Q 2488 2216 2034 2216 
z
M 1403 2484 
Q 997 2584 770 2862 
Q 544 3141 544 3541 
Q 544 4100 942 4425 
Q 1341 4750 2034 4750 
Q 2731 4750 3128 4425 
Q 3525 4100 3525 3541 
Q 3525 3141 3298 2862 
Q 3072 2584 2669 2484 
Q 3125 2378 3379 2068 
Q 3634 1759 3634 1313 
Q 3634 634 3220 271 
Q 2806 -91 2034 -91 
Q 1263 -91 848 271 
Q 434 634 434 1313 
Q 434 1759 690 2068 
Q 947 2378 1403 2484 
z
M 1172 3481 
Q 1172 3119 1398 2916 
Q 1625 2713 2034 2713 
Q 2441 2713 2670 2916 
Q 2900 3119 2900 3481 
Q 2900 3844 2670 4047 
Q 2441 4250 2034 4250 
Q 1625 4250 1398 4047 
Q 1172 3844 1172 3481 
z
" transform="scale(0.015625)"/>
       </defs>
       <use xlink:href="#DejaVuSans-38"/>
       <use xlink:href="#DejaVuSans-30" x="63.623047"/>
       <use xlink:href="#DejaVuSans-30" x="127.246094"/>
      </g>
     </g>
    </g>
    <g id="xtick_5">
     <g id="line2d_9">
      <path d="M 386.960938 173.52 
L 386.960938 7.2 
" clip-path="url(#p5a3472f504)" style="fill: none; stroke: #b0b0b0; stroke-width: 0.8; stroke-linecap: square"/>
     </g>
     <g id="line2d_10">
      <g>
       <use xlink:href="#m646484967e" x="386.960938" y="173.52" style="stroke: #000000; stroke-width: 0.8"/>
      </g>
     </g>
     <g id="text_5">
      <!-- 1000 -->
      <g transform="translate(374.235937 188.118438)scale(0.1 -0.1)">
       <defs>
        <path id="DejaVuSans-31" d="M 794 531 
L 1825 531 
L 1825 4091 
L 703 3866 
L 703 4441 
L 1819 4666 
L 2450 4666 
L 2450 531 
L 3481 531 
L 3481 0 
L 794 0 
L 794 531 
z
" transform="scale(0.015625)"/>
       </defs>
       <use xlink:href="#DejaVuSans-31"/>
       <use xlink:href="#DejaVuSans-30" x="63.623047"/>
       <use xlink:href="#DejaVuSans-30" x="127.246094"/>
       <use xlink:href="#DejaVuSans-30" x="190.869141"/>
      </g>
     </g>
    </g>
    <g id="text_6">
     <!-- time -->
     <g transform="translate(208.264844 201.796563)scale(0.1 -0.1)">
      <defs>
       <path id="DejaVuSans-74" d="M 1172 4494 
L 1172 3500 
L 2356 3500 
L 2356 3053 
L 1172 3053 
L 1172 1153 
Q 1172 725 1289 603 
Q 1406 481 1766 481 
L 2356 481 
L 2356 0 
L 1766 0 
Q 1100 0 847 248 
Q 594 497 594 1153 
L 594 3053 
L 172 3053 
L 172 3500 
L 594 3500 
L 594 4494 
L 1172 4494 
z
" transform="scale(0.015625)"/>
       <path id="DejaVuSans-69" d="M 603 3500 
L 1178 3500 
L 1178 0 
L 603 0 
L 603 3500 
z
M 603 4863 
L 1178 4863 
L 1178 4134 
L 603 4134 
L 603 4863 
z
" transform="scale(0.015625)"/>
       <path id="DejaVuSans-6d" d="M 3328 2828 
Q 3544 3216 3844 3400 
Q 4144 3584 4550 3584 
Q 5097 3584 5394 3201 
Q 5691 2819 5691 2113 
L 5691 0 
L 5113 0 
L 5113 2094 
Q 5113 2597 4934 2840 
Q 4756 3084 4391 3084 
Q 3944 3084 3684 2787 
Q 3425 2491 3425 1978 
L 3425 0 
L 2847 0 
L 2847 2094 
Q 2847 2600 2669 2842 
Q 2491 3084 2119 3084 
Q 1678 3084 1418 2786 
Q 1159 2488 1159 1978 
L 1159 0 
L 581 0 
L 581 3500 
L 1159 3500 
L 1159 2956 
Q 1356 3278 1631 3431 
Q 1906 3584 2284 3584 
Q 2666 3584 2933 3390 
Q 3200 3197 3328 2828 
z
" transform="scale(0.015625)"/>
       <path id="DejaVuSans-65" d="M 3597 1894 
L 3597 1613 
L 953 1613 
Q 991 1019 1311 708 
Q 1631 397 2203 397 
Q 2534 397 2845 478 
Q 3156 559 3463 722 
L 3463 178 
Q 3153 47 2828 -22 
Q 2503 -91 2169 -91 
Q 1331 -91 842 396 
Q 353 884 353 1716 
Q 353 2575 817 3079 
Q 1281 3584 2069 3584 
Q 2775 3584 3186 3129 
Q 3597 2675 3597 1894 
z
M 3022 2063 
Q 3016 2534 2758 2815 
Q 2500 3097 2075 3097 
Q 1594 3097 1305 2825 
Q 1016 2553 972 2059 
L 3022 2063 
z
" transform="scale(0.015625)"/>
      </defs>
      <use xlink:href="#DejaVuSans-74"/>
      <use xlink:href="#DejaVuSans-69" x="39.208984"/>
      <use xlink:href="#DejaVuSans-6d" x="66.992188"/>
      <use xlink:href="#DejaVuSans-65" x="164.404297"/>
     </g>
    </g>
   </g>
   <g id="matplotlib.axis_2">
    <g id="ytick_1">
     <g id="line2d_11">
      <path d="M 52.160938 147.567671 
L 386.960938 147.567671 
" clip-path="url(#p5a3472f504)" style="fill: none; stroke: #b0b0b0; stroke-width: 0.8; stroke-linecap: square"/>
     </g>
     <g id="line2d_12">
      <defs>
       <path id="m5ea23f9119" d="M 0 0 
L -3.5 0 
" style="stroke: #000000; stroke-width: 0.8"/>
      </defs>
      <g>
       <use xlink:href="#m5ea23f9119" x="52.160938" y="147.567671" style="stroke: #000000; stroke-width: 0.8"/>
      </g>
     </g>
     <g id="text_7">
      <!-- −1.0 -->
      <g transform="translate(20.878125 151.36689)scale(0.1 -0.1)">
       <defs>
        <path id="DejaVuSans-2212" d="M 678 2272 
L 4684 2272 
L 4684 1741 
L 678 1741 
L 678 2272 
z
" transform="scale(0.015625)"/>
        <path id="DejaVuSans-2e" d="M 684 794 
L 1344 794 
L 1344 0 
L 684 0 
L 684 794 
z
" transform="scale(0.015625)"/>
       </defs>
       <use xlink:href="#DejaVuSans-2212"/>
       <use xlink:href="#DejaVuSans-31" x="83.789062"/>
       <use xlink:href="#DejaVuSans-2e" x="147.412109"/>
       <use xlink:href="#DejaVuSans-30" x="179.199219"/>
      </g>
     </g>
    </g>
    <g id="ytick_2">
     <g id="line2d_13">
      <path d="M 52.160938 121.189228 
L 386.960938 121.189228 
" clip-path="url(#p5a3472f504)" style="fill: none; stroke: #b0b0b0; stroke-width: 0.8; stroke-linecap: square"/>
     </g>
     <g id="line2d_14">
      <g>
       <use xlink:href="#m5ea23f9119" x="52.160938" y="121.189228" style="stroke: #000000; stroke-width: 0.8"/>
      </g>
     </g>
     <g id="text_8">
      <!-- −0.5 -->
      <g transform="translate(20.878125 124.988447)scale(0.1 -0.1)">
       <defs>
        <path id="DejaVuSans-35" d="M 691 4666 
L 3169 4666 
L 3169 4134 
L 1269 4134 
L 1269 2991 
Q 1406 3038 1543 3061 
Q 1681 3084 1819 3084 
Q 2600 3084 3056 2656 
Q 3513 2228 3513 1497 
Q 3513 744 3044 326 
Q 2575 -91 1722 -91 
Q 1428 -91 1123 -41 
Q 819 9 494 109 
L 494 744 
Q 775 591 1075 516 
Q 1375 441 1709 441 
Q 2250 441 2565 725 
Q 2881 1009 2881 1497 
Q 2881 1984 2565 2268 
Q 2250 2553 1709 2553 
Q 1456 2553 1204 2497 
Q 953 2441 691 2322 
L 691 4666 
z
" transform="scale(0.015625)"/>
       </defs>
       <use xlink:href="#DejaVuSans-2212"/>
       <use xlink:href="#DejaVuSans-30" x="83.789062"/>
       <use xlink:href="#DejaVuSans-2e" x="147.412109"/>
       <use xlink:href="#DejaVuSans-35" x="179.199219"/>
      </g>
     </g>
    </g>
    <g id="ytick_3">
     <g id="line2d_15">
      <path d="M 52.160938 94.810785 
L 386.960938 94.810785 
" clip-path="url(#p5a3472f504)" style="fill: none; stroke: #b0b0b0; stroke-width: 0.8; stroke-linecap: square"/>
     </g>
     <g id="line2d_16">
      <g>
       <use xlink:href="#m5ea23f9119" x="52.160938" y="94.810785" style="stroke: #000000; stroke-width: 0.8"/>
      </g>
     </g>
     <g id="text_9">
      <!-- 0.0 -->
      <g transform="translate(29.257812 98.610004)scale(0.1 -0.1)">
       <use xlink:href="#DejaVuSans-30"/>
       <use xlink:href="#DejaVuSans-2e" x="63.623047"/>
       <use xlink:href="#DejaVuSans-30" x="95.410156"/>
      </g>
     </g>
    </g>
    <g id="ytick_4">
     <g id="line2d_17">
      <path d="M 52.160938 68.432342 
L 386.960938 68.432342 
" clip-path="url(#p5a3472f504)" style="fill: none; stroke: #b0b0b0; stroke-width: 0.8; stroke-linecap: square"/>
     </g>
     <g id="line2d_18">
      <g>
       <use xlink:href="#m5ea23f9119" x="52.160938" y="68.432342" style="stroke: #000000; stroke-width: 0.8"/>
      </g>
     </g>
     <g id="text_10">
      <!-- 0.5 -->
      <g transform="translate(29.257812 72.231561)scale(0.1 -0.1)">
       <use xlink:href="#DejaVuSans-30"/>
       <use xlink:href="#DejaVuSans-2e" x="63.623047"/>
       <use xlink:href="#DejaVuSans-35" x="95.410156"/>
      </g>
     </g>
    </g>
    <g id="ytick_5">
     <g id="line2d_19">
      <path d="M 52.160938 42.053899 
L 386.960938 42.053899 
" clip-path="url(#p5a3472f504)" style="fill: none; stroke: #b0b0b0; stroke-width: 0.8; stroke-linecap: square"/>
     </g>
     <g id="line2d_20">
      <g>
       <use xlink:href="#m5ea23f9119" x="52.160938" y="42.053899" style="stroke: #000000; stroke-width: 0.8"/>
      </g>
     </g>
     <g id="text_11">
      <!-- 1.0 -->
      <g transform="translate(29.257812 45.853117)scale(0.1 -0.1)">
       <use xlink:href="#DejaVuSans-31"/>
       <use xlink:href="#DejaVuSans-2e" x="63.623047"/>
       <use xlink:href="#DejaVuSans-30" x="95.410156"/>
      </g>
     </g>
    </g>
    <g id="ytick_6">
     <g id="line2d_21">
      <path d="M 52.160938 15.675456 
L 386.960938 15.675456 
" clip-path="url(#p5a3472f504)" style="fill: none; stroke: #b0b0b0; stroke-width: 0.8; stroke-linecap: square"/>
     </g>
     <g id="line2d_22">
      <g>
       <use xlink:href="#m5ea23f9119" x="52.160938" y="15.675456" style="stroke: #000000; stroke-width: 0.8"/>
      </g>
     </g>
     <g id="text_12">
      <!-- 1.5 -->
      <g transform="translate(29.257812 19.474674)scale(0.1 -0.1)">
       <use xlink:href="#DejaVuSans-31"/>
       <use xlink:href="#DejaVuSans-2e" x="63.623047"/>
       <use xlink:href="#DejaVuSans-35" x="95.410156"/>
      </g>
     </g>
    </g>
    <g id="text_13">
     <!-- x -->
     <g transform="translate(14.798438 93.319375)rotate(-90)scale(0.1 -0.1)">
      <defs>
       <path id="DejaVuSans-78" d="M 3513 3500 
L 2247 1797 
L 3578 0 
L 2900 0 
L 1881 1375 
L 863 0 
L 184 0 
L 1544 1831 
L 300 3500 
L 978 3500 
L 1906 2253 
L 2834 3500 
L 3513 3500 
z
" transform="scale(0.015625)"/>
      </defs>
      <use xlink:href="#DejaVuSans-78"/>
     </g>
    </g>
   </g>
   <g id="line2d_23">
    <path d="M 52.160938 89.879169 
L 52.496073 102.935632 
L 52.831208 78.541287 
L 53.166343 80.01281 
L 53.501478 91.17211 
L 53.836613 88.918261 
L 54.171748 101.471037 
L 54.506883 89.174665 
L 54.842019 88.798517 
L 55.177154 99.308358 
L 55.512289 76.682001 
L 55.847424 80.625458 
L 56.182559 71.114915 
L 56.517694 85.426317 
L 56.852829 105.219992 
L 57.187965 85.173193 
L 57.5231 80.312381 
L 57.858235 84.312702 
L 58.19337 97.004781 
L 58.528505 87.761901 
L 58.86364 82.720391 
L 59.198775 68.024634 
L 59.53391 85.846821 
L 59.869046 81.905988 
L 60.204181 87.618597 
L 60.539316 61.985393 
L 60.874451 92.077123 
L 61.209586 78.009131 
L 61.544721 85.756989 
L 61.879856 67.098428 
L 62.214992 80.657152 
L 62.550127 55.697553 
L 62.885262 66.746445 
L 63.555532 78.710977 
L 63.890667 49.83612 
L 64.225802 88.501487 
L 64.560938 62.861252 
L 64.896073 93.657395 
L 65.231208 77.270766 
L 65.566343 81.6368 
L 65.901478 57.17272 
L 66.236613 77.659592 
L 66.571748 70.390493 
L 66.906883 79.873841 
L 67.242019 92.583551 
L 67.912289 58.816775 
L 68.247424 62.836995 
L 68.582559 71.566883 
L 68.917694 83.430236 
L 69.587965 32.45664 
L 69.9231 76.643392 
L 70.258235 62.466403 
L 70.59337 53.703775 
L 70.928505 58.174786 
L 71.26364 59.32253 
L 71.598775 72.906631 
L 71.93391 52.248415 
L 72.269046 78.155265 
L 72.604181 71.029103 
L 72.939316 59.808776 
L 73.274451 72.21902 
L 73.609586 62.976095 
L 74.279856 52.063629 
L 74.614992 66.633917 
L 74.950127 57.295502 
L 75.285262 38.850546 
L 75.620397 54.142916 
L 75.955532 77.311166 
L 76.290667 69.597324 
L 76.625802 70.05947 
L 76.960938 58.262199 
L 77.296073 71.404929 
L 78.301478 50.569292 
L 78.636613 52.377908 
L 78.971748 46.5556 
L 79.306883 70.58523 
L 79.642019 40.611642 
L 79.977154 60.477315 
L 80.312289 54.476496 
L 80.647424 60.67506 
L 80.982559 44.28298 
L 81.317694 56.298974 
L 81.652829 41.112953 
L 81.987965 77.451266 
L 82.3231 31.30011 
L 82.99337 63.823791 
L 83.328505 54.553176 
L 83.66364 75.048054 
L 83.998775 35.667539 
L 84.33391 40.882816 
L 84.669046 30.107141 
L 85.004181 44.338135 
L 85.339316 47.975817 
L 85.674451 64.320093 
L 86.009586 39.242547 
L 86.344721 50.770845 
L 86.679856 54.134425 
L 87.014992 41.752204 
L 87.350127 52.801442 
L 87.685262 54.792726 
L 88.020397 44.952971 
L 88.355532 31.33787 
L 88.690667 61.475406 
L 89.025802 55.377874 
L 89.360938 47.19492 
L 89.696073 63.86534 
L 90.031208 47.862418 
L 90.366343 47.120394 
L 90.701478 51.76317 
L 91.036613 62.849177 
L 91.371748 39.310123 
L 91.706883 54.90437 
L 92.042019 62.204531 
L 92.377154 42.902139 
L 92.712289 53.437406 
L 93.047424 57.092933 
L 93.717694 35.854332 
L 94.052829 39.514331 
L 94.387965 56.881641 
L 94.7231 40.836503 
L 95.058235 64.709176 
L 95.39337 27.044149 
L 95.728505 32.259168 
L 96.06364 64.133087 
L 96.398775 53.695461 
L 96.73391 33.749763 
L 97.069046 41.68447 
L 97.739316 29.905733 
L 98.074451 44.532179 
L 98.409586 39.743537 
L 98.744721 51.058632 
L 99.079856 47.503929 
L 99.414992 49.07587 
L 99.750127 38.803259 
L 100.085262 52.563185 
L 100.420397 46.875729 
L 100.755532 35.589579 
L 101.090667 36.089545 
L 101.425802 52.88732 
L 101.760938 46.97703 
L 102.096073 57.626341 
L 102.431208 59.81004 
L 102.766343 31.282928 
L 103.436613 44.885995 
L 103.771748 36.638653 
L 104.106883 49.22773 
L 104.442019 36.329695 
L 104.777154 33.27774 
L 105.112289 44.926221 
L 105.782559 33.196164 
L 106.117694 46.90613 
L 106.452829 29.97058 
L 106.787965 53.983726 
L 107.1231 47.399882 
L 107.458235 45.337019 
L 107.79337 55.607794 
L 108.128505 54.892851 
L 108.46364 43.858874 
L 108.798775 28.164837 
L 109.13391 42.810095 
L 109.469046 65.780887 
L 109.804181 46.649182 
L 110.139316 48.127843 
L 110.809586 33.767398 
L 111.144721 46.734532 
L 111.479856 47.412853 
L 111.814992 26.34219 
L 112.150127 37.365756 
L 112.485262 20.351774 
L 112.820397 44.584914 
L 113.155532 49.599297 
L 113.490667 41.303928 
L 113.825802 65.56069 
L 114.160938 55.843589 
L 114.496073 39.14943 
L 114.831208 57.253284 
L 115.166343 52.411391 
L 115.501478 66.99794 
L 115.836613 36.490583 
L 116.171748 45.389684 
L 116.506883 42.453144 
L 116.842019 29.217521 
L 117.177154 38.717764 
L 117.512289 55.620083 
L 117.847424 30.50177 
L 118.182559 23.534568 
L 118.517694 51.271754 
L 118.852829 40.567153 
L 119.187965 48.035117 
L 119.5231 43.971681 
L 119.858235 28.424936 
L 120.19337 43.440792 
L 120.528505 42.833264 
L 120.86364 54.947743 
L 121.198775 59.237592 
L 121.53391 41.533865 
L 121.869046 47.960198 
L 122.204181 35.901978 
L 122.539316 46.792643 
L 122.874451 45.746173 
L 123.209586 31.406742 
L 123.544721 55.242331 
L 123.879856 57.306568 
L 124.214992 56.02736 
L 124.550127 55.849359 
L 124.885262 57.402798 
L 125.220397 57.191528 
L 125.555532 48.834975 
L 125.890667 64.576705 
L 126.225802 63.061869 
L 126.560938 62.672947 
L 126.896073 52.035932 
L 127.231208 68.852895 
L 127.566343 61.444882 
L 127.901478 49.598992 
L 128.236613 31.584051 
L 128.571748 67.508736 
L 128.906883 39.737305 
L 129.912289 72.609871 
L 130.247424 57.846535 
L 130.582559 51.815168 
L 130.917694 60.384877 
L 131.252829 58.904474 
L 131.587965 82.517197 
L 131.9231 50.253969 
L 132.258235 69.490482 
L 132.59337 62.905418 
L 132.928505 35.033742 
L 133.26364 43.687678 
L 133.598775 76.697855 
L 133.93391 52.321989 
L 134.269046 71.407208 
L 134.939316 50.462776 
L 135.274451 57.764211 
L 135.609586 74.167143 
L 136.279856 61.873189 
L 136.614992 74.000856 
L 136.950127 46.453308 
L 137.285262 66.370073 
L 137.620397 64.963787 
L 137.955532 96.314662 
L 138.290667 50.757072 
L 138.625802 54.556623 
L 139.296073 86.528906 
L 139.631208 58.048891 
L 139.966343 61.343614 
L 140.301478 63.209204 
L 140.636613 77.408595 
L 140.971748 81.294946 
L 141.977154 49.428683 
L 142.312289 61.600849 
L 142.647424 65.058655 
L 142.982559 73.023479 
L 143.317694 69.233156 
L 143.987965 82.284567 
L 144.3231 92.037825 
L 144.658235 75.174171 
L 144.99337 67.900918 
L 145.66364 98.607671 
L 145.998775 78.465427 
L 146.33391 76.923189 
L 146.669046 76.451839 
L 147.339316 90.670393 
L 147.674451 86.432037 
L 148.009586 86.251901 
L 148.344721 88.595544 
L 148.679856 80.256301 
L 149.014992 103.763157 
L 149.350127 84.582198 
L 149.685262 89.822082 
L 150.020397 59.662378 
L 150.355532 94.216527 
L 150.690667 74.354518 
L 151.025802 87.604241 
L 151.360938 77.763126 
L 151.696073 89.968512 
L 152.031208 72.346713 
L 152.366343 71.295535 
L 152.701478 87.144001 
L 153.036613 88.56916 
L 153.706883 75.763574 
L 154.377154 101.90208 
L 154.712289 111.695567 
L 155.047424 93.320558 
L 155.382559 109.907667 
L 155.717694 87.012177 
L 156.387965 104.185835 
L 156.7231 89.074075 
L 157.058235 84.669203 
L 157.39337 100.485636 
L 157.728505 96.351217 
L 158.06364 90.150661 
L 158.398775 94.018385 
L 158.73391 85.343267 
L 159.069046 90.353858 
L 159.404181 91.040783 
L 159.739316 118.984816 
L 160.074451 98.132831 
L 160.409586 103.330699 
L 160.744721 85.253605 
L 161.079856 98.96994 
L 161.414992 103.524059 
L 161.750127 102.752205 
L 162.085262 90.854984 
L 162.420397 108.315795 
L 163.090667 90.619453 
L 163.425802 97.063894 
L 163.760938 96.075542 
L 164.096073 130.650548 
L 164.431208 90.689257 
L 164.766343 104.148612 
L 165.101478 111.967879 
L 165.436613 101.973795 
L 165.771748 102.991264 
L 166.106883 105.938147 
L 166.442019 120.610801 
L 167.112289 108.058384 
L 167.447424 116.277184 
L 167.782559 117.743173 
L 168.117694 105.59328 
L 168.452829 126.231403 
L 168.787965 90.282031 
L 169.1231 121.017639 
L 169.458235 100.894346 
L 169.79337 111.730228 
L 170.128505 110.406492 
L 170.46364 111.957414 
L 170.798775 117.931807 
L 171.13391 111.449298 
L 171.469046 110.995834 
L 171.804181 123.846425 
L 172.139316 125.463471 
L 172.474451 131.103684 
L 172.809586 114.397539 
L 173.144721 110.525308 
L 173.479856 102.851932 
L 173.814992 132.152381 
L 174.150127 123.436242 
L 174.485262 95.840932 
L 175.155532 135.922552 
L 175.490667 141.559992 
L 175.825802 125.465301 
L 176.160938 138.040442 
L 176.496073 117.679544 
L 177.166343 134.816153 
L 177.501478 134.045551 
L 177.836613 128.540284 
L 178.171748 114.998713 
L 178.506883 109.440502 
L 178.842019 128.136501 
L 179.177154 123.136491 
L 179.512289 133.241146 
L 179.847424 117.133783 
L 180.182559 125.203646 
L 180.517694 121.476961 
L 180.852829 130.960252 
L 181.187965 118.405853 
L 181.5231 126.667902 
L 181.858235 109.143295 
L 182.19337 126.213011 
L 182.528505 133.792902 
L 182.86364 126.407071 
L 183.198775 130.941145 
L 183.53391 124.062575 
L 183.869046 127.375006 
L 184.204181 144.304223 
L 184.539316 148.701334 
L 184.874451 143.069275 
L 185.209586 141.273325 
L 185.544721 127.563069 
L 185.879856 148.476536 
L 186.214992 135.931983 
L 186.550127 150.910025 
L 186.885262 146.279878 
L 187.220397 129.308058 
L 187.555532 118.258416 
L 187.890667 127.729256 
L 188.225802 145.016984 
L 188.560938 130.101917 
L 188.896073 153.865549 
L 189.231208 149.087083 
L 189.566343 150.944037 
L 189.901478 138.284764 
L 190.236613 110.982828 
L 190.571748 135.529829 
L 190.906883 141.49128 
L 191.242019 123.452626 
L 191.577154 155.005149 
L 191.912289 132.38172 
L 192.247424 146.746458 
L 192.582559 141.148772 
L 192.917694 141.521763 
L 193.252829 140.493104 
L 193.587965 144.945546 
L 193.9231 143.251574 
L 194.59337 136.338102 
L 194.928505 125.947918 
L 195.598775 146.3668 
L 195.93391 136.396157 
L 196.269046 146.592148 
L 196.604181 146.503302 
L 196.939316 144.55125 
L 197.274451 138.877912 
L 197.609586 149.491598 
L 197.944721 126.711344 
L 198.614992 146.580646 
L 198.950127 150.636632 
L 199.285262 135.18911 
L 200.290667 156.910208 
L 200.625802 128.425907 
L 200.960938 149.430556 
L 201.296073 140.497038 
L 201.631208 162.718542 
L 201.966343 150.963275 
L 202.301478 151.988325 
L 202.636613 136.494465 
L 202.971748 135.339743 
L 203.306883 156.115623 
L 203.642019 123.137752 
L 203.977154 157.061355 
L 204.312289 149.248379 
L 204.647424 164.824281 
L 204.982559 156.993281 
L 205.317694 152.888328 
L 205.652829 163.816268 
L 205.987965 152.315547 
L 206.3231 149.713201 
L 206.658235 122.662663 
L 206.99337 154.828393 
L 207.328505 165.96 
L 207.998775 143.582095 
L 208.33391 129.304382 
L 208.669046 151.181671 
L 209.004181 146.281633 
L 209.339316 138.215354 
L 209.674451 150.853769 
L 210.009586 133.522171 
L 210.344721 158.557704 
L 210.679856 140.138263 
L 211.350127 154.076712 
L 211.685262 143.939404 
L 212.020397 147.024327 
L 212.355532 138.284789 
L 212.690667 142.124987 
L 213.025802 150.964697 
L 213.360938 139.817188 
L 213.696073 152.477813 
L 214.031208 126.808876 
L 214.366343 156.613362 
L 214.701478 150.428273 
L 215.036613 131.561463 
L 215.371748 154.837732 
L 215.706883 155.652682 
L 216.042019 148.978218 
L 216.377154 161.861594 
L 216.712289 135.162309 
L 217.047424 154.269543 
L 217.382559 154.792017 
L 217.717694 147.002717 
L 218.052829 130.489634 
L 218.387965 159.892071 
L 218.7231 155.941113 
L 219.058235 156.91678 
L 219.39337 145.554649 
L 219.728505 149.281907 
L 220.06364 143.562294 
L 220.398775 163.846079 
L 220.73391 150.961804 
L 221.069046 155.71068 
L 221.404181 134.351501 
L 221.739316 145.049709 
L 222.074451 147.769124 
L 222.409586 127.624272 
L 222.744721 120.648819 
L 223.079856 135.663265 
L 223.414992 156.915938 
L 223.750127 130.759211 
L 224.085262 140.35796 
L 224.420397 126.710067 
L 224.755532 138.531665 
L 225.090667 159.543119 
L 225.425802 131.51998 
L 225.760938 134.494999 
L 226.096073 154.538132 
L 227.101478 125.342739 
L 227.436613 109.671074 
L 227.771748 145.135562 
L 228.442019 148.349923 
L 228.777154 129.551419 
L 229.447424 146.168247 
L 229.782559 137.644319 
L 230.117694 134.717275 
L 230.452829 142.408072 
L 231.1231 124.965232 
L 231.458235 149.085737 
L 231.79337 142.64581 
L 232.128505 146.339628 
L 232.798775 124.641346 
L 233.469046 155.231292 
L 233.804181 131.865557 
L 234.139316 130.427992 
L 234.474451 147.11817 
L 234.809586 149.366332 
L 235.144721 130.214326 
L 235.479856 133.469723 
L 235.814992 141.645608 
L 236.150127 126.518042 
L 236.485262 129.437708 
L 236.820397 131.103596 
L 237.155532 144.106591 
L 237.490667 121.430941 
L 237.825802 142.939738 
L 238.160938 127.290361 
L 238.496073 142.322156 
L 239.166343 130.561296 
L 239.501478 110.10592 
L 239.836613 128.405068 
L 240.171748 120.246501 
L 240.506883 133.517206 
L 240.842019 131.807889 
L 241.177154 119.473923 
L 241.512289 139.082252 
L 241.847424 119.843041 
L 242.182559 135.097229 
L 242.517694 140.14069 
L 242.852829 135.608043 
L 243.187965 115.779017 
L 243.5231 133.248586 
L 243.858235 128.356557 
L 244.19337 108.367671 
L 244.528505 122.942774 
L 244.86364 119.079602 
L 245.198775 129.497556 
L 245.53391 129.300851 
L 245.869046 123.414209 
L 246.204181 109.45869 
L 246.874451 118.613614 
L 247.209586 133.038674 
L 247.544721 123.408831 
L 247.879856 93.549013 
L 248.214992 118.238668 
L 248.550127 115.885426 
L 248.885262 120.723708 
L 249.220397 99.545728 
L 249.555532 118.708818 
L 249.890667 119.981794 
L 250.225802 119.112906 
L 250.560938 93.405801 
L 250.896073 104.136044 
L 251.231208 126.607665 
L 251.566343 102.195029 
L 251.901478 112.245199 
L 252.571748 110.606447 
L 252.906883 98.812299 
L 253.242019 109.566844 
L 253.577154 110.864748 
L 253.912289 114.365203 
L 254.247424 110.434512 
L 254.582559 104.930009 
L 254.917694 107.111692 
L 255.252829 104.384367 
L 255.587965 130.888002 
L 255.9231 104.825153 
L 256.258235 104.93824 
L 256.59337 128.998732 
L 256.928505 99.510187 
L 257.26364 97.848695 
L 257.598775 105.187187 
L 257.93391 86.811929 
L 258.269046 90.441992 
L 258.604181 107.177403 
L 258.939316 92.613133 
L 259.274451 95.370983 
L 259.609586 91.275592 
L 259.944721 89.543162 
L 260.279856 94.668851 
L 260.614992 94.76748 
L 261.285262 85.220059 
L 261.620397 120.005875 
L 261.955532 78.793173 
L 262.290667 99.138948 
L 262.625802 89.514535 
L 262.960938 91.735272 
L 263.296073 99.600291 
L 263.631208 88.698314 
L 263.966343 104.922447 
L 264.301478 82.879905 
L 264.636613 89.745336 
L 264.971748 87.436458 
L 265.306883 87.977665 
L 265.642019 101.269578 
L 265.977154 100.210145 
L 266.312289 89.149907 
L 266.647424 91.124489 
L 266.982559 85.670734 
L 267.317694 70.204755 
L 267.652829 105.614125 
L 267.987965 82.988256 
L 268.3231 78.476649 
L 268.658235 71.275973 
L 268.99337 78.307488 
L 269.328505 61.445548 
L 269.66364 101.237305 
L 269.998775 77.218389 
L 270.33391 73.824003 
L 270.669046 76.355828 
L 271.004181 92.444763 
L 271.339316 90.869144 
L 271.674451 80.658664 
L 272.009586 65.726754 
L 272.344721 69.651096 
L 272.679856 65.142791 
L 273.014992 83.148165 
L 273.350127 82.037277 
L 273.685262 68.486472 
L 274.020397 62.05429 
L 274.355532 72.659212 
L 274.690667 87.776796 
L 275.025802 85.018243 
L 275.696073 77.12211 
L 276.031208 80.351416 
L 276.366343 79.329324 
L 276.701478 77.481113 
L 277.036613 62.26873 
L 277.371748 64.313823 
L 277.706883 76.816246 
L 278.042019 73.880562 
L 278.377154 67.574086 
L 278.712289 74.165013 
L 279.047424 65.817638 
L 279.382559 51.751579 
L 279.717694 43.044094 
L 280.052829 69.13357 
L 280.387965 64.011377 
L 280.7231 84.316042 
L 281.39337 56.275723 
L 281.728505 48.430787 
L 282.06364 76.100255 
L 282.398775 63.183217 
L 282.73391 85.588406 
L 283.069046 63.405031 
L 283.404181 60.498477 
L 283.739316 61.215556 
L 284.074451 77.312178 
L 284.409586 53.482182 
L 284.744721 73.192126 
L 285.079856 61.310807 
L 285.414992 56.713637 
L 285.750127 65.204044 
L 286.085262 38.624038 
L 286.420397 52.426048 
L 286.755532 47.262745 
L 287.090667 70.030389 
L 287.425802 48.727906 
L 287.760938 63.899566 
L 288.096073 47.715885 
L 288.431208 45.451814 
L 288.766343 48.646547 
L 289.101478 66.265485 
L 289.436613 47.503857 
L 289.771748 59.215559 
L 290.106883 56.306713 
L 290.442019 60.564173 
L 290.777154 67.375636 
L 291.447424 41.171008 
L 292.117694 67.809399 
L 292.452829 52.399096 
L 292.787965 43.316541 
L 293.1231 44.503051 
L 293.458235 56.279286 
L 293.79337 59.767805 
L 294.128505 17.616653 
L 294.46364 60.60471 
L 294.798775 58.328904 
L 295.13391 41.847163 
L 295.469046 47.404769 
L 295.804181 58.915776 
L 296.139316 50.416756 
L 296.474451 56.098826 
L 296.809586 51.197269 
L 297.144721 41.00846 
L 297.479856 26.844816 
L 297.814992 24.345265 
L 298.150127 57.631769 
L 298.485262 48.33834 
L 298.820397 52.334812 
L 299.155532 45.934044 
L 299.490667 59.297581 
L 299.825802 53.868468 
L 300.160938 55.520954 
L 300.496073 47.509916 
L 300.831208 54.360821 
L 301.166343 55.260082 
L 301.501478 47.982593 
L 301.836613 38.283658 
L 302.171748 53.368629 
L 302.506883 47.038579 
L 302.842019 48.942969 
L 303.177154 33.488155 
L 303.847424 62.389978 
L 304.517694 46.380483 
L 304.852829 64.570972 
L 305.187965 39.26937 
L 305.5231 43.008501 
L 305.858235 44.728623 
L 306.19337 40.232113 
L 306.528505 59.074925 
L 306.86364 50.723929 
L 307.198775 74.112554 
L 307.53391 39.51345 
L 307.869046 17.233866 
L 308.204181 24.482091 
L 308.539316 46.96088 
L 308.874451 32.387824 
L 309.209586 58.127174 
L 309.544721 53.563274 
L 309.879856 34.823673 
L 310.214992 44.417397 
L 310.550127 41.19507 
L 310.885262 55.59248 
L 311.220397 42.36271 
L 311.555532 55.080946 
L 311.890667 32.975863 
L 312.225802 59.107389 
L 312.560938 53.861327 
L 312.896073 24.089179 
L 313.231208 29.921719 
L 313.566343 43.56971 
L 313.901478 23.760196 
L 314.236613 44.259594 
L 314.571748 34.093469 
L 314.906883 44.547471 
L 315.242019 30.02332 
L 315.577154 52.791216 
L 315.912289 37.59951 
L 316.247424 14.76 
L 316.917694 37.904488 
L 317.252829 46.064911 
L 317.587965 29.25103 
L 317.9231 42.807548 
L 318.258235 46.988536 
L 318.59337 43.707944 
L 318.928505 42.434371 
L 319.26364 75.390234 
L 319.598775 41.904702 
L 319.93391 66.890736 
L 320.269046 33.527172 
L 320.604181 47.674826 
L 320.939316 54.541347 
L 321.274451 41.546279 
L 321.609586 43.190067 
L 321.944721 30.75263 
L 322.279856 26.555643 
L 322.614992 45.378329 
L 322.950127 43.396435 
L 323.285262 36.81512 
L 323.955532 54.16151 
L 324.290667 37.002887 
L 324.625802 43.891671 
L 324.960938 42.227878 
L 325.296073 39.047402 
L 325.631208 71.098614 
L 325.966343 29.893312 
L 326.301478 43.31634 
L 326.636613 49.264427 
L 327.306883 35.253074 
L 327.642019 51.582807 
L 328.312289 39.663659 
L 328.647424 37.778504 
L 328.982559 22.696066 
L 329.317694 68.135389 
L 329.652829 56.074943 
L 329.987965 55.185864 
L 330.3231 38.689696 
L 330.658235 49.409067 
L 330.99337 43.542971 
L 331.328505 48.836717 
L 331.66364 59.381236 
L 331.998775 37.104639 
L 332.33391 75.163937 
L 333.339316 48.396241 
L 333.674451 47.379452 
L 334.009586 43.357836 
L 334.344721 50.831039 
L 334.679856 76.152104 
L 335.014992 36.19429 
L 335.350127 34.784592 
L 335.685262 60.310502 
L 336.020397 46.437444 
L 336.355532 47.863575 
L 337.025802 69.162699 
L 337.360937 38.059672 
L 338.031208 73.340254 
L 338.366343 46.266776 
L 338.701478 42.746673 
L 339.036613 45.851012 
L 339.371748 52.492923 
L 339.706883 49.053185 
L 340.042019 62.725735 
L 340.377154 65.532304 
L 340.712289 45.910413 
L 341.047424 46.489961 
L 341.382559 75.972068 
L 341.717694 59.956972 
L 342.052829 54.165217 
L 342.387965 54.480176 
L 342.7231 64.235967 
L 343.058235 54.163057 
L 343.39337 51.338007 
L 343.728505 70.604418 
L 344.06364 43.853861 
L 344.398775 51.623834 
L 344.73391 47.177518 
L 345.069046 53.301618 
L 345.404181 63.323568 
L 345.739316 51.586864 
L 346.074451 63.173126 
L 346.409586 44.205812 
L 346.744721 63.161133 
L 347.079856 59.428259 
L 347.414992 67.540165 
L 347.750127 70.294555 
L 348.085262 62.947281 
L 348.420397 49.403448 
L 348.755532 84.079362 
L 349.090667 36.282784 
L 349.425802 75.255137 
L 349.760938 63.268821 
L 350.096073 82.949052 
L 350.431208 78.493262 
L 350.766343 75.96586 
L 351.101478 54.650787 
L 351.436613 48.656855 
L 351.771748 58.83707 
L 352.106883 88.353476 
L 352.442019 63.337385 
L 352.777154 73.986614 
L 353.447424 61.962639 
L 353.782559 96.221544 
L 354.117694 67.076432 
L 354.452829 57.62314 
L 354.787965 71.342556 
L 355.1231 68.363438 
L 355.458235 74.433959 
L 355.79337 84.893285 
L 356.128505 65.16202 
L 356.46364 79.472667 
L 356.798775 86.012636 
L 357.469046 75.719098 
L 357.804181 83.107028 
L 358.139316 87.935582 
L 358.474451 83.878611 
L 358.809586 88.254171 
L 359.144721 63.109059 
L 359.479856 85.771291 
L 359.814992 89.30075 
L 360.150127 81.578132 
L 360.485262 91.636747 
L 361.155532 74.328698 
L 361.490667 78.760057 
L 361.825802 90.183482 
L 362.160938 71.915534 
L 362.496073 86.623179 
L 362.831208 85.914892 
L 363.166343 84.080868 
L 363.501478 102.07818 
L 363.836613 80.273999 
L 364.171748 93.283231 
L 364.506883 97.253091 
L 364.842019 83.842098 
L 365.177154 107.56679 
L 365.512289 105.041591 
L 366.182559 80.56538 
L 366.517694 84.897729 
L 366.852829 78.388091 
L 367.187965 90.044608 
L 367.5231 91.736678 
L 367.858235 94.907592 
L 368.19337 101.132654 
L 368.528505 104.727365 
L 369.198775 89.964173 
L 369.53391 95.830177 
L 369.869046 117.243264 
L 370.539316 89.16774 
L 370.874451 110.112555 
L 371.209586 106.582485 
L 371.544721 94.155057 
L 371.879856 122.696332 
L 372.214992 98.661136 
L 372.550127 108.346195 
L 372.885262 114.700941 
L 373.220397 105.896802 
L 373.555532 93.449176 
L 373.890667 127.742579 
L 374.225802 100.624427 
L 375.231208 116.876627 
L 375.566343 99.039679 
L 375.901478 119.572894 
L 376.236613 93.745009 
L 376.571748 101.705371 
L 376.906883 104.967107 
L 377.242019 118.757248 
L 377.577154 102.358749 
L 377.912289 105.764839 
L 378.247424 124.637966 
L 378.582559 105.081218 
L 378.917694 123.949975 
L 379.252829 129.176311 
L 379.587965 112.913472 
L 379.9231 109.15226 
L 380.258235 117.438498 
L 380.59337 119.854396 
L 380.928505 131.014838 
L 381.26364 113.649961 
L 381.598775 121.877184 
L 381.93391 106.812633 
L 382.269046 115.096297 
L 382.604181 101.178897 
L 382.939316 121.319872 
L 383.274451 128.596008 
L 383.609586 103.513163 
L 383.944721 131.91159 
L 384.279856 112.738836 
L 384.614992 126.888464 
L 384.950127 132.379091 
L 385.285262 114.925338 
L 385.620397 118.478596 
L 385.955532 133.229159 
L 386.290667 105.999392 
L 386.960938 129.691965 
L 386.960938 129.691965 
" clip-path="url(#p5a3472f504)" style="fill: none; stroke: #1f77b4; stroke-width: 1.5; stroke-linecap: square"/>
   </g>
   <g id="line2d_24">
    <path d="M 53.501478 83.882476 
L 53.836613 90.068623 
L 54.171748 82.205599 
L 54.506883 86.692125 
L 54.842019 89.134009 
L 55.177154 87.338978 
L 55.512289 95.624681 
L 55.847424 84.167797 
L 56.182559 82.710547 
L 56.517694 84.047244 
L 56.852829 75.738808 
L 57.187965 85.727343 
L 57.5231 81.591102 
L 57.858235 83.486075 
L 58.19337 90.256829 
L 58.528505 85.65981 
L 58.86364 84.060191 
L 59.198775 83.290068 
L 59.53391 84.394568 
L 59.869046 80.094699 
L 60.204181 79.158093 
L 60.539316 75.855383 
L 60.874451 78.165926 
L 61.544721 79.69218 
L 61.879856 72.638738 
L 62.214992 81.122686 
L 62.550127 74.831198 
L 62.885262 73.341153 
L 63.220397 64.379211 
L 63.555532 70.09994 
L 63.890667 63.904666 
L 64.225802 64.603723 
L 64.560938 69.894903 
L 64.896073 69.790985 
L 65.231208 66.348712 
L 65.566343 79.680382 
L 65.901478 72.1431 
L 66.236613 79.201265 
L 66.571748 71.225726 
L 66.906883 72.73426 
L 67.242019 65.804179 
L 67.577154 79.164291 
L 67.912289 75.774322 
L 68.247424 74.078083 
L 68.582559 74.383838 
L 68.917694 67.90794 
L 69.252829 65.504493 
L 69.587965 65.930703 
L 69.9231 60.228366 
L 70.258235 65.514679 
L 70.928505 49.656777 
L 71.26364 63.54542 
L 71.598775 57.782072 
L 71.93391 57.92741 
L 72.269046 58.596628 
L 72.604181 62.145929 
L 72.939316 68.775447 
L 73.274451 59.836486 
L 73.609586 69.558108 
L 73.944721 65.973589 
L 74.279856 59.935328 
L 74.614992 61.403701 
L 75.285262 57.097065 
L 75.620397 51.378858 
L 75.955532 55.582066 
L 76.290667 56.53264 
L 76.625802 54.603452 
L 77.296073 68.338392 
L 77.631208 65.453586 
L 77.966343 65.37296 
L 78.301478 59.360262 
L 78.636613 60.86051 
L 79.306883 51.813602 
L 79.642019 53.600401 
L 79.977154 51.661324 
L 80.312289 51.946447 
L 80.647424 58.917562 
L 80.982559 50.404313 
L 81.317694 54.505348 
L 81.987965 51.633592 
L 82.3231 52.537966 
L 82.658235 52.199492 
L 82.99337 47.578106 
L 83.328505 60.14325 
L 83.66364 45.694863 
L 83.998775 57.268494 
L 84.33391 57.359356 
L 84.669046 50.750258 
L 85.004181 50.783005 
L 85.339316 38.827868 
L 86.009586 44.047732 
L 87.014992 53.912303 
L 87.350127 44.577376 
L 87.685262 49.612124 
L 88.020397 51.000326 
L 88.355532 46.520994 
L 88.690667 46.541164 
L 89.025802 49.913926 
L 89.360938 47.741969 
L 89.696073 44.639425 
L 90.031208 56.661397 
L 90.701478 49.526617 
L 91.036613 53.925636 
L 91.706883 48.354817 
L 92.042019 51.329086 
L 92.377154 55.919382 
L 92.712289 46.635595 
L 93.047424 52.582745 
L 93.382559 54.730479 
L 93.717694 47.828853 
L 94.052829 48.364201 
L 94.7231 46.139006 
L 95.058235 41.944965 
L 95.39337 48.294033 
L 95.728505 48.640966 
L 96.06364 41.304564 
L 96.398775 51.463418 
L 96.73391 41.515136 
L 97.069046 42.382275 
L 97.404181 50.873543 
L 98.074451 36.230742 
L 98.409586 40.292149 
L 98.744721 38.586479 
L 99.079856 40.098954 
L 99.414992 45.541509 
L 99.750127 45.312793 
L 100.085262 46.960635 
L 100.420397 47.214224 
L 100.755532 47.127296 
L 101.090667 42.367401 
L 101.425802 44.869556 
L 101.760938 44.653632 
L 102.096073 41.972882 
L 102.431208 45.94273 
L 102.766343 53.061189 
L 103.101478 47.058864 
L 103.436613 48.497781 
L 103.771748 47.384351 
L 104.106883 37.551141 
L 104.442019 42.465027 
L 104.777154 42.665738 
L 105.112289 39.080174 
L 105.447424 43.570307 
L 105.782559 39.00212 
L 106.117694 37.600963 
L 106.452829 42.806004 
L 106.787965 38.378473 
L 107.1231 40.782523 
L 107.458235 45.446827 
L 107.79337 41.488659 
L 108.128505 50.854154 
L 109.469046 45.526453 
L 109.804181 46.084052 
L 110.139316 42.23489 
L 110.809586 52.431844 
L 111.144721 43.302341 
L 111.479856 44.343497 
L 111.814992 42.81679 
L 112.150127 37.905664 
L 112.485262 41.771952 
L 113.155532 33.597661 
L 113.490667 39.611283 
L 113.825802 36.167272 
L 114.160938 49.261223 
L 114.496073 51.855579 
L 114.831208 47.231626 
L 115.166343 55.660016 
L 115.501478 51.545032 
L 115.836613 50.385867 
L 116.171748 52.74517 
L 116.506883 49.827966 
L 116.842019 51.211605 
L 117.177154 38.53194 
L 117.847424 43.072411 
L 118.182559 37.161939 
L 118.517694 37.933745 
L 118.852829 44.840613 
L 119.187965 36.836742 
L 119.5231 38.33582 
L 119.858235 46.90363 
L 120.19337 40.440094 
L 120.528505 43.265323 
L 120.86364 41.590913 
L 121.198775 40.653735 
L 121.53391 48.568389 
L 121.869046 47.183546 
L 122.204181 50.84289 
L 122.539316 48.235161 
L 122.874451 43.321057 
L 123.209586 45.208243 
L 123.544721 39.459647 
L 123.879856 45.923365 
L 124.214992 47.427916 
L 124.550127 45.816847 
L 124.885262 54.395115 
L 125.220397 55.230441 
L 125.555532 54.933441 
L 125.890667 53.37105 
L 126.225802 55.864918 
L 126.560938 57.193704 
L 126.896073 55.612546 
L 127.231208 59.366868 
L 127.901478 60.480626 
L 128.236613 54.493493 
L 128.571748 53.983738 
L 128.906883 54.237866 
L 129.242019 47.726428 
L 129.577154 44.035714 
L 129.912289 56.573251 
L 130.247424 51.948972 
L 130.582559 56.774185 
L 130.917694 57.986207 
L 131.252829 61.331461 
L 131.587965 56.038017 
L 131.9231 59.474755 
L 132.258235 61.210332 
L 132.59337 61.370261 
L 132.928505 68.813666 
L 133.26364 51.206992 
L 133.598775 54.747375 
L 133.93391 56.241548 
L 134.269046 47.998206 
L 134.604181 55.775506 
L 134.939316 66.30256 
L 135.274451 54.773578 
L 135.609586 60.151963 
L 135.944721 58.882506 
L 136.279856 58.881072 
L 136.614992 61.418147 
L 136.950127 68.404352 
L 137.285262 62.20176 
L 137.620397 59.970158 
L 137.955532 64.561083 
L 138.290667 63.251243 
L 138.625802 65.314933 
L 138.960938 62.618169 
L 139.296073 72.670127 
L 139.631208 61.790726 
L 139.966343 62.806874 
L 140.636613 69.674076 
L 140.971748 61.87479 
L 141.306883 67.401698 
L 141.642019 68.762476 
L 141.977154 70.677888 
L 142.982559 58.449149 
L 143.317694 57.894786 
L 143.652829 64.26402 
L 143.987965 67.297022 
L 144.3231 72.944552 
L 144.658235 76.637638 
L 144.99337 77.858508 
L 145.328505 76.496884 
L 145.66364 80.199621 
L 145.998775 80.548984 
L 146.33391 76.90356 
L 147.004181 83.999724 
L 147.339316 76.630217 
L 147.674451 79.815306 
L 148.009586 80.83189 
L 148.679856 86.218907 
L 149.014992 82.753942 
L 149.350127 87.717271 
L 149.685262 84.899702 
L 150.020397 83.756139 
L 150.355532 84.746303 
L 150.690667 80.172235 
L 151.025802 78.171785 
L 151.360938 71.681029 
L 151.696073 83.888386 
L 152.031208 78.534663 
L 152.366343 81.006922 
L 152.701478 74.481454 
L 153.036613 80.886555 
L 153.371748 77.506878 
L 153.706883 77.031135 
L 154.042019 80.905212 
L 154.712289 86.34643 
L 155.047424 91.814913 
L 155.382559 93.36442 
L 155.717694 105.892712 
L 156.387965 92.413209 
L 156.7231 105.368701 
L 157.058235 89.16237 
L 157.39337 90.070188 
L 157.728505 96.523007 
L 158.06364 90.449962 
L 158.398775 87.4459 
L 158.73391 94.231159 
L 159.069046 89.611988 
L 159.404181 86.905325 
L 159.739316 88.880736 
L 160.074451 96.82183 
L 160.409586 93.574159 
L 160.744721 99.259357 
L 161.079856 101.950402 
L 161.414992 94.732952 
L 161.750127 101.144762 
L 162.085262 94.330256 
L 162.420397 96.64278 
L 162.755532 103.875524 
L 163.090667 100.417297 
L 163.425802 91.748705 
L 163.760938 101.59654 
L 164.096073 96.135282 
L 164.431208 106.254101 
L 164.766343 93.438498 
L 165.101478 102.048117 
L 165.436613 119.51751 
L 165.771748 99.526071 
L 166.106883 107.497829 
L 166.442019 111.572457 
L 166.777154 112.233393 
L 167.112289 111.762796 
L 167.447424 114.007623 
L 167.782559 121.020567 
L 168.117694 118.586332 
L 168.452829 112.938444 
L 168.787965 121.766965 
L 169.1231 106.380821 
L 169.79337 112.602041 
L 170.128505 103.344725 
L 170.46364 117.72933 
L 170.798775 111.431295 
L 171.13391 118.456087 
L 171.469046 115.647671 
L 171.804181 117.303278 
L 172.139316 123.313746 
L 172.474451 121.488206 
L 172.809586 126.064327 
L 173.144721 124.837834 
L 173.814992 118.944358 
L 174.150127 121.4355 
L 174.485262 118.712655 
L 174.820397 109.396164 
L 175.155532 120.665235 
L 175.490667 127.914423 
L 175.825802 123.217803 
L 176.496073 135.446633 
L 176.831208 130.275371 
L 177.166343 128.192791 
L 177.501478 133.288449 
L 177.836613 130.712502 
L 178.171748 131.046215 
L 178.842019 123.24717 
L 179.177154 126.840208 
L 179.512289 121.862911 
L 179.847424 127.052689 
L 180.182559 126.712677 
L 180.517694 127.020696 
L 180.852829 127.712961 
L 181.187965 127.827963 
L 181.5231 126.164585 
L 181.858235 127.206561 
L 182.19337 123.403527 
L 182.528505 123.775748 
L 182.86364 130.181006 
L 183.198775 123.900571 
L 183.53391 130.791267 
L 184.204181 129.13596 
L 184.539316 135.678236 
L 184.874451 138.253985 
L 185.209586 138.6976 
L 185.544721 140.926773 
L 185.879856 136.564994 
L 186.214992 140.590918 
L 186.550127 137.853265 
L 186.885262 139.976368 
L 187.220397 143.595412 
L 187.555532 135.852004 
L 187.890667 132.516555 
L 188.225802 132.235794 
L 188.560938 135.263774 
L 188.896073 129.772789 
L 189.231208 140.011084 
L 189.566343 143.868998 
L 189.901478 142.553891 
L 190.236613 142.827631 
L 190.571748 131.200527 
L 190.906883 135.402911 
L 191.242019 136.354407 
L 191.577154 125.436548 
L 191.912289 140.802239 
L 192.247424 137.283465 
L 192.582559 137.750306 
L 192.917694 142.356806 
L 193.252829 138.322147 
L 193.587965 140.435596 
L 193.9231 140.73808 
L 194.258235 140.754646 
L 194.928505 138.623804 
L 195.26364 134.115908 
L 195.598775 135.220835 
L 195.93391 138.653165 
L 196.269046 135.318244 
L 196.604181 140.05952 
L 196.939316 142.728867 
L 197.274451 140.806056 
L 197.609586 140.613069 
L 197.944721 143.291274 
L 198.279856 136.271494 
L 198.614992 136.854796 
L 198.950127 141.659816 
L 199.285262 140.449108 
L 199.620397 138.603924 
L 200.290667 144.053291 
L 200.625802 144.897025 
L 200.960938 138.265086 
L 201.296073 143.309569 
L 201.631208 142.595447 
L 202.301478 147.197648 
L 202.971748 144.200465 
L 203.306883 139.581327 
L 203.642019 145.583108 
L 203.977154 134.142388 
L 204.312289 141.548539 
L 204.647424 146.028201 
L 204.982559 146.101164 
L 205.317694 151.55454 
L 205.652829 148.671014 
L 205.987965 154.302951 
L 206.3231 150.079152 
L 206.658235 147.631374 
L 206.99337 139.558721 
L 207.66364 150.079794 
L 207.998775 144.84431 
L 208.33391 146.478822 
L 208.669046 141.601594 
L 209.004181 144.247338 
L 209.339316 142.245502 
L 209.674451 137.579525 
L 210.009586 144.682457 
L 210.344721 139.028508 
L 210.679856 144.450093 
L 211.350127 141.316493 
L 211.685262 148.044084 
L 212.020397 142.396855 
L 212.355532 144.013368 
L 213.025802 140.406434 
L 213.360938 143.896434 
L 213.696073 139.868397 
L 214.031208 143.993934 
L 214.366343 137.997902 
L 214.701478 143.337694 
L 215.036613 145.904764 
L 215.371748 135.762133 
L 215.706883 146.47763 
L 216.042019 147.34565 
L 216.377154 143.097833 
L 216.712289 151.11378 
L 217.047424 143.543272 
L 217.382559 146.035543 
L 217.717694 149.433795 
L 218.052829 142.98124 
L 218.387965 140.149916 
L 218.7231 147.456344 
L 219.058235 147.368611 
L 219.39337 145.929285 
L 219.728505 147.669982 
L 220.06364 146.737942 
L 220.398775 144.740379 
L 220.73391 148.854599 
L 221.069046 147.518456 
L 221.404181 147.666008 
L 221.739316 144.184875 
L 222.074451 142.809377 
L 222.409586 144.626125 
L 222.744721 134.787157 
L 223.079856 132.06379 
L 223.414992 135.390163 
L 223.750127 140.129452 
L 224.085262 132.729791 
L 224.420397 137.882415 
L 224.755532 136.934536 
L 225.090667 134.695185 
L 225.425802 144.252627 
L 225.760938 135.723068 
L 226.096073 136.741284 
L 226.431208 146.076142 
L 226.766343 140.464407 
L 227.101478 137.434612 
L 227.436613 136.218404 
L 227.771748 127.30026 
L 228.106883 133.579428 
L 228.442019 135.885314 
L 228.777154 136.614115 
L 229.112289 137.703754 
L 229.447424 138.165051 
L 229.782559 141.297934 
L 230.117694 136.484063 
L 230.452829 136.439328 
L 230.787965 139.846423 
L 231.458235 131.881868 
L 231.79337 139.791428 
L 232.128505 138.445677 
L 232.46364 138.855271 
L 232.798775 139.946611 
L 233.13391 133.876494 
L 233.804181 142.148621 
L 234.139316 135.087132 
L 234.474451 135.753787 
L 234.809586 142.240558 
L 235.144721 140.55736 
L 235.479856 135.243202 
L 236.150127 139.554812 
L 236.485262 132.048733 
L 236.820397 132.22502 
L 237.490667 135.598245 
L 237.825802 130.354312 
L 238.160938 135.801248 
L 238.496073 134.369846 
L 238.831208 134.40942 
L 239.166343 137.475752 
L 239.836613 127.618401 
L 240.171748 129.548051 
L 240.506883 126.733947 
L 240.842019 127.377635 
L 241.177154 131.539039 
L 241.512289 126.471163 
L 241.847424 133.903254 
L 242.182559 128.854016 
L 242.517694 130.375622 
L 242.852829 136.584824 
L 243.5231 129.039224 
L 243.858235 132.994562 
L 244.19337 131.443262 
L 244.528505 121.049126 
L 244.86364 126.750601 
L 245.198775 125.086769 
L 245.53391 124.047887 
L 245.869046 129.037287 
L 246.204181 126.975569 
L 246.539316 123.522287 
L 246.874451 122.73018 
L 247.209586 122.851512 
L 247.544721 124.120375 
L 247.879856 123.278571 
L 248.214992 115.686585 
L 248.550127 120.081124 
L 248.885262 119.539299 
L 249.220397 112.373992 
L 249.890667 117.165744 
L 250.225802 121.152207 
L 250.560938 115.194007 
L 250.896073 112.801526 
L 251.231208 112.670678 
L 251.566343 121.75782 
L 251.901478 100.6774 
L 252.571748 120.40013 
L 252.906883 111.686784 
L 253.242019 110.320407 
L 253.577154 113.09902 
L 253.912289 112.859697 
L 254.247424 110.815711 
L 254.582559 114.637871 
L 254.917694 113.69771 
L 255.252829 115.320576 
L 255.587965 110.825712 
L 255.9231 116.725385 
L 256.258235 109.223707 
L 256.59337 111.606846 
L 256.928505 126.32318 
L 257.26364 105.089466 
L 257.598775 107.958149 
L 257.93391 116.554106 
L 258.269046 92.919473 
L 258.604181 91.683332 
L 258.939316 101.606709 
L 259.274451 89.040149 
L 259.609586 91.269177 
L 259.944721 97.961347 
L 260.279856 88.871568 
L 260.614992 90.685038 
L 260.950127 90.055641 
L 261.285262 88.644405 
L 261.620397 88.57104 
L 261.955532 100.401941 
L 262.290667 81.972808 
L 262.625802 88.225436 
L 262.960938 99.498277 
L 263.296073 84.26601 
L 263.631208 95.252324 
L 263.966343 88.839421 
L 264.301478 94.324695 
L 264.636613 88.909853 
L 264.971748 86.656641 
L 265.306883 92.534691 
L 265.642019 83.608274 
L 265.977154 89.818765 
L 266.312289 91.832183 
L 266.647424 89.225606 
L 266.982559 93.757222 
L 267.317694 90.819892 
L 267.652829 82.057357 
L 267.987965 87.533745 
L 268.658235 77.326447 
L 268.99337 87.403713 
L 269.328505 76.253537 
L 269.66364 71.553659 
L 269.998775 75.749744 
L 270.33391 75.852713 
L 270.669046 70.973287 
L 271.004181 84.398762 
L 271.339316 78.495045 
L 271.674451 80.688857 
L 272.009586 80.115824 
L 272.344721 81.912689 
L 273.350127 67.737118 
L 273.685262 72.685778 
L 274.020397 69.920443 
L 274.355532 72.831572 
L 274.690667 71.354354 
L 275.025802 71.113277 
L 275.360937 72.357354 
L 276.031208 80.997794 
L 277.371748 73.336971 
L 277.706883 69.800632 
L 278.042019 69.998422 
L 278.377154 66.25847 
L 278.712289 66.771293 
L 279.047424 71.467058 
L 279.382559 69.163086 
L 279.717694 62.719251 
L 280.052829 59.436309 
L 280.387965 58.131115 
L 280.7231 55.452504 
L 281.058235 58.764592 
L 281.39337 69.853366 
L 281.728505 64.427691 
L 282.06364 66.167454 
L 282.73391 59.400024 
L 283.069046 61.856545 
L 283.404181 71.594739 
L 283.739316 63.811691 
L 284.074451 69.385004 
L 284.409586 63.486711 
L 284.744721 61.041457 
L 285.079856 62.647671 
L 285.414992 67.607965 
L 285.750127 57.080192 
L 286.085262 64.090478 
L 286.420397 54.991043 
L 286.755532 52.838834 
L 287.090667 53.15161 
L 287.425802 49.341025 
L 287.760938 53.320347 
L 288.096073 54.00476 
L 288.431208 59.112408 
L 288.766343 49.717385 
L 289.101478 53.037259 
L 289.771748 49.54107 
L 290.106883 52.806565 
L 290.442019 58.127489 
L 290.777154 52.919964 
L 291.112289 59.005304 
L 291.447424 57.373544 
L 291.782559 54.699983 
L 292.117694 55.982053 
L 292.452829 54.244126 
L 292.787965 50.039268 
L 293.1231 52.637523 
L 293.458235 53.9705 
L 293.79337 49.69658 
L 294.128505 49.075688 
L 294.46364 43.192696 
L 294.798775 50.450934 
L 295.13391 52.365038 
L 295.469046 38.966077 
L 295.804181 52.657368 
L 296.139316 52.554321 
L 296.474451 47.469763 
L 297.144721 53.757139 
L 297.479856 48.768905 
L 297.814992 45.68914 
L 298.150127 39.838245 
L 298.485262 40.50123 
L 298.820397 38.218522 
L 299.155532 41.586033 
L 299.490667 51.356057 
L 299.825802 50.412942 
L 300.160938 51.782043 
L 300.496073 50.989043 
L 300.831208 53.560101 
L 301.166343 52.085546 
L 301.501478 52.674173 
L 301.836613 49.489467 
L 302.171748 49.023658 
L 302.506883 49.903693 
L 302.842019 46.823255 
L 303.177154 45.040223 
L 303.512289 46.614897 
L 303.847424 45.238877 
L 304.182559 48.702196 
L 304.517694 45.864701 
L 304.852829 50.280983 
L 305.187965 56.883824 
L 305.5231 50.877594 
L 305.858235 47.242198 
L 306.19337 50.866097 
L 306.528505 41.742097 
L 306.86364 46.499737 
L 307.198775 47.580804 
L 307.869046 55.50714 
L 308.204181 45.004463 
L 308.539316 46.398979 
L 308.874451 36.391422 
L 309.209586 29.868992 
L 309.879856 47.70919 
L 310.214992 41.734707 
L 310.550127 49.426589 
L 311.220397 42.969804 
L 311.890667 46.968729 
L 312.225802 47.570094 
L 312.560938 46.747597 
L 312.896073 51.159318 
L 313.231208 39.951688 
L 313.566343 45.295737 
L 313.901478 42.634236 
L 314.236613 30.86835 
L 314.571748 36.230138 
L 314.906883 39.141845 
L 315.242019 35.713896 
L 315.577154 40.094444 
L 315.912289 40.517255 
L 316.247424 42.439934 
L 316.582559 33.67413 
L 316.917694 38.975266 
L 317.252829 34.096538 
L 317.587965 31.038408 
L 318.59337 43.211325 
L 318.928505 39.180115 
L 319.26364 43.892178 
L 319.598775 51.406936 
L 319.93391 48.940397 
L 320.269046 52.685153 
L 320.604181 58.178953 
L 320.939316 46.096014 
L 321.274451 53.613369 
L 321.609586 42.098202 
L 321.944721 46.58503 
L 322.279856 44.815186 
L 322.614992 37.746172 
L 322.950127 39.693495 
L 323.285262 37.000762 
L 323.620397 36.672174 
L 323.955532 43.992023 
L 324.290667 45.315416 
L 324.625802 42.046018 
L 324.960938 45.416237 
L 325.296073 46.440557 
L 325.631208 40.457043 
L 325.966343 48.71297 
L 326.301478 44.451556 
L 326.636613 44.282618 
L 326.971748 52.806407 
L 327.306883 39.54543 
L 327.977154 46.122994 
L 328.647424 41.562159 
L 328.982559 45.237563 
L 329.317694 38.830874 
L 329.652829 43.539025 
L 329.987965 45.262732 
L 330.3231 44.275511 
L 330.658235 55.478364 
L 330.99337 50.519139 
L 331.328505 48.134623 
L 331.66364 44.061248 
L 331.998775 49.932045 
L 332.33391 45.659977 
L 333.004181 59.554271 
L 333.339316 52.429278 
L 333.674451 62.255001 
L 334.344721 50.182603 
L 334.679856 47.597621 
L 335.014992 52.88338 
L 335.350127 48.869556 
L 335.685262 48.425406 
L 336.020397 56.495691 
L 336.355532 43.084505 
L 336.690667 44.516623 
L 337.025802 53.884383 
L 337.360937 52.893785 
L 337.696073 50.473902 
L 338.031208 54.146523 
L 338.366343 60.342067 
L 338.701478 48.498926 
L 339.371748 55.221039 
L 339.706883 46.854619 
L 340.042019 46.338245 
L 340.712289 55.390701 
L 341.047424 52.371047 
L 341.382559 54.894902 
L 341.717694 59.058199 
L 342.052829 54.217046 
L 342.387965 54.283911 
L 342.7231 62.258243 
L 343.058235 57.086232 
L 343.39337 54.767943 
L 343.728505 53.961881 
L 344.06364 59.45218 
L 344.398775 53.67843 
L 344.73391 52.330796 
L 345.069046 55.832545 
L 345.404181 47.672833 
L 345.739316 52.71914 
L 346.074451 51.140057 
L 346.409586 55.433356 
L 346.744721 55.847919 
L 347.079856 53.712414 
L 347.414992 57.976119 
L 347.750127 54.207521 
L 348.085262 63.157517 
L 348.420397 61.787994 
L 348.755532 61.073419 
L 349.090667 65.552309 
L 349.425802 57.318656 
L 349.760938 57.33402 
L 350.096073 69.038694 
L 350.431208 56.877091 
L 350.766343 73.775008 
L 351.101478 69.918814 
L 351.436613 72.37785 
L 351.771748 64.371919 
L 352.106883 61.258765 
L 352.442019 60.641004 
L 352.777154 60.424363 
L 353.112289 65.219477 
L 353.447424 74.767134 
L 353.782559 63.377875 
L 354.117694 74.218195 
L 354.787965 64.961498 
L 355.1231 75.745512 
L 355.458235 64.989293 
L 355.79337 63.555517 
L 356.128505 72.584774 
L 356.46364 70.079683 
L 356.798775 72.602714 
L 357.13391 79.500142 
L 357.469046 72.978602 
L 357.804181 77.451493 
L 358.139316 80.048062 
L 358.474451 80.614472 
L 358.809586 79.041745 
L 359.144721 82.934361 
L 359.479856 79.865241 
L 359.814992 78.023497 
L 360.150127 83.199952 
L 360.485262 73.769445 
L 360.820397 84.54596 
L 361.155532 85.142422 
L 361.490667 79.399683 
L 361.825802 81.27731 
L 362.160938 81.334846 
L 362.496073 75.664945 
L 362.831208 78.355433 
L 363.166343 84.193018 
L 363.501478 77.418701 
L 363.836613 87.992479 
L 364.171748 83.458513 
L 364.506883 85.214725 
L 364.842019 94.869186 
L 365.177154 83.676552 
L 365.512289 94.411336 
L 365.847424 98.994299 
L 366.182559 91.078122 
L 366.517694 95.36884 
L 366.852829 91.323413 
L 367.187965 84.196738 
L 367.5231 80.972848 
L 367.858235 85.071904 
L 368.19337 84.724028 
L 368.86364 97.550439 
L 369.53391 96.130691 
L 369.869046 97.711063 
L 370.204181 103.333124 
L 370.539316 97.233776 
L 370.874451 96.611205 
L 371.209586 111.679627 
L 371.879856 94.777785 
L 372.214992 113.997164 
L 372.550127 102.426177 
L 372.885262 103.769083 
L 373.220397 119.710862 
L 373.555532 106.713954 
L 373.890667 106.091399 
L 374.225802 116.477637 
L 374.560938 103.031414 
L 374.896073 103.804039 
L 375.231208 119.292715 
L 375.901478 106.870577 
L 376.236613 115.3903 
L 376.571748 106.131499 
L 376.906883 102.224475 
L 377.242019 112.52677 
L 377.577154 107.200792 
L 377.912289 105.207078 
L 378.247424 110.147247 
L 378.582559 122.454776 
L 378.917694 107.364301 
L 379.587965 127.646579 
L 379.9231 116.194416 
L 380.258235 120.965823 
L 380.59337 123.193882 
L 380.928505 119.523617 
L 381.26364 123.911573 
L 381.598775 121.276206 
L 381.93391 124.665591 
L 382.939316 115.259232 
L 383.274451 114.801167 
L 383.609586 122.390672 
L 383.944721 109.658976 
L 384.279856 123.422306 
L 384.614992 122.546377 
L 384.950127 119.81817 
L 385.285262 131.047233 
L 385.620397 121.089892 
L 386.290667 130.469638 
L 386.625802 116.375873 
L 386.960938 120.703014 
L 386.960938 120.703014 
" clip-path="url(#p5a3472f504)" style="fill: none; stroke-dasharray: 5.55,2.4; stroke-dashoffset: 0; stroke: #bf00bf; stroke-width: 1.5"/>
   </g>
   <g id="patch_3">
    <path d="M 52.160938 173.52 
L 52.160938 7.2 
" style="fill: none; stroke: #000000; stroke-width: 0.8; stroke-linejoin: miter; stroke-linecap: square"/>
   </g>
   <g id="patch_4">
    <path d="M 386.960938 173.52 
L 386.960938 7.2 
" style="fill: none; stroke: #000000; stroke-width: 0.8; stroke-linejoin: miter; stroke-linecap: square"/>
   </g>
   <g id="patch_5">
    <path d="M 52.160938 173.52 
L 386.960938 173.52 
" style="fill: none; stroke: #000000; stroke-width: 0.8; stroke-linejoin: miter; stroke-linecap: square"/>
   </g>
   <g id="patch_6">
    <path d="M 52.160938 7.2 
L 386.960938 7.2 
" style="fill: none; stroke: #000000; stroke-width: 0.8; stroke-linejoin: miter; stroke-linecap: square"/>
   </g>
   <g id="legend_1">
    <g id="patch_7">
     <path d="M 59.160938 168.52 
L 153.885938 168.52 
Q 155.885938 168.52 155.885938 166.52 
L 155.885938 138.16375 
Q 155.885938 136.16375 153.885938 136.16375 
L 59.160938 136.16375 
Q 57.160938 136.16375 57.160938 138.16375 
L 57.160938 166.52 
Q 57.160938 168.52 59.160938 168.52 
z
" style="fill: #ffffff; opacity: 0.8; stroke: #cccccc; stroke-linejoin: miter"/>
    </g>
    <g id="line2d_25">
     <path d="M 61.160938 144.262188 
L 71.160938 144.262188 
L 81.160938 144.262188 
" style="fill: none; stroke: #1f77b4; stroke-width: 1.5; stroke-linecap: square"/>
    </g>
    <g id="text_14">
     <!-- data -->
     <g transform="translate(89.160938 147.762188)scale(0.1 -0.1)">
      <defs>
       <path id="DejaVuSans-64" d="M 2906 2969 
L 2906 4863 
L 3481 4863 
L 3481 0 
L 2906 0 
L 2906 525 
Q 2725 213 2448 61 
Q 2172 -91 1784 -91 
Q 1150 -91 751 415 
Q 353 922 353 1747 
Q 353 2572 751 3078 
Q 1150 3584 1784 3584 
Q 2172 3584 2448 3432 
Q 2725 3281 2906 2969 
z
M 947 1747 
Q 947 1113 1208 752 
Q 1469 391 1925 391 
Q 2381 391 2643 752 
Q 2906 1113 2906 1747 
Q 2906 2381 2643 2742 
Q 2381 3103 1925 3103 
Q 1469 3103 1208 2742 
Q 947 2381 947 1747 
z
" transform="scale(0.015625)"/>
       <path id="DejaVuSans-61" d="M 2194 1759 
Q 1497 1759 1228 1600 
Q 959 1441 959 1056 
Q 959 750 1161 570 
Q 1363 391 1709 391 
Q 2188 391 2477 730 
Q 2766 1069 2766 1631 
L 2766 1759 
L 2194 1759 
z
M 3341 1997 
L 3341 0 
L 2766 0 
L 2766 531 
Q 2569 213 2275 61 
Q 1981 -91 1556 -91 
Q 1019 -91 701 211 
Q 384 513 384 1019 
Q 384 1609 779 1909 
Q 1175 2209 1959 2209 
L 2766 2209 
L 2766 2266 
Q 2766 2663 2505 2880 
Q 2244 3097 1772 3097 
Q 1472 3097 1187 3025 
Q 903 2953 641 2809 
L 641 3341 
Q 956 3463 1253 3523 
Q 1550 3584 1831 3584 
Q 2591 3584 2966 3190 
Q 3341 2797 3341 1997 
z
" transform="scale(0.015625)"/>
      </defs>
      <use xlink:href="#DejaVuSans-64"/>
      <use xlink:href="#DejaVuSans-61" x="63.476562"/>
      <use xlink:href="#DejaVuSans-74" x="124.755859"/>
      <use xlink:href="#DejaVuSans-61" x="163.964844"/>
     </g>
    </g>
    <g id="line2d_26">
     <path d="M 61.160938 158.940313 
L 71.160938 158.940313 
L 81.160938 158.940313 
" style="fill: none; stroke-dasharray: 5.55,2.4; stroke-dashoffset: 0; stroke: #bf00bf; stroke-width: 1.5"/>
    </g>
    <g id="text_15">
     <!-- 1-step preds -->
     <g transform="translate(89.160938 162.440313)scale(0.1 -0.1)">
      <defs>
       <path id="DejaVuSans-2d" d="M 313 2009 
L 1997 2009 
L 1997 1497 
L 313 1497 
L 313 2009 
z
" transform="scale(0.015625)"/>
       <path id="DejaVuSans-73" d="M 2834 3397 
L 2834 2853 
Q 2591 2978 2328 3040 
Q 2066 3103 1784 3103 
Q 1356 3103 1142 2972 
Q 928 2841 928 2578 
Q 928 2378 1081 2264 
Q 1234 2150 1697 2047 
L 1894 2003 
Q 2506 1872 2764 1633 
Q 3022 1394 3022 966 
Q 3022 478 2636 193 
Q 2250 -91 1575 -91 
Q 1294 -91 989 -36 
Q 684 19 347 128 
L 347 722 
Q 666 556 975 473 
Q 1284 391 1588 391 
Q 1994 391 2212 530 
Q 2431 669 2431 922 
Q 2431 1156 2273 1281 
Q 2116 1406 1581 1522 
L 1381 1569 
Q 847 1681 609 1914 
Q 372 2147 372 2553 
Q 372 3047 722 3315 
Q 1072 3584 1716 3584 
Q 2034 3584 2315 3537 
Q 2597 3491 2834 3397 
z
" transform="scale(0.015625)"/>
       <path id="DejaVuSans-70" d="M 1159 525 
L 1159 -1331 
L 581 -1331 
L 581 3500 
L 1159 3500 
L 1159 2969 
Q 1341 3281 1617 3432 
Q 1894 3584 2278 3584 
Q 2916 3584 3314 3078 
Q 3713 2572 3713 1747 
Q 3713 922 3314 415 
Q 2916 -91 2278 -91 
Q 1894 -91 1617 61 
Q 1341 213 1159 525 
z
M 3116 1747 
Q 3116 2381 2855 2742 
Q 2594 3103 2138 3103 
Q 1681 3103 1420 2742 
Q 1159 2381 1159 1747 
Q 1159 1113 1420 752 
Q 1681 391 2138 391 
Q 2594 391 2855 752 
Q 3116 1113 3116 1747 
z
" transform="scale(0.015625)"/>
       <path id="DejaVuSans-20" transform="scale(0.015625)"/>
       <path id="DejaVuSans-72" d="M 2631 2963 
Q 2534 3019 2420 3045 
Q 2306 3072 2169 3072 
Q 1681 3072 1420 2755 
Q 1159 2438 1159 1844 
L 1159 0 
L 581 0 
L 581 3500 
L 1159 3500 
L 1159 2956 
Q 1341 3275 1631 3429 
Q 1922 3584 2338 3584 
Q 2397 3584 2469 3576 
Q 2541 3569 2628 3553 
L 2631 2963 
z
" transform="scale(0.015625)"/>
      </defs>
      <use xlink:href="#DejaVuSans-31"/>
      <use xlink:href="#DejaVuSans-2d" x="63.623047"/>
      <use xlink:href="#DejaVuSans-73" x="99.707031"/>
      <use xlink:href="#DejaVuSans-74" x="151.806641"/>
      <use xlink:href="#DejaVuSans-65" x="191.015625"/>
      <use xlink:href="#DejaVuSans-70" x="252.539062"/>
      <use xlink:href="#DejaVuSans-20" x="316.015625"/>
      <use xlink:href="#DejaVuSans-70" x="347.802734"/>
      <use xlink:href="#DejaVuSans-72" x="411.279297"/>
      <use xlink:href="#DejaVuSans-65" x="450.142578"/>
      <use xlink:href="#DejaVuSans-64" x="511.666016"/>
      <use xlink:href="#DejaVuSans-73" x="575.142578"/>
     </g>
    </g>
   </g>
  </g>
 </g>
 <defs>
  <clipPath id="p5a3472f504">
   <rect x="52.160938" y="7.2" width="334.8" height="166.32"/>
  </clipPath>
 </defs>
</svg>
