<?xml version="1.0" encoding="utf-8" standalone="no"?>
<!DOCTYPE svg PUBLIC "-//W3C//DTD SVG 1.1//EN"
  "http://www.w3.org/Graphics/SVG/1.1/DTD/svg11.dtd">
<svg xmlns:xlink="http://www.w3.org/1999/xlink" width="406.885938pt" height="211.07625pt" viewBox="0 0 406.885938 211.07625" xmlns="http://www.w3.org/2000/svg" version="1.1">
 <metadata>
  <rdf:RDF xmlns:dc="http://purl.org/dc/elements/1.1/" xmlns:cc="http://creativecommons.org/ns#" xmlns:rdf="http://www.w3.org/1999/02/22-rdf-syntax-ns#">
   <cc:Work>
    <dc:type rdf:resource="http://purl.org/dc/dcmitype/StillImage"/>
    <dc:date>2023-10-06T22:31:41.548331</dc:date>
    <dc:format>image/svg+xml</dc:format>
    <dc:creator>
     <cc:Agent>
      <dc:title>Matplotlib v3.5.1, https://matplotlib.org/</dc:title>
     </cc:Agent>
    </dc:creator>
   </cc:Work>
  </rdf:RDF>
 </metadata>
 <defs>
  <style type="text/css">*{stroke-linejoin: round; stroke-linecap: butt}</style>
 </defs>
 <g id="figure_1">
  <g id="patch_1">
   <path d="M 0 211.07625 
L 406.885938 211.07625 
L 406.885938 0 
L 0 0 
z
" style="fill: #ffffff"/>
  </g>
  <g id="axes_1">
   <g id="patch_2">
    <path d="M 52.160938 173.52 
L 386.960938 173.52 
L 386.960938 7.2 
L 52.160938 7.2 
z
" style="fill: #ffffff"/>
   </g>
   <g id="matplotlib.axis_1">
    <g id="xtick_1">
     <g id="line2d_1">
      <path d="M 117.775008 173.52 
L 117.775008 7.2 
" clip-path="url(#p006351830c)" style="fill: none; stroke: #b0b0b0; stroke-width: 0.8; stroke-linecap: square"/>
     </g>
     <g id="line2d_2">
      <defs>
       <path id="mee91c72980" d="M 0 0 
L 0 3.5 
" style="stroke: #000000; stroke-width: 0.8"/>
      </defs>
      <g>
       <use xlink:href="#mee91c72980" x="117.775008" y="173.52" style="stroke: #000000; stroke-width: 0.8"/>
      </g>
     </g>
     <g id="text_1">
      <!-- 200 -->
      <g transform="translate(108.231258 188.118438)scale(0.1 -0.1)">
       <defs>
        <path id="DejaVuSans-32" d="M 1228 531 
L 3431 531 
L 3431 0 
L 469 0 
L 469 531 
Q 828 903 1448 1529 
Q 2069 2156 2228 2338 
Q 2531 2678 2651 2914 
Q 2772 3150 2772 3378 
Q 2772 3750 2511 3984 
Q 2250 4219 1831 4219 
Q 1534 4219 1204 4116 
Q 875 4013 500 3803 
L 500 4441 
Q 881 4594 1212 4672 
Q 1544 4750 1819 4750 
Q 2544 4750 2975 4387 
Q 3406 4025 3406 3419 
Q 3406 3131 3298 2873 
Q 3191 2616 2906 2266 
Q 2828 2175 2409 1742 
Q 1991 1309 1228 531 
z
" transform="scale(0.015625)"/>
        <path id="DejaVuSans-30" d="M 2034 4250 
Q 1547 4250 1301 3770 
Q 1056 3291 1056 2328 
Q 1056 1369 1301 889 
Q 1547 409 2034 409 
Q 2525 409 2770 889 
Q 3016 1369 3016 2328 
Q 3016 3291 2770 3770 
Q 2525 4250 2034 4250 
z
M 2034 4750 
Q 2819 4750 3233 4129 
Q 3647 3509 3647 2328 
Q 3647 1150 3233 529 
Q 2819 -91 2034 -91 
Q 1250 -91 836 529 
Q 422 1150 422 2328 
Q 422 3509 836 4129 
Q 1250 4750 2034 4750 
z
" transform="scale(0.015625)"/>
       </defs>
       <use xlink:href="#DejaVuSans-32"/>
       <use xlink:href="#DejaVuSans-30" x="63.623047"/>
       <use xlink:href="#DejaVuSans-30" x="127.246094"/>
      </g>
     </g>
    </g>
    <g id="xtick_2">
     <g id="line2d_3">
      <path d="M 185.07149 173.52 
L 185.07149 7.2 
" clip-path="url(#p006351830c)" style="fill: none; stroke: #b0b0b0; stroke-width: 0.8; stroke-linecap: square"/>
     </g>
     <g id="line2d_4">
      <g>
       <use xlink:href="#mee91c72980" x="185.07149" y="173.52" style="stroke: #000000; stroke-width: 0.8"/>
      </g>
     </g>
     <g id="text_2">
      <!-- 400 -->
      <g transform="translate(175.52774 188.118438)scale(0.1 -0.1)">
       <defs>
        <path id="DejaVuSans-34" d="M 2419 4116 
L 825 1625 
L 2419 1625 
L 2419 4116 
z
M 2253 4666 
L 3047 4666 
L 3047 1625 
L 3713 1625 
L 3713 1100 
L 3047 1100 
L 3047 0 
L 2419 0 
L 2419 1100 
L 313 1100 
L 313 1709 
L 2253 4666 
z
" transform="scale(0.015625)"/>
       </defs>
       <use xlink:href="#DejaVuSans-34"/>
       <use xlink:href="#DejaVuSans-30" x="63.623047"/>
       <use xlink:href="#DejaVuSans-30" x="127.246094"/>
      </g>
     </g>
    </g>
    <g id="xtick_3">
     <g id="line2d_5">
      <path d="M 252.367973 173.52 
L 252.367973 7.2 
" clip-path="url(#p006351830c)" style="fill: none; stroke: #b0b0b0; stroke-width: 0.8; stroke-linecap: square"/>
     </g>
     <g id="line2d_6">
      <g>
       <use xlink:href="#mee91c72980" x="252.367973" y="173.52" style="stroke: #000000; stroke-width: 0.8"/>
      </g>
     </g>
     <g id="text_3">
      <!-- 600 -->
      <g transform="translate(242.824223 188.118438)scale(0.1 -0.1)">
       <defs>
        <path id="DejaVuSans-36" d="M 2113 2584 
Q 1688 2584 1439 2293 
Q 1191 2003 1191 1497 
Q 1191 994 1439 701 
Q 1688 409 2113 409 
Q 2538 409 2786 701 
Q 3034 994 3034 1497 
Q 3034 2003 2786 2293 
Q 2538 2584 2113 2584 
z
M 3366 4563 
L 3366 3988 
Q 3128 4100 2886 4159 
Q 2644 4219 2406 4219 
Q 1781 4219 1451 3797 
Q 1122 3375 1075 2522 
Q 1259 2794 1537 2939 
Q 1816 3084 2150 3084 
Q 2853 3084 3261 2657 
Q 3669 2231 3669 1497 
Q 3669 778 3244 343 
Q 2819 -91 2113 -91 
Q 1303 -91 875 529 
Q 447 1150 447 2328 
Q 447 3434 972 4092 
Q 1497 4750 2381 4750 
Q 2619 4750 2861 4703 
Q 3103 4656 3366 4563 
z
" transform="scale(0.015625)"/>
       </defs>
       <use xlink:href="#DejaVuSans-36"/>
       <use xlink:href="#DejaVuSans-30" x="63.623047"/>
       <use xlink:href="#DejaVuSans-30" x="127.246094"/>
      </g>
     </g>
    </g>
    <g id="xtick_4">
     <g id="line2d_7">
      <path d="M 319.664455 173.52 
L 319.664455 7.2 
" clip-path="url(#p006351830c)" style="fill: none; stroke: #b0b0b0; stroke-width: 0.8; stroke-linecap: square"/>
     </g>
     <g id="line2d_8">
      <g>
       <use xlink:href="#mee91c72980" x="319.664455" y="173.52" style="stroke: #000000; stroke-width: 0.8"/>
      </g>
     </g>
     <g id="text_4">
      <!-- 800 -->
      <g transform="translate(310.120705 188.118438)scale(0.1 -0.1)">
       <defs>
        <path id="DejaVuSans-38" d="M 2034 2216 
Q 1584 2216 1326 1975 
Q 1069 1734 1069 1313 
Q 1069 891 1326 650 
Q 1584 409 2034 409 
Q 2484 409 2743 651 
Q 3003 894 3003 1313 
Q 3003 1734 2745 1975 
Q 2488 2216 2034 2216 
z
M 1403 2484 
Q 997 2584 770 2862 
Q 544 3141 544 3541 
Q 544 4100 942 4425 
Q 1341 4750 2034 4750 
Q 2731 4750 3128 4425 
Q 3525 4100 3525 3541 
Q 3525 3141 3298 2862 
Q 3072 2584 2669 2484 
Q 3125 2378 3379 2068 
Q 3634 1759 3634 1313 
Q 3634 634 3220 271 
Q 2806 -91 2034 -91 
Q 1263 -91 848 271 
Q 434 634 434 1313 
Q 434 1759 690 2068 
Q 947 2378 1403 2484 
z
M 1172 3481 
Q 1172 3119 1398 2916 
Q 1625 2713 2034 2713 
Q 2441 2713 2670 2916 
Q 2900 3119 2900 3481 
Q 2900 3844 2670 4047 
Q 2441 4250 2034 4250 
Q 1625 4250 1398 4047 
Q 1172 3844 1172 3481 
z
" transform="scale(0.015625)"/>
       </defs>
       <use xlink:href="#DejaVuSans-38"/>
       <use xlink:href="#DejaVuSans-30" x="63.623047"/>
       <use xlink:href="#DejaVuSans-30" x="127.246094"/>
      </g>
     </g>
    </g>
    <g id="xtick_5">
     <g id="line2d_9">
      <path d="M 386.960938 173.52 
L 386.960938 7.2 
" clip-path="url(#p006351830c)" style="fill: none; stroke: #b0b0b0; stroke-width: 0.8; stroke-linecap: square"/>
     </g>
     <g id="line2d_10">
      <g>
       <use xlink:href="#mee91c72980" x="386.960938" y="173.52" style="stroke: #000000; stroke-width: 0.8"/>
      </g>
     </g>
     <g id="text_5">
      <!-- 1000 -->
      <g transform="translate(374.235938 188.118438)scale(0.1 -0.1)">
       <defs>
        <path id="DejaVuSans-31" d="M 794 531 
L 1825 531 
L 1825 4091 
L 703 3866 
L 703 4441 
L 1819 4666 
L 2450 4666 
L 2450 531 
L 3481 531 
L 3481 0 
L 794 0 
L 794 531 
z
" transform="scale(0.015625)"/>
       </defs>
       <use xlink:href="#DejaVuSans-31"/>
       <use xlink:href="#DejaVuSans-30" x="63.623047"/>
       <use xlink:href="#DejaVuSans-30" x="127.246094"/>
       <use xlink:href="#DejaVuSans-30" x="190.869141"/>
      </g>
     </g>
    </g>
    <g id="text_6">
     <!-- time -->
     <g transform="translate(208.264844 201.796563)scale(0.1 -0.1)">
      <defs>
       <path id="DejaVuSans-74" d="M 1172 4494 
L 1172 3500 
L 2356 3500 
L 2356 3053 
L 1172 3053 
L 1172 1153 
Q 1172 725 1289 603 
Q 1406 481 1766 481 
L 2356 481 
L 2356 0 
L 1766 0 
Q 1100 0 847 248 
Q 594 497 594 1153 
L 594 3053 
L 172 3053 
L 172 3500 
L 594 3500 
L 594 4494 
L 1172 4494 
z
" transform="scale(0.015625)"/>
       <path id="DejaVuSans-69" d="M 603 3500 
L 1178 3500 
L 1178 0 
L 603 0 
L 603 3500 
z
M 603 4863 
L 1178 4863 
L 1178 4134 
L 603 4134 
L 603 4863 
z
" transform="scale(0.015625)"/>
       <path id="DejaVuSans-6d" d="M 3328 2828 
Q 3544 3216 3844 3400 
Q 4144 3584 4550 3584 
Q 5097 3584 5394 3201 
Q 5691 2819 5691 2113 
L 5691 0 
L 5113 0 
L 5113 2094 
Q 5113 2597 4934 2840 
Q 4756 3084 4391 3084 
Q 3944 3084 3684 2787 
Q 3425 2491 3425 1978 
L 3425 0 
L 2847 0 
L 2847 2094 
Q 2847 2600 2669 2842 
Q 2491 3084 2119 3084 
Q 1678 3084 1418 2786 
Q 1159 2488 1159 1978 
L 1159 0 
L 581 0 
L 581 3500 
L 1159 3500 
L 1159 2956 
Q 1356 3278 1631 3431 
Q 1906 3584 2284 3584 
Q 2666 3584 2933 3390 
Q 3200 3197 3328 2828 
z
" transform="scale(0.015625)"/>
       <path id="DejaVuSans-65" d="M 3597 1894 
L 3597 1613 
L 953 1613 
Q 991 1019 1311 708 
Q 1631 397 2203 397 
Q 2534 397 2845 478 
Q 3156 559 3463 722 
L 3463 178 
Q 3153 47 2828 -22 
Q 2503 -91 2169 -91 
Q 1331 -91 842 396 
Q 353 884 353 1716 
Q 353 2575 817 3079 
Q 1281 3584 2069 3584 
Q 2775 3584 3186 3129 
Q 3597 2675 3597 1894 
z
M 3022 2063 
Q 3016 2534 2758 2815 
Q 2500 3097 2075 3097 
Q 1594 3097 1305 2825 
Q 1016 2553 972 2059 
L 3022 2063 
z
" transform="scale(0.015625)"/>
      </defs>
      <use xlink:href="#DejaVuSans-74"/>
      <use xlink:href="#DejaVuSans-69" x="39.208984"/>
      <use xlink:href="#DejaVuSans-6d" x="66.992188"/>
      <use xlink:href="#DejaVuSans-65" x="164.404297"/>
     </g>
    </g>
   </g>
   <g id="matplotlib.axis_2">
    <g id="ytick_1">
     <g id="line2d_11">
      <path d="M 52.160938 157.775946 
L 386.960938 157.775946 
" clip-path="url(#p006351830c)" style="fill: none; stroke: #b0b0b0; stroke-width: 0.8; stroke-linecap: square"/>
     </g>
     <g id="line2d_12">
      <defs>
       <path id="m11339d26d9" d="M 0 0 
L -3.5 0 
" style="stroke: #000000; stroke-width: 0.8"/>
      </defs>
      <g>
       <use xlink:href="#m11339d26d9" x="52.160938" y="157.775946" style="stroke: #000000; stroke-width: 0.8"/>
      </g>
     </g>
     <g id="text_7">
      <!-- −1.0 -->
      <g transform="translate(20.878125 161.575165)scale(0.1 -0.1)">
       <defs>
        <path id="DejaVuSans-2212" d="M 678 2272 
L 4684 2272 
L 4684 1741 
L 678 1741 
L 678 2272 
z
" transform="scale(0.015625)"/>
        <path id="DejaVuSans-2e" d="M 684 794 
L 1344 794 
L 1344 0 
L 684 0 
L 684 794 
z
" transform="scale(0.015625)"/>
       </defs>
       <use xlink:href="#DejaVuSans-2212"/>
       <use xlink:href="#DejaVuSans-31" x="83.789062"/>
       <use xlink:href="#DejaVuSans-2e" x="147.412109"/>
       <use xlink:href="#DejaVuSans-30" x="179.199219"/>
      </g>
     </g>
    </g>
    <g id="ytick_2">
     <g id="line2d_13">
      <path d="M 52.160938 125.723437 
L 386.960938 125.723437 
" clip-path="url(#p006351830c)" style="fill: none; stroke: #b0b0b0; stroke-width: 0.8; stroke-linecap: square"/>
     </g>
     <g id="line2d_14">
      <g>
       <use xlink:href="#m11339d26d9" x="52.160938" y="125.723437" style="stroke: #000000; stroke-width: 0.8"/>
      </g>
     </g>
     <g id="text_8">
      <!-- −0.5 -->
      <g transform="translate(20.878125 129.522656)scale(0.1 -0.1)">
       <defs>
        <path id="DejaVuSans-35" d="M 691 4666 
L 3169 4666 
L 3169 4134 
L 1269 4134 
L 1269 2991 
Q 1406 3038 1543 3061 
Q 1681 3084 1819 3084 
Q 2600 3084 3056 2656 
Q 3513 2228 3513 1497 
Q 3513 744 3044 326 
Q 2575 -91 1722 -91 
Q 1428 -91 1123 -41 
Q 819 9 494 109 
L 494 744 
Q 775 591 1075 516 
Q 1375 441 1709 441 
Q 2250 441 2565 725 
Q 2881 1009 2881 1497 
Q 2881 1984 2565 2268 
Q 2250 2553 1709 2553 
Q 1456 2553 1204 2497 
Q 953 2441 691 2322 
L 691 4666 
z
" transform="scale(0.015625)"/>
       </defs>
       <use xlink:href="#DejaVuSans-2212"/>
       <use xlink:href="#DejaVuSans-30" x="83.789062"/>
       <use xlink:href="#DejaVuSans-2e" x="147.412109"/>
       <use xlink:href="#DejaVuSans-35" x="179.199219"/>
      </g>
     </g>
    </g>
    <g id="ytick_3">
     <g id="line2d_15">
      <path d="M 52.160938 93.670928 
L 386.960938 93.670928 
" clip-path="url(#p006351830c)" style="fill: none; stroke: #b0b0b0; stroke-width: 0.8; stroke-linecap: square"/>
     </g>
     <g id="line2d_16">
      <g>
       <use xlink:href="#m11339d26d9" x="52.160938" y="93.670928" style="stroke: #000000; stroke-width: 0.8"/>
      </g>
     </g>
     <g id="text_9">
      <!-- 0.0 -->
      <g transform="translate(29.257812 97.470147)scale(0.1 -0.1)">
       <use xlink:href="#DejaVuSans-30"/>
       <use xlink:href="#DejaVuSans-2e" x="63.623047"/>
       <use xlink:href="#DejaVuSans-30" x="95.410156"/>
      </g>
     </g>
    </g>
    <g id="ytick_4">
     <g id="line2d_17">
      <path d="M 52.160938 61.618419 
L 386.960938 61.618419 
" clip-path="url(#p006351830c)" style="fill: none; stroke: #b0b0b0; stroke-width: 0.8; stroke-linecap: square"/>
     </g>
     <g id="line2d_18">
      <g>
       <use xlink:href="#m11339d26d9" x="52.160938" y="61.618419" style="stroke: #000000; stroke-width: 0.8"/>
      </g>
     </g>
     <g id="text_10">
      <!-- 0.5 -->
      <g transform="translate(29.257812 65.417638)scale(0.1 -0.1)">
       <use xlink:href="#DejaVuSans-30"/>
       <use xlink:href="#DejaVuSans-2e" x="63.623047"/>
       <use xlink:href="#DejaVuSans-35" x="95.410156"/>
      </g>
     </g>
    </g>
    <g id="ytick_5">
     <g id="line2d_19">
      <path d="M 52.160938 29.56591 
L 386.960938 29.56591 
" clip-path="url(#p006351830c)" style="fill: none; stroke: #b0b0b0; stroke-width: 0.8; stroke-linecap: square"/>
     </g>
     <g id="line2d_20">
      <g>
       <use xlink:href="#m11339d26d9" x="52.160938" y="29.56591" style="stroke: #000000; stroke-width: 0.8"/>
      </g>
     </g>
     <g id="text_11">
      <!-- 1.0 -->
      <g transform="translate(29.257812 33.365128)scale(0.1 -0.1)">
       <use xlink:href="#DejaVuSans-31"/>
       <use xlink:href="#DejaVuSans-2e" x="63.623047"/>
       <use xlink:href="#DejaVuSans-30" x="95.410156"/>
      </g>
     </g>
    </g>
    <g id="text_12">
     <!-- x -->
     <g transform="translate(14.798438 93.319375)rotate(-90)scale(0.1 -0.1)">
      <defs>
       <path id="DejaVuSans-78" d="M 3513 3500 
L 2247 1797 
L 3578 0 
L 2900 0 
L 1881 1375 
L 863 0 
L 184 0 
L 1544 1831 
L 300 3500 
L 978 3500 
L 1906 2253 
L 2834 3500 
L 3513 3500 
z
" transform="scale(0.015625)"/>
      </defs>
      <use xlink:href="#DejaVuSans-78"/>
     </g>
    </g>
   </g>
   <g id="line2d_21">
    <path d="M 52.160938 80.391914 
L 52.49742 87.908716 
L 52.833902 78.354337 
L 53.170385 83.805925 
L 53.506867 86.773064 
L 53.84335 84.591917 
L 54.179832 94.659895 
L 54.516314 80.738608 
L 54.852797 78.9679 
L 55.189279 80.592124 
L 55.525762 70.496523 
L 55.862244 82.633615 
L 56.198726 77.60766 
L 56.535209 79.910246 
L 56.871691 88.137406 
L 57.208174 82.551557 
L 57.544656 80.607855 
L 57.881139 79.672078 
L 58.217621 81.014158 
L 58.554103 75.789377 
L 58.890586 74.651305 
L 59.227068 70.638173 
L 59.563551 73.445721 
L 60.236515 75.300276 
L 60.572998 66.729621 
L 60.90948 77.038486 
L 61.245963 69.393684 
L 61.582445 67.583127 
L 61.918927 56.69345 
L 62.25541 63.644722 
L 62.591892 56.116829 
L 62.928375 56.966255 
L 63.264857 63.39558 
L 63.60134 63.269309 
L 63.937822 59.086595 
L 64.274304 75.285939 
L 64.610787 66.127369 
L 64.947269 74.703763 
L 65.283752 65.012666 
L 65.620234 66.84569 
L 65.956716 58.424932 
L 66.293199 74.658836 
L 66.629681 70.539677 
L 66.966164 68.478572 
L 67.302646 68.850095 
L 67.639128 60.981217 
L 67.975611 58.060783 
L 68.312093 58.578672 
L 68.648576 51.649749 
L 68.985058 58.073159 
L 69.658023 38.804185 
L 69.994505 55.680308 
L 70.330988 48.677251 
L 70.66747 48.853851 
L 71.003953 49.66702 
L 71.340435 53.979783 
L 71.676917 62.035327 
L 72.0134 51.173573 
L 72.349882 62.98634 
L 72.686365 58.630782 
L 73.022847 51.293678 
L 73.359329 53.0779 
L 73.695812 49.94026 
L 74.032294 47.844897 
L 74.368777 40.89669 
L 74.705259 46.004018 
L 75.041742 47.159062 
L 75.378224 44.814901 
L 76.051189 61.50426 
L 76.387671 57.998926 
L 76.724154 57.900956 
L 77.060636 50.594912 
L 77.397118 52.417868 
L 78.070083 41.424948 
L 78.406566 43.596093 
L 78.743048 41.239915 
L 79.07953 41.586369 
L 79.416013 50.056987 
L 79.752495 39.712518 
L 80.088978 44.695695 
L 80.761943 41.206218 
L 81.098425 42.305125 
L 81.434907 41.893845 
L 81.77139 36.278387 
L 82.107872 51.546323 
L 82.444355 33.990054 
L 82.780837 48.053201 
L 83.117319 48.163607 
L 83.453802 40.132877 
L 83.790284 40.172668 
L 84.126767 25.645952 
L 84.799731 31.988622 
L 85.809179 43.975086 
L 86.145661 32.632193 
L 86.482144 38.749927 
L 86.818626 40.436734 
L 87.155108 34.993888 
L 87.491591 35.018396 
L 87.828073 39.116647 
L 88.164556 36.477497 
L 88.501038 32.707588 
L 88.83752 47.315515 
L 89.510485 38.646028 
L 89.846968 43.991286 
L 90.519932 37.222171 
L 90.856415 40.836212 
L 91.192897 46.413892 
L 91.52938 35.133139 
L 91.865862 42.359535 
L 92.202345 44.969253 
L 92.538827 36.58307 
L 92.875309 37.233573 
L 93.548274 34.529734 
L 93.884757 29.433544 
L 94.221239 37.148312 
L 94.557721 37.569871 
L 94.894204 28.655391 
L 95.230686 40.999439 
L 95.567169 28.911258 
L 95.903651 29.964921 
L 96.240133 40.282681 
L 96.913098 22.490178 
L 97.249581 27.425203 
L 97.586063 25.35264 
L 97.922546 27.190451 
L 98.259028 33.803714 
L 98.59551 33.5258 
L 98.931993 35.528096 
L 99.268475 35.836234 
L 99.604958 35.730607 
L 99.94144 29.946848 
L 100.277922 32.987221 
L 100.614405 32.724851 
L 100.950887 29.467467 
L 101.28737 34.291237 
L 101.623852 42.940894 
L 101.960334 35.647455 
L 102.296817 37.395887 
L 102.633299 36.042955 
L 102.969782 24.094598 
L 103.306264 30.065473 
L 103.642747 30.309357 
L 103.979229 25.95253 
L 104.315711 31.408501 
L 104.652194 25.857686 
L 104.988676 24.155137 
L 105.325159 30.479795 
L 105.661641 25.099891 
L 105.998123 28.021059 
L 106.334606 33.688665 
L 106.671088 28.879085 
L 107.007571 40.259121 
L 108.3535 33.785419 
L 108.689983 34.462959 
L 109.026465 29.785833 
L 109.69943 42.176175 
L 110.035912 31.082895 
L 110.372395 32.348006 
L 110.708877 30.492901 
L 111.04536 24.52538 
L 111.381842 29.223315 
L 112.054807 19.290715 
L 112.391289 26.597882 
L 112.727772 22.413056 
L 113.064254 38.323547 
L 113.400736 41.475954 
L 113.737219 35.857379 
L 114.073701 46.098735 
L 114.410184 41.098608 
L 114.746666 39.690104 
L 115.083149 42.556899 
L 115.419631 39.012198 
L 115.756113 40.693461 
L 116.092596 25.286369 
L 116.765561 30.803506 
L 117.102043 23.621678 
L 117.438525 24.559501 
L 117.775008 32.952053 
L 118.11149 23.22653 
L 118.447973 25.048064 
L 118.784455 35.45883 
L 119.120937 27.604972 
L 119.45742 31.037914 
L 119.793902 29.003335 
L 120.130385 27.864568 
L 120.466867 37.481683 
L 120.80335 35.798956 
L 121.139832 40.245434 
L 121.476314 37.076776 
L 121.812797 31.105637 
L 122.149279 33.398761 
L 122.485762 26.413628 
L 122.822244 34.267708 
L 123.158726 36.095891 
L 123.495209 34.138277 
L 123.831691 44.561752 
L 124.168174 45.576758 
L 124.504656 45.215873 
L 124.841139 43.317407 
L 125.177621 46.347713 
L 125.514103 47.962323 
L 125.850586 46.041054 
L 126.187068 50.60294 
L 126.860033 51.95627 
L 127.196515 44.68129 
L 127.532998 44.061886 
L 127.86948 44.370677 
L 128.205963 36.458614 
L 128.542445 31.974018 
L 128.878927 47.20841 
L 129.21541 41.589437 
L 129.551892 47.452565 
L 129.888375 48.925296 
L 130.224857 52.990121 
L 130.56134 46.558045 
L 130.897822 50.734034 
L 131.234304 52.842938 
L 131.570787 53.037268 
L 131.907269 62.081767 
L 132.243752 40.687855 
L 132.580234 44.989783 
L 132.916716 46.805356 
L 133.253199 36.788852 
L 133.589681 46.239068 
L 133.926164 59.030515 
L 134.262646 45.021623 
L 134.599128 51.556911 
L 134.935611 50.014391 
L 135.272093 50.012648 
L 135.608576 53.095454 
L 135.945058 61.584408 
L 136.281541 54.047625 
L 136.618023 51.335999 
L 136.954505 56.914443 
L 137.290988 55.322854 
L 137.62747 57.830448 
L 137.963953 54.553603 
L 138.300435 66.767762 
L 138.636917 53.548176 
L 138.9734 54.782899 
L 139.646365 63.127254 
L 139.982847 53.650321 
L 140.319329 60.366081 
L 140.655812 62.019566 
L 140.992294 64.346987 
L 142.001742 49.487817 
L 142.338224 48.814209 
L 142.674706 56.553481 
L 143.011189 60.238889 
L 143.347671 67.101217 
L 143.684154 71.588694 
L 144.020636 73.072176 
L 144.357118 71.417664 
L 144.693601 75.916867 
L 145.030083 76.341379 
L 145.366566 71.911817 
L 146.03953 80.534382 
L 146.376013 71.579676 
L 146.712495 75.449885 
L 147.048978 76.685139 
L 147.721943 83.230917 
L 148.058425 79.02063 
L 148.394907 85.051582 
L 148.73139 81.627947 
L 149.067872 80.238401 
L 149.404355 81.441551 
L 149.740837 75.883591 
L 150.077319 73.452839 
L 150.413802 65.565907 
L 150.750284 80.399095 
L 151.086767 73.893774 
L 151.423249 76.897821 
L 151.759731 68.968709 
L 152.096214 76.751563 
L 152.432696 72.644909 
L 152.769179 72.066833 
L 153.105661 76.774233 
L 153.778626 83.38587 
L 154.115108 90.030636 
L 154.451591 91.913446 
L 154.788073 107.136604 
L 155.461038 90.757628 
L 155.79752 106.499877 
L 156.134003 86.807526 
L 156.470485 87.910617 
L 156.806968 95.751453 
L 157.14345 88.372081 
L 157.479932 84.721839 
L 157.816415 92.966623 
L 158.152897 87.353857 
L 158.48938 84.064984 
L 158.825862 86.465311 
L 159.162345 96.114553 
L 159.498827 92.168301 
L 159.835309 99.076398 
L 160.171792 102.346294 
L 160.508274 93.576353 
L 160.844757 101.367358 
L 161.181239 93.087036 
L 161.517721 95.89699 
L 161.854204 104.685514 
L 162.190686 100.483415 
L 162.527169 89.950187 
L 162.863651 101.916315 
L 163.200133 95.280327 
L 163.536616 107.575728 
L 163.873098 92.003458 
L 164.209581 102.465027 
L 164.546063 123.692128 
L 164.882546 99.400483 
L 165.219028 109.086985 
L 165.55551 114.038076 
L 165.891993 114.84118 
L 166.228475 114.269357 
L 166.564958 116.997052 
L 166.90144 125.518496 
L 167.237922 122.560651 
L 167.574405 115.69789 
L 167.910887 126.425446 
L 168.24737 107.729707 
L 168.920334 115.289126 
L 169.256817 104.040539 
L 169.593299 121.519307 
L 169.929782 113.866549 
L 170.266264 122.402391 
L 170.602747 118.989877 
L 170.939229 121.001609 
L 171.275711 128.304944 
L 171.612194 126.086726 
L 171.948676 131.647181 
L 172.285159 130.156866 
L 172.958123 122.99569 
L 173.294606 126.022683 
L 173.631088 122.714147 
L 173.967571 111.393657 
L 174.304053 125.086732 
L 174.640535 133.895237 
L 174.977018 128.188363 
L 175.649983 143.047644 
L 175.986465 136.764031 
L 176.322948 134.233483 
L 176.65943 140.425229 
L 176.995912 137.295189 
L 177.332395 137.700685 
L 178.00536 128.224047 
L 178.341842 132.589956 
L 178.678324 126.542031 
L 179.014807 132.848142 
L 179.351289 132.434993 
L 179.687772 132.809268 
L 180.024254 133.65044 
L 180.360736 133.79018 
L 180.697219 131.769005 
L 181.033701 133.035113 
L 181.370184 128.414036 
L 181.706666 128.866323 
L 182.043149 136.649368 
L 182.379631 129.017996 
L 182.716113 137.390897 
L 183.389078 135.37953 
L 183.725561 143.329065 
L 184.062043 146.458864 
L 184.398525 146.997902 
L 184.735008 149.706574 
L 185.07149 144.406567 
L 185.407973 149.298477 
L 185.744455 145.971948 
L 186.080938 148.551736 
L 186.41742 152.949245 
L 186.753902 143.540211 
L 187.090385 139.487299 
L 187.426867 139.146145 
L 187.76335 142.825451 
L 188.099832 136.153342 
L 188.436314 148.593919 
L 188.772797 153.281679 
L 189.109279 151.68369 
L 189.445762 152.016312 
L 189.782244 137.88819 
L 190.118726 142.994517 
L 190.455209 144.150681 
L 190.791691 130.884365 
L 191.128174 149.555253 
L 191.464656 145.279583 
L 191.801139 145.846842 
L 192.137621 151.444212 
L 192.474103 146.541687 
L 192.810586 149.109745 
L 193.147068 149.477294 
L 193.483551 149.497423 
L 194.156515 146.908232 
L 194.492998 141.430676 
L 194.82948 142.773276 
L 195.165963 146.943908 
L 195.502445 142.891638 
L 195.838927 148.652773 
L 196.17541 151.896304 
L 196.511892 149.559892 
L 196.848375 149.325392 
L 197.184857 152.579685 
L 197.52134 144.049934 
L 197.857822 144.758706 
L 198.194304 150.597297 
L 198.530787 149.126163 
L 198.867269 146.884076 
L 199.540234 153.505614 
L 199.876716 154.530838 
L 200.213199 146.472352 
L 200.549681 152.601916 
L 200.886164 151.734184 
L 201.559128 157.32633 
L 202.232093 153.684446 
L 202.568576 148.071721 
L 202.905058 155.364498 
L 203.241541 141.462852 
L 203.578023 150.462084 
L 203.914505 155.905332 
L 204.250988 155.993989 
L 204.58747 162.6204 
L 204.923953 159.11662 
L 205.260435 165.96 
L 205.596917 160.827653 
L 205.9334 157.853351 
L 206.269882 148.044252 
L 206.942847 160.828432 
L 207.279329 154.466783 
L 207.615812 156.452882 
L 207.952294 150.526552 
L 208.288777 153.741402 
L 208.625259 151.308965 
L 208.961742 145.639326 
L 209.298224 154.270115 
L 209.634706 147.399989 
L 209.971189 153.987769 
L 210.644154 150.180125 
L 210.980636 158.354836 
L 211.317118 151.492875 
L 211.653601 153.457103 
L 212.326566 149.074309 
L 212.663048 153.315017 
L 212.99953 148.42054 
L 213.336013 153.43349 
L 213.672495 146.147697 
L 214.008978 152.63609 
L 214.34546 155.755344 
L 214.681943 143.431008 
L 215.018425 156.451434 
L 215.354907 157.506167 
L 215.69139 152.344635 
L 216.027872 162.084831 
L 216.364355 152.885889 
L 216.700837 155.914254 
L 217.037319 160.043478 
L 217.373802 152.202962 
L 217.710284 148.762615 
L 218.046767 157.640673 
L 218.383249 157.534068 
L 218.719731 155.78514 
L 219.056214 157.900265 
L 219.392696 156.767741 
L 219.729179 154.340497 
L 220.065661 159.339696 
L 220.402144 157.716144 
L 220.738626 157.895435 
L 221.075108 153.665502 
L 221.411591 151.994131 
L 221.748073 154.201666 
L 222.084556 142.246313 
L 222.421038 138.937142 
L 222.75752 142.979027 
L 223.094003 148.737748 
L 223.430485 139.746402 
L 223.766968 146.007368 
L 224.10345 144.855598 
L 224.439932 142.134557 
L 224.776415 153.747828 
L 225.112897 143.38354 
L 225.44938 144.620778 
L 225.785862 155.963586 
L 226.122345 149.144752 
L 226.458827 145.463241 
L 226.795309 143.985425 
L 227.131792 133.148966 
L 227.468274 140.778798 
L 227.804757 143.580686 
L 228.141239 144.466254 
L 228.477721 145.790277 
L 228.814204 146.3508 
L 229.150686 150.157573 
L 229.487169 144.308227 
L 229.823651 144.25387 
L 230.160133 148.393839 
L 230.833098 138.716089 
L 231.169581 148.327014 
L 231.506063 146.69179 
L 231.842546 147.189488 
L 232.179028 148.515578 
L 232.51551 141.139764 
L 233.188475 151.191245 
L 233.524958 142.610813 
L 233.86144 143.420867 
L 234.197922 151.302959 
L 234.534405 149.2577 
L 234.870887 142.800455 
L 235.543852 148.039502 
L 235.880334 138.918848 
L 236.216817 139.133054 
L 236.889782 143.231867 
L 237.226264 136.859952 
L 237.562747 143.478537 
L 237.899229 141.739237 
L 238.235711 141.787324 
L 238.572194 145.513231 
L 239.245159 133.53554 
L 239.581641 135.880262 
L 239.918123 132.460838 
L 240.254606 133.242984 
L 240.591088 138.299516 
L 240.927571 132.141529 
L 241.264053 141.17228 
L 241.600535 135.036939 
L 241.937018 136.885847 
L 242.2735 144.430662 
L 242.946465 135.261986 
L 243.282948 140.068127 
L 243.61943 138.183138 
L 243.955912 125.553198 
L 244.292395 132.481074 
L 244.628877 130.459349 
L 244.96536 129.197 
L 245.301842 135.259632 
L 245.638324 132.754433 
L 245.974807 128.558342 
L 246.311289 127.595851 
L 246.647772 127.743283 
L 246.984254 129.285081 
L 247.320736 128.262203 
L 247.657219 119.037162 
L 247.993701 124.376978 
L 248.330184 123.718604 
L 248.666666 115.012023 
L 249.339631 120.834492 
L 249.676113 125.678453 
L 250.012596 118.43863 
L 250.349078 115.53152 
L 250.685561 115.372526 
L 251.022043 126.414335 
L 251.358525 100.799466 
L 252.03149 124.764602 
L 252.367973 114.176994 
L 252.704455 112.516707 
L 253.040938 115.893005 
L 253.37742 115.602204 
L 253.713902 113.118551 
L 254.050385 117.762867 
L 254.386867 116.620475 
L 254.72335 118.592423 
L 255.059832 113.130704 
L 255.396314 120.299411 
L 255.732797 111.184104 
L 256.069279 114.079862 
L 256.405762 131.961714 
L 256.742244 106.160577 
L 257.078726 109.646322 
L 257.415209 120.091289 
L 257.751691 91.37279 
L 258.088174 89.870752 
L 258.424656 101.928672 
L 258.761139 86.659015 
L 259.097621 89.367512 
L 259.434103 97.499183 
L 259.770586 86.454171 
L 260.107068 88.657723 
L 260.443551 87.892941 
L 260.780033 86.178145 
L 261.116515 86.088998 
L 261.452998 100.464755 
L 261.78948 78.071471 
L 262.125963 85.669054 
L 262.462445 99.366711 
L 262.798927 80.857946 
L 263.13541 94.207443 
L 263.471892 86.415109 
L 263.808375 93.080279 
L 264.144857 86.500691 
L 264.48134 83.762808 
L 264.817822 90.905241 
L 265.154304 80.05873 
L 265.490787 87.605112 
L 265.827269 90.051622 
L 266.163752 86.884363 
L 266.500234 92.390741 
L 266.836716 88.821584 
L 267.173199 78.174207 
L 267.509681 84.828579 
L 268.182646 72.425667 
L 268.519128 84.670577 
L 268.855611 71.121971 
L 269.192093 65.411139 
L 269.528576 70.509812 
L 269.865058 70.634929 
L 270.201541 64.705928 
L 270.538023 81.019254 
L 270.874505 73.845634 
L 271.210988 76.511339 
L 271.54747 75.815046 
L 271.883953 77.99842 
L 272.8934 60.773651 
L 273.229882 66.786779 
L 273.566365 63.426614 
L 273.902847 66.963934 
L 274.239329 65.168963 
L 274.575812 64.876029 
L 274.912294 66.38771 
L 275.585259 76.886729 
L 276.931189 67.578045 
L 277.267671 63.281032 
L 277.604154 63.521366 
L 277.940636 58.976942 
L 278.277118 59.600075 
L 278.613601 65.30591 
L 278.950083 62.506348 
L 279.286566 54.676428 
L 279.623048 50.687318 
L 279.95953 49.101373 
L 280.296013 45.846586 
L 280.632495 49.871112 
L 280.968978 63.345109 
L 281.30546 56.752358 
L 281.641943 58.866348 
L 282.314907 50.643228 
L 282.65139 53.628152 
L 282.987872 65.461056 
L 283.324355 56.003855 
L 283.660837 62.776001 
L 283.997319 55.608971 
L 284.333802 52.637737 
L 284.670284 54.589452 
L 285.006767 60.616717 
L 285.343249 47.824394 
L 285.679731 56.34261 
L 286.016214 45.285865 
L 286.352696 42.67071 
L 286.689179 43.050766 
L 287.025661 38.420515 
L 287.362144 43.255798 
L 287.698626 44.087429 
L 288.035108 50.293745 
L 288.371591 38.87783 
L 288.708073 42.911817 
L 289.381038 38.663589 
L 289.71752 42.6315 
L 290.054003 49.096967 
L 290.390485 42.769291 
L 290.726968 50.163603 
L 291.06345 48.180847 
L 291.399932 44.932197 
L 291.736415 46.490043 
L 292.072897 44.378284 
L 292.40938 39.268951 
L 292.745862 42.426096 
L 293.082345 44.0458 
L 293.418827 38.85255 
L 293.755309 38.098103 
L 294.091792 30.949665 
L 294.428274 39.769167 
L 294.764757 42.094999 
L 295.101239 25.813891 
L 295.437721 42.450211 
L 295.774204 42.324998 
L 296.110686 36.14674 
L 296.783651 43.786544 
L 297.120133 37.72533 
L 297.456616 33.9831 
L 297.793098 26.873664 
L 298.129581 27.679259 
L 298.466063 24.905535 
L 298.802546 28.997405 
L 299.139028 40.868984 
L 299.47551 39.723003 
L 299.811993 41.386601 
L 300.148475 40.423025 
L 300.484958 43.547123 
L 300.82144 41.755389 
L 301.157922 42.47063 
L 301.494405 38.600887 
L 301.830887 38.034881 
L 302.16737 39.104214 
L 302.503852 35.361166 
L 302.840334 33.1946 
L 303.176817 35.10799 
L 303.513299 33.435985 
L 303.849782 37.644272 
L 304.186264 34.196424 
L 304.522747 39.56266 
L 304.859229 47.585787 
L 305.195711 40.287602 
L 305.532194 35.870225 
L 305.868676 40.273633 
L 306.205159 29.187039 
L 306.541641 34.968059 
L 306.878123 36.281665 
L 307.551088 45.912976 
L 307.887571 33.151148 
L 308.224053 34.845628 
L 308.560535 22.685421 
L 308.897018 14.76 
L 309.569983 36.437667 
L 309.906465 29.17806 
L 310.242948 38.524483 
L 310.915912 30.678828 
L 311.588877 35.537932 
L 311.92536 36.268651 
L 312.261842 35.269234 
L 312.598324 40.629926 
L 312.934807 27.011508 
L 313.271289 33.505075 
L 313.607772 30.271079 
L 313.944254 15.974323 
L 314.280736 22.489444 
L 314.617219 26.027467 
L 314.953701 21.862158 
L 315.290184 27.184972 
L 315.626666 27.69873 
L 315.963149 30.034982 
L 316.299631 19.383633 
L 316.636113 25.825055 
L 316.972596 19.896902 
L 317.309078 16.18096 
L 318.318525 30.972301 
L 318.655008 26.073968 
L 318.99149 31.799607 
L 319.327973 40.930807 
L 319.664455 37.93371 
L 320.000938 42.483973 
L 320.33742 49.159501 
L 320.673902 34.477494 
L 321.010385 43.61185 
L 321.346867 29.619743 
L 321.68335 35.071698 
L 322.019832 32.921157 
L 322.356314 24.331581 
L 322.692797 26.697777 
L 323.029279 23.425831 
L 323.365762 23.026564 
L 323.702244 31.92093 
L 324.038726 33.528987 
L 324.375209 29.556334 
L 324.711691 33.651495 
L 325.048174 34.896148 
L 325.384656 27.625567 
L 325.721139 37.657363 
L 326.057621 32.479309 
L 326.394103 32.274032 
L 326.730586 42.631309 
L 327.067068 26.517864 
L 327.740033 34.510278 
L 328.412998 28.968396 
L 328.74948 33.434388 
L 329.085963 25.649605 
L 329.422445 31.37049 
L 329.758927 33.464971 
L 330.09541 32.265397 
L 330.431892 45.87801 
L 330.768375 39.852044 
L 331.104857 36.954612 
L 331.44134 32.005044 
L 331.777822 39.138664 
L 332.114304 33.947665 
L 332.787269 50.830654 
L 333.123752 42.173057 
L 333.460234 54.112317 
L 334.133199 39.443118 
L 334.469681 36.3021 
L 334.806164 42.724838 
L 335.142646 37.847631 
L 335.479128 37.307944 
L 335.815611 47.114166 
L 336.152093 30.818202 
L 336.488576 32.558372 
L 336.825058 43.941159 
L 337.161541 42.737482 
L 337.498023 39.797076 
L 337.834505 44.259686 
L 338.170988 51.787907 
L 338.50747 37.397278 
L 339.180435 45.565333 
L 339.516917 35.399277 
L 339.8534 34.77183 
L 340.526365 45.771489 
L 340.862847 42.102301 
L 341.199329 45.169043 
L 341.535812 50.227875 
L 341.872294 44.345378 
L 342.208777 44.426627 
L 342.545259 54.116257 
L 342.881742 47.831734 
L 343.218224 45.014776 
L 343.554706 44.035327 
L 343.891189 50.706603 
L 344.227671 43.690906 
L 344.564154 42.053393 
L 344.900636 46.308376 
L 345.237118 36.39349 
L 345.573601 42.525269 
L 345.910083 40.606522 
L 346.246566 45.823321 
L 346.583048 46.327057 
L 346.91953 43.732199 
L 347.256013 48.913038 
L 347.592495 44.333805 
L 347.928978 55.208966 
L 348.26546 53.544855 
L 348.601943 52.676574 
L 348.938425 58.118885 
L 349.274907 48.114152 
L 349.61139 48.132822 
L 349.947872 62.355199 
L 350.284355 47.577606 
L 350.620837 68.110305 
L 350.957319 63.424635 
L 351.293802 66.412615 
L 351.630284 56.684589 
L 351.966767 52.901788 
L 352.303249 52.151146 
L 352.639731 51.887905 
L 352.976214 57.714459 
L 353.312696 69.31584 
L 353.649179 55.476724 
L 353.985661 68.648823 
L 354.658626 57.400988 
L 354.995108 70.504669 
L 355.331591 57.434761 
L 355.668073 55.692577 
L 356.004556 66.66405 
L 356.341038 63.620107 
L 356.67752 66.685848 
L 357.014003 75.06693 
L 357.350485 67.14259 
L 357.686968 72.577611 
L 358.02345 75.732709 
L 358.359932 76.420955 
L 358.696415 74.50993 
L 359.032897 79.239857 
L 359.36938 75.510562 
L 359.705862 73.272654 
L 360.042345 79.562577 
L 360.378827 68.103545 
L 360.715309 81.198114 
L 361.051792 81.922877 
L 361.388274 74.944862 
L 361.724757 77.22637 
L 362.061239 77.296282 
L 362.397721 70.406772 
L 362.734204 73.675991 
L 363.070686 80.769254 
L 363.407169 72.537766 
L 363.743651 85.385988 
L 364.080133 79.876755 
L 364.416616 82.010733 
L 364.753098 93.741892 
L 365.089581 80.141694 
L 365.426063 93.185557 
L 365.762546 98.754327 
L 365.762546 98.754327 
" clip-path="url(#p006351830c)" style="fill: none; stroke: #1f77b4; stroke-width: 1.5; stroke-linecap: square"/>
   </g>
   <g id="line2d_22">
    <path d="M 53.170385 75.620074 
L 53.506867 80.557071 
L 53.84335 79.22849 
L 54.179832 88.801319 
L 54.516314 84.039806 
L 54.852797 83.075891 
L 55.189279 89.844968 
L 55.525762 75.118345 
L 55.862244 74.767011 
L 56.198726 66.804283 
L 56.535209 72.105585 
L 56.871691 88.421763 
L 57.208174 80.27961 
L 57.544656 77.423073 
L 57.881139 77.732021 
L 58.217621 83.922518 
L 58.890586 77.807642 
L 59.227068 66.851594 
L 59.563551 73.459426 
L 59.900033 71.398196 
L 60.236515 75.71412 
L 60.572998 61.334109 
L 60.90948 76.482759 
L 61.245963 69.415673 
L 61.582445 73.992236 
L 61.918927 64.449946 
L 62.25541 69.076384 
L 62.591892 53.332227 
L 62.928375 55.44018 
L 63.60134 63.098589 
L 63.937822 47.73148 
L 64.274304 68.749234 
L 64.610787 55.614889 
L 64.947269 73.360953 
L 65.283752 69.34591 
L 65.620234 71.507747 
L 65.956716 57.325494 
L 66.293199 64.285943 
L 66.629681 60.161052 
L 66.966164 65.492346 
L 67.302646 77.276356 
L 67.639128 70.00352 
L 67.975611 58.064444 
L 68.312093 55.911548 
L 68.648576 57.533346 
L 68.985058 65.748418 
L 69.321541 54.349537 
L 69.658023 36.066492 
L 69.994505 55.864669 
L 70.330988 48.736307 
L 70.66747 43.992502 
L 71.003953 47.451484 
L 71.340435 46.19254 
L 71.676917 54.921875 
L 72.0134 45.325076 
L 72.349882 60.234911 
L 72.686365 58.846196 
L 73.022847 51.88619 
L 73.359329 59.518956 
L 74.032294 48.726461 
L 74.368777 44.2733 
L 74.705259 50.390701 
L 75.041742 45.987905 
L 75.378224 35.14853 
L 75.714706 40.949469 
L 76.051189 54.06731 
L 76.387671 54.063611 
L 76.724154 58.424202 
L 77.060636 52.172081 
L 77.397118 57.517779 
L 78.070083 48.526651 
L 78.406566 43.432086 
L 78.743048 41.616355 
L 79.07953 37.229423 
L 79.416013 49.971986 
L 79.752495 36.201907 
L 80.088978 44.999194 
L 80.42546 43.319532 
L 80.761943 45.218803 
L 81.098425 38.146338 
L 81.434907 42.332323 
L 81.77139 34.408403 
L 82.107872 53.633968 
L 82.444355 32.194441 
L 82.780837 37.792632 
L 83.117319 46.284713 
L 83.453802 41.014757 
L 83.790284 56.169066 
L 84.126767 36.607501 
L 84.463249 34.050723 
L 84.799731 26.072019 
L 85.472696 32.688147 
L 85.809179 43.098894 
L 86.145661 33.538371 
L 86.482144 38.237155 
L 86.818626 40.477634 
L 87.155108 33.136346 
L 87.491591 38.78829 
L 87.828073 40.494675 
L 88.164556 35.505537 
L 88.501038 27.618139 
L 88.83752 41.25513 
L 89.174003 40.140312 
L 89.510485 36.917557 
L 89.846968 47.219151 
L 90.18345 39.330032 
L 90.519932 37.444849 
L 90.856415 39.544931 
L 91.192897 44.877951 
L 91.52938 34.046161 
L 92.202345 45.578936 
L 92.538827 35.579274 
L 92.875309 40.71388 
L 93.211792 42.806419 
L 93.884757 30.838965 
L 94.221239 30.201201 
L 94.557721 38.168278 
L 94.894204 31.399293 
L 95.230686 44.847754 
L 95.567169 27.320815 
L 95.903651 25.326153 
L 96.240133 41.645005 
L 96.576616 38.052962 
L 96.913098 29.56581 
L 97.249581 32.511222 
L 97.922546 22.049163 
L 98.259028 29.265269 
L 98.59551 27.673848 
L 98.931993 34.377117 
L 99.268475 35.011144 
L 99.604958 36.231343 
L 99.94144 31.395617 
L 100.277922 37.266937 
L 100.614405 35.219417 
L 100.950887 28.712239 
L 101.28737 27.781699 
L 101.623852 35.32217 
L 101.960334 33.73123 
L 102.296817 40.791117 
L 102.633299 44.578235 
L 102.969782 29.780223 
L 103.306264 30.591359 
L 103.642747 31.982822 
L 103.979229 26.600251 
L 104.315711 33.728441 
L 104.652194 28.151636 
L 104.988676 25.123658 
L 105.325159 30.745985 
L 105.998123 24.653038 
L 106.334606 31.739243 
L 106.671088 23.25709 
L 107.007571 35.056781 
L 107.344053 34.493717 
L 107.680535 33.567846 
L 108.017018 40.416208 
L 108.3535 40.802033 
L 108.689983 35.587436 
L 109.026465 25.954433 
L 109.362948 30.185925 
L 109.69943 42.423166 
L 110.035912 35.756773 
L 110.372395 37.630524 
L 110.708877 33.864696 
L 111.04536 26.988422 
L 111.381842 32.318088 
L 111.718324 33.232634 
L 112.054807 22.471937 
L 112.391289 26.523733 
L 112.727772 16.340225 
L 113.064254 26.46842 
L 113.400736 32.132695 
L 113.737219 29.637908 
L 114.073701 44.792839 
L 114.410184 42.769471 
L 114.746666 33.939855 
L 115.083149 42.480774 
L 115.419631 39.770275 
L 115.756113 48.335008 
L 116.092596 34.448554 
L 116.429078 35.52063 
L 116.765561 33.004492 
L 117.102043 23.369464 
L 117.438525 27.01416 
L 117.775008 36.082341 
L 118.11149 24.717887 
L 118.447973 19.726831 
L 118.784455 32.628044 
L 119.120937 27.93054 
L 119.45742 33.040845 
L 119.793902 33.289803 
L 120.130385 23.874037 
L 120.466867 29.948919 
L 120.80335 29.766583 
L 121.476314 42.442022 
L 121.812797 34.676206 
L 122.149279 37.064526 
L 122.485762 29.647583 
L 122.822244 32.888801 
L 123.158726 33.204542 
L 123.495209 25.232203 
L 123.831691 37.122788 
L 124.168174 40.273541 
L 124.504656 41.40119 
L 124.841139 43.582918 
L 125.177621 44.45891 
L 125.514103 44.449396 
L 125.850586 39.931856 
L 126.187068 47.87647 
L 126.523551 48.446132 
L 126.860033 49.485647 
L 127.196515 44.360292 
L 127.532998 52.67592 
L 127.86948 49.444827 
L 128.205963 42.083383 
L 128.542445 30.833692 
L 128.878927 45.996032 
L 129.21541 33.020334 
L 129.551892 37.150933 
L 130.224857 52.342507 
L 130.897822 44.076368 
L 131.234304 47.293827 
L 131.570787 45.63753 
L 131.907269 61.396119 
L 132.243752 46.335103 
L 132.580234 55.784804 
L 132.916716 52.561173 
L 133.253199 34.131262 
L 133.589681 35.447742 
L 133.926164 51.777457 
L 134.262646 41.615599 
L 134.599128 54.990774 
L 134.935611 50.056754 
L 135.272093 42.509248 
L 135.608576 45.549358 
L 135.945058 54.753432 
L 136.281541 54.637852 
L 136.618023 52.672764 
L 136.954505 60.228725 
L 137.290988 43.813039 
L 137.62747 51.889846 
L 137.963953 51.632638 
L 138.300435 72.355495 
L 138.636917 50.262019 
L 138.9734 48.957552 
L 139.309882 55.933687 
L 139.646365 65.308344 
L 139.982847 52.945382 
L 140.319329 53.70482 
L 140.655812 52.753646 
L 141.328777 65.870116 
L 141.665259 62.552157 
L 142.001742 55.927107 
L 142.338224 45.442455 
L 142.674706 47.950405 
L 143.011189 49.585381 
L 143.347671 56.240449 
L 143.684154 57.363543 
L 144.357118 68.595539 
L 144.693601 77.332027 
L 145.366566 63.847152 
L 145.703048 71.007408 
L 146.03953 82.027316 
L 146.376013 73.229206 
L 146.712495 72.002855 
L 147.048978 69.677783 
L 147.38546 71.433494 
L 147.721943 77.694379 
L 148.058425 77.671845 
L 148.394907 78.64323 
L 148.73139 80.120137 
L 149.067872 74.482285 
L 149.404355 88.764236 
L 149.740837 79.858294 
L 150.077319 82.405531 
L 150.413802 62.575844 
L 150.750284 78.146351 
L 151.086767 66.874538 
L 151.423249 74.617658 
L 151.759731 71.399251 
L 152.096214 77.521684 
L 152.432696 68.106889 
L 152.769179 64.636765 
L 153.105661 73.513978 
L 153.442144 75.606277 
L 153.778626 73.328375 
L 154.115108 70.236465 
L 154.788073 87.632652 
L 155.124556 103.85397 
L 155.461038 96.50836 
L 155.79752 113.175705 
L 156.134003 87.670808 
L 156.470485 90.111278 
L 156.806968 103.229022 
L 157.14345 85.631777 
L 157.479932 81.870074 
L 157.816415 90.304477 
L 158.48938 84.86682 
L 158.825862 87.046301 
L 159.162345 80.838927 
L 159.498827 82.06363 
L 159.835309 82.611748 
L 160.171792 108.056639 
L 160.508274 100.12657 
L 160.844757 106.772737 
L 161.181239 87.251826 
L 161.517721 90.924697 
L 161.854204 99.937571 
L 162.190686 101.607955 
L 162.527169 92.3287 
L 162.863651 107.555177 
L 163.200133 101.696683 
L 163.536616 89.347409 
L 163.873098 94.969172 
L 164.209581 89.36888 
L 164.546063 122.478795 
L 164.882546 98.774927 
L 165.219028 107.766432 
L 165.55551 121.577775 
L 165.891993 110.643949 
L 166.564958 115.907093 
L 166.90144 125.563022 
L 167.237922 125.120165 
L 167.574405 122.125574 
L 167.910887 127.880856 
L 168.24737 129.276946 
L 168.583852 121.000792 
L 168.920334 131.401371 
L 169.256817 106.690711 
L 169.593299 122.648457 
L 169.929782 112.149035 
L 170.602747 122.792511 
L 170.939229 122.525797 
L 171.275711 128.586572 
L 171.612194 125.47052 
L 171.948676 124.590099 
L 172.285159 131.393962 
L 172.621641 133.64349 
L 172.958123 137.782025 
L 173.631088 126.910268 
L 173.967571 119.118833 
L 174.304053 131.516435 
L 174.640535 132.484769 
L 174.977018 115.689306 
L 175.649983 135.281201 
L 175.986465 140.860448 
L 176.322948 139.112555 
L 176.65943 143.070413 
L 176.995912 136.057467 
L 177.332395 136.846193 
L 177.668877 140.269124 
L 178.00536 140.807004 
L 178.341842 139.646289 
L 179.014807 126.604794 
L 179.351289 133.618073 
L 179.687772 133.508835 
L 180.024254 138.67172 
L 180.360736 134.456333 
L 180.697219 135.946613 
L 181.033701 134.86001 
L 181.370184 137.83464 
L 181.706666 134.391388 
L 182.043149 136.425272 
L 182.379631 128.192497 
L 183.052596 138.10109 
L 183.389078 136.821391 
L 183.725561 139.497509 
L 184.062043 137.279627 
L 184.398525 137.644333 
L 184.735008 144.195222 
L 185.07149 147.977236 
L 185.407973 147.789126 
L 185.744455 147.464918 
L 186.080938 141.823826 
L 186.41742 147.599664 
L 186.753902 144.464187 
L 187.090385 149.426135 
L 187.426867 149.635004 
L 188.099832 137.085002 
L 188.436314 137.807683 
L 188.772797 143.743001 
L 189.109279 140.495153 
L 189.445762 149.55053 
L 190.118726 151.642707 
L 190.455209 147.807318 
L 190.791691 134.49698 
L 191.128174 140.455125 
L 191.464656 143.20214 
L 191.801139 137.583034 
L 192.137621 149.220338 
L 192.474103 143.671526 
L 192.810586 147.67846 
L 193.483551 146.631277 
L 193.820033 146.530645 
L 194.156515 147.860639 
L 194.492998 147.734915 
L 194.82948 146.538168 
L 195.165963 144.822792 
L 195.502445 140.101323 
L 195.838927 142.120527 
L 196.17541 146.457015 
L 196.511892 144.282012 
L 196.848375 148.0714 
L 197.184857 149.101125 
L 197.52134 148.64076 
L 197.857822 146.691362 
L 198.194304 149.83771 
L 198.530787 142.069399 
L 198.867269 144.108704 
L 199.540234 149.931636 
L 199.876716 145.717637 
L 200.213199 147.432666 
L 200.549681 149.919944 
L 200.886164 153.418458 
L 201.222646 144.391352 
L 201.559128 149.500865 
L 201.895611 147.086422 
L 202.232093 154.600765 
L 202.568576 153.30929 
L 202.905058 153.39327 
L 203.241541 147.799069 
L 203.578023 144.906157 
L 203.914505 151.554607 
L 204.250988 140.948441 
L 204.58747 150.819317 
L 204.923953 150.968965 
L 205.260435 156.84442 
L 205.596917 156.847736 
L 205.9334 155.060495 
L 206.269882 158.807849 
L 206.606365 155.205562 
L 206.942847 153.344003 
L 207.279329 142.40886 
L 207.952294 156.693809 
L 208.288777 155.205607 
L 208.625259 151.647716 
L 208.961742 144.449652 
L 209.298224 149.569673 
L 209.634706 148.968148 
L 209.971189 146.223447 
L 210.307671 150.605561 
L 210.644154 144.857471 
L 210.980636 152.668313 
L 211.317118 148.225239 
L 211.653601 149.808208 
L 211.990083 152.956313 
L 212.326566 149.645852 
L 212.663048 150.308199 
L 212.99953 146.936919 
L 213.336013 147.03213 
L 213.672495 150.383247 
L 214.008978 147.181961 
L 214.34546 151.359776 
L 214.681943 142.849344 
L 215.018425 151.255185 
L 215.354907 151.46123 
L 215.69139 144.517818 
L 216.027872 151.804047 
L 216.364355 153.465979 
L 216.700837 151.881039 
L 217.037319 157.014143 
L 217.373802 148.104833 
L 217.710284 152.539779 
L 218.046767 153.843937 
L 218.383249 151.142127 
L 218.719731 144.776054 
L 219.056214 153.250974 
L 219.392696 153.99504 
L 219.729179 155.247264 
L 220.065661 152.104538 
L 220.402144 151.944348 
L 220.738626 149.474791 
L 221.075108 156.18584 
L 221.411591 153.67032 
L 221.748073 155.024712 
L 222.084556 147.517609 
L 222.75752 149.65503 
L 223.094003 142.181685 
L 223.430485 137.617919 
L 223.766968 141.069187 
L 224.10345 149.507078 
L 224.439932 143.009599 
L 224.776415 145.736673 
L 225.112897 140.858167 
L 225.44938 143.096938 
L 225.785862 152.030079 
L 226.122345 144.359439 
L 226.458827 143.932218 
L 226.795309 150.826783 
L 227.131792 148.976997 
L 227.804757 140.542063 
L 228.141239 130.432484 
L 228.477721 141.80035 
L 229.150686 148.737473 
L 229.487169 143.590132 
L 229.823651 144.190442 
L 230.160133 147.331681 
L 230.496616 144.974514 
L 230.833098 143.766614 
L 231.169581 146.09791 
L 231.842546 139.112857 
L 232.179028 146.875841 
L 232.51551 146.53348 
L 232.851993 148.486585 
L 233.188475 145.481685 
L 233.524958 139.938367 
L 233.86144 144.393744 
L 234.197922 150.439174 
L 234.534405 144.07317 
L 234.870887 142.265612 
L 235.20737 147.319221 
L 235.543852 149.166444 
L 235.880334 143.343141 
L 236.216817 143.022712 
L 236.553299 145.25208 
L 236.889782 139.943743 
L 237.226264 139.839993 
L 237.562747 140.117688 
L 237.899229 144.792518 
L 238.235711 138.125434 
L 238.572194 144.375144 
L 238.908676 140.155321 
L 239.245159 144.375785 
L 239.581641 143.862822 
L 239.918123 141.297821 
L 240.254606 131.409456 
L 240.591088 136.13739 
L 240.927571 134.091027 
L 241.264053 138.560969 
L 241.600535 139.857844 
L 241.937018 135.557227 
L 242.2735 141.874977 
L 242.609983 136.136698 
L 243.282948 143.673608 
L 243.61943 142.846474 
L 243.955912 135.798104 
L 244.292395 139.761395 
L 244.628877 138.51485 
L 244.96536 127.688265 
L 245.301842 133.162905 
L 245.638324 132.39077 
L 245.974807 136.147672 
L 246.311289 138.057337 
L 246.647772 136.382913 
L 246.984254 128.582441 
L 247.320736 127.875912 
L 247.657219 130.03766 
L 247.993701 135.950709 
L 248.330184 135.26484 
L 248.666666 115.927952 
L 249.003149 126.255471 
L 249.339631 127.116466 
L 249.676113 129.96682 
L 250.012596 117.733644 
L 250.349078 126.704066 
L 250.685561 129.901072 
L 251.022043 130.619661 
L 251.358525 112.5492 
L 251.695008 114.420586 
L 252.03149 127.958972 
L 252.367973 114.952498 
L 252.704455 121.885255 
L 253.040938 124.628653 
L 253.37742 122.071791 
L 253.713902 113.446141 
L 254.050385 118.519348 
L 254.72335 123.786678 
L 255.059832 123.507206 
L 255.396314 119.017944 
L 255.732797 119.196895 
L 256.069279 115.922056 
L 256.405762 129.966117 
L 256.742244 120.07933 
L 257.078726 117.822879 
L 257.415209 131.23608 
L 257.751691 114.659421 
L 258.088174 110.475542 
L 258.424656 115.234802 
L 258.761139 86.009863 
L 259.097621 85.318802 
L 259.434103 100.719768 
L 259.770586 87.319618 
L 260.107068 89.693638 
L 260.780033 83.228363 
L 261.116515 85.791457 
L 261.452998 86.206883 
L 261.78948 84.206742 
L 262.125963 80.578841 
L 262.462445 108.557886 
L 262.798927 79.707156 
L 263.13541 88.44971 
L 263.471892 84.747619 
L 263.808375 83.645227 
L 264.144857 90.368195 
L 264.48134 83.695969 
L 264.817822 95.64394 
L 265.154304 81.143723 
L 265.490787 82.959642 
L 266.163752 79.721745 
L 266.500234 89.216349 
L 266.836716 91.711597 
L 267.173199 85.593359 
L 267.509681 85.733737 
L 267.846164 80.755984 
L 268.182646 68.308884 
L 268.519128 87.890253 
L 268.855611 77.059345 
L 269.192093 73.898294 
L 269.528576 68.49647 
L 269.865058 67.673894 
L 270.201541 56.401911 
L 270.538023 80.068951 
L 270.874505 69.603305 
L 271.210988 67.749713 
L 271.54747 69.151569 
L 271.883953 76.960917 
L 272.220435 79.732892 
L 272.556917 75.269952 
L 272.8934 64.787253 
L 273.229882 62.133041 
L 273.566365 56.330841 
L 273.902847 66.184462 
L 274.239329 68.865994 
L 274.912294 57.055084 
L 275.248777 60.290354 
L 275.585259 69.985141 
L 275.921742 72.25043 
L 276.258224 72.792838 
L 276.594706 70.596468 
L 276.931189 70.910715 
L 277.604154 68.433015 
L 277.940636 58.300357 
L 278.277118 56.03547 
L 278.613601 61.920293 
L 278.950083 61.151708 
L 279.286566 58.718771 
L 279.623048 62.697877 
L 279.95953 57.226145 
L 280.632495 38.650261 
L 280.968978 49.778515 
L 281.30546 48.530992 
L 281.641943 64.175319 
L 281.978425 60.73125 
L 282.65139 44.17209 
L 282.987872 56.400608 
L 283.324355 50.81315 
L 283.660837 66.614828 
L 283.997319 57.61542 
L 284.333802 53.272486 
L 284.670284 52.043151 
L 285.006767 59.693348 
L 285.343249 47.382481 
L 285.679731 58.09725 
L 286.352696 47.198877 
L 286.689179 52.083496 
L 287.025661 36.257601 
L 287.362144 40.032416 
L 287.698626 36.969407 
L 288.035108 48.594806 
L 288.371591 40.702555 
L 288.708073 48.605707 
L 289.044556 41.12738 
L 289.381038 36.63998 
L 289.71752 37.526373 
L 290.054003 46.08916 
L 290.390485 38.646295 
L 290.726968 44.81481 
L 291.06345 44.410434 
L 291.399932 45.909613 
L 291.736415 51.844094 
L 292.072897 45.87156 
L 292.40938 37.014105 
L 292.745862 41.390266 
L 293.082345 48.133292 
L 293.755309 37.224425 
L 294.091792 35.807538 
L 294.764757 43.141227 
L 295.101239 21.786159 
L 295.437721 40.692498 
L 295.774204 41.618102 
L 296.110686 33.020341 
L 296.783651 42.328765 
L 297.120133 38.569074 
L 297.456616 42.280992 
L 297.793098 40.519672 
L 298.129581 33.941872 
L 298.466063 24.359252 
L 298.802546 18.998519 
L 299.139028 34.504149 
L 299.47551 33.048991 
L 299.811993 37.52849 
L 300.148475 36.608793 
L 300.484958 42.642298 
L 300.82144 41.369063 
L 301.157922 42.419528 
L 301.494405 38.822434 
L 301.830887 41.040247 
L 302.16737 41.830658 
L 302.503852 37.996725 
L 302.840334 32.176498 
L 303.176817 38.229696 
L 303.513299 35.277258 
L 303.849782 36.224252 
L 304.186264 28.574578 
L 304.522747 33.586989 
L 304.859229 42.407469 
L 305.195711 40.652802 
L 305.532194 37.963292 
L 305.868676 47.488119 
L 306.205159 34.483821 
L 306.541641 33.782064 
L 306.878123 33.995121 
L 307.214606 29.843483 
L 307.551088 40.190397 
L 307.887571 38.187375 
L 308.224053 53.157537 
L 308.897018 21.042073 
L 309.2335 19.500355 
L 309.569983 27.24892 
L 309.906465 21.529016 
L 310.242948 36.949981 
L 310.57943 38.895177 
L 310.915912 29.429945 
L 311.252395 33.626292 
L 311.588877 30.683719 
L 311.92536 37.58854 
L 312.261842 33.046989 
L 312.598324 39.440871 
L 312.934807 28.941718 
L 313.271289 40.298423 
L 313.607772 40.121398 
L 313.944254 23.672581 
L 314.280736 23.955117 
L 314.617219 28.408679 
L 314.953701 17.47855 
L 315.290184 27.915455 
L 315.626666 24.441166 
L 315.963149 29.232623 
L 316.299631 23.520896 
L 316.636113 34.195308 
L 316.972596 28.626772 
L 317.309078 14.823084 
L 318.318525 27.947887 
L 318.655008 22.318624 
L 318.99149 29.030701 
L 319.327973 32.275339 
L 319.664455 31.178036 
L 320.000938 31.71845 
L 320.33742 50.634406 
L 320.673902 36.388392 
L 321.010385 49.900545 
L 321.346867 33.635217 
L 321.68335 35.33335 
L 322.019832 39.759806 
L 322.356314 32.176941 
L 322.692797 33.160265 
L 323.365762 20.21518 
L 323.702244 28.677438 
L 324.038726 28.925288 
L 324.375209 26.818787 
L 325.048174 37.45045 
L 325.384656 29.695192 
L 325.721139 32.620234 
L 326.057621 31.493609 
L 326.394103 28.675482 
L 326.730586 46.705648 
L 327.067068 28.272294 
L 327.740033 36.062442 
L 328.076515 30.915529 
L 328.412998 27.824654 
L 328.74948 35.504896 
L 329.758927 29.102718 
L 330.09541 19.127583 
L 330.431892 41.333845 
L 330.768375 39.946269 
L 331.104857 41.575448 
L 331.44134 35.041834 
L 331.777822 37.031131 
L 332.114304 33.4127 
L 332.450787 35.163424 
L 332.787269 42.185583 
L 333.123752 31.564259 
L 333.460234 52.395481 
L 333.796716 50.988162 
L 334.469681 42.936691 
L 335.142646 34.402802 
L 335.479128 36.910618 
L 335.815611 52.534633 
L 336.152093 34.311381 
L 336.488576 30.522735 
L 336.825058 42.088507 
L 337.161541 34.551788 
L 337.498023 36.035779 
L 338.170988 49.880481 
L 338.50747 35.361999 
L 338.843953 41.292434 
L 339.180435 52.531293 
L 339.516917 39.084215 
L 339.8534 36.496717 
L 340.189882 36.245787 
L 340.526365 37.478007 
L 340.862847 36.67407 
L 341.199329 44.876098 
L 341.535812 49.109963 
L 341.872294 39.688843 
L 342.208777 38.438947 
L 342.545259 53.841797 
L 342.881742 47.312604 
L 343.218224 45.052695 
L 343.554706 44.994215 
L 343.891189 48.348446 
L 344.227671 43.642888 
L 344.564154 41.535298 
L 344.900636 52.400391 
L 345.237118 38.783254 
L 345.573601 40.599293 
L 345.910083 37.961175 
L 346.246566 38.986506 
L 346.583048 45.74707 
L 346.91953 41.143558 
L 347.256013 48.053774 
L 347.592495 38.589065 
L 347.928978 46.606965 
L 348.26546 46.19129 
L 348.938425 56.169096 
L 349.274907 52.83854 
L 349.61139 44.167868 
L 349.947872 63.021593 
L 350.284355 37.701732 
L 350.620837 56.541139 
L 350.957319 52.207528 
L 351.293802 63.537857 
L 351.630284 66.799732 
L 351.966767 66.137541 
L 352.639731 44.150185 
L 352.976214 45.78999 
L 353.312696 63.675454 
L 353.649179 54.20535 
L 353.985661 62.183527 
L 354.322144 59.055084 
L 354.658626 53.061508 
L 354.995108 75.593817 
L 355.331591 60.831997 
L 355.668073 53.916165 
L 356.004556 59.947201 
L 356.341038 55.869289 
L 356.67752 60.439917 
L 357.014003 69.745934 
L 357.350485 59.536804 
L 358.02345 72.660598 
L 358.696415 68.88662 
L 359.36938 76.041373 
L 359.705862 74.957456 
L 360.042345 78.936844 
L 360.378827 62.831886 
L 360.715309 72.851623 
L 361.051792 76.332182 
L 361.388274 72.561479 
L 361.724757 81.012703 
L 362.061239 77.493058 
L 362.397721 69.814085 
L 362.734204 70.591642 
L 363.070686 76.820929 
L 363.407169 66.469754 
L 363.743651 74.969755 
L 364.080133 75.964767 
L 364.416616 74.739837 
L 364.753098 88.342125 
L 365.089581 77.042873 
L 365.762546 87.852718 
L 366.099028 79.568417 
L 366.43551 95.468536 
L 366.771993 103.443303 
L 366.771993 103.443303 
" clip-path="url(#p006351830c)" style="fill: none; stroke-dasharray: 5.55,2.4; stroke-dashoffset: 0; stroke: #bf00bf; stroke-width: 1.5"/>
   </g>
   <g id="line2d_23">
    <path d="M 57.208174 64.538516 
L 57.544656 66.559837 
L 57.881139 65.10325 
L 58.217621 71.725618 
L 58.554103 71.580494 
L 58.890586 70.416084 
L 59.227068 74.405621 
L 59.563551 65.373051 
L 59.900033 63.163579 
L 60.236515 57.925525 
L 60.572998 57.771632 
L 60.90948 69.357503 
L 61.582445 66.460022 
L 61.918927 65.774821 
L 62.25541 67.79717 
L 62.591892 67.548334 
L 62.928375 65.95927 
L 63.264857 59.301528 
L 63.60134 59.216691 
L 63.937822 58.922936 
L 64.274304 61.348804 
L 64.610787 55.300257 
L 64.947269 59.912037 
L 65.283752 58.412456 
L 65.620234 59.883987 
L 65.956716 56.884903 
L 66.293199 56.038408 
L 66.629681 48.227719 
L 66.966164 45.412835 
L 67.639128 49.774694 
L 67.975611 44.170344 
L 68.312093 51.929068 
L 68.648576 48.128748 
L 68.985058 55.410992 
L 69.321541 58.685433 
L 69.658023 58.621444 
L 69.994505 52.446028 
L 70.66747 50.121672 
L 71.003953 52.040426 
L 71.340435 61.284738 
L 71.676917 59.37724 
L 72.0134 52.359759 
L 72.349882 47.745247 
L 72.686365 46.10739 
L 73.022847 50.974249 
L 73.359329 47.792073 
L 73.695812 38.844397 
L 74.032294 42.430525 
L 74.705259 39.75879 
L 75.041742 41.100992 
L 75.378224 39.901724 
L 75.714706 42.945598 
L 76.051189 41.201782 
L 76.387671 46.121141 
L 76.724154 48.256495 
L 77.060636 44.543801 
L 77.397118 48.067594 
L 78.070083 42.268837 
L 78.406566 40.20818 
L 78.743048 41.053574 
L 79.07953 40.322174 
L 79.416013 36.611659 
L 79.752495 37.07242 
L 80.088978 41.054598 
L 80.42546 43.475217 
L 80.761943 47.708478 
L 81.098425 45.528438 
L 81.434907 45.982299 
L 81.77139 44.784139 
L 82.444355 39.929296 
L 83.117319 36.192056 
L 83.453802 39.739861 
L 83.790284 36.966732 
L 84.126767 38.64644 
L 84.799731 38.908841 
L 85.136214 37.484411 
L 85.472696 37.710566 
L 85.809179 35.352485 
L 86.145661 40.608739 
L 86.482144 36.184078 
L 86.818626 35.817992 
L 87.155108 38.649604 
L 87.491591 37.323717 
L 87.828073 43.274483 
L 88.501038 35.183301 
L 88.83752 31.508159 
L 89.174003 30.580576 
L 89.510485 32.36118 
L 89.846968 36.422926 
L 90.18345 35.297555 
L 90.856415 36.719723 
L 91.192897 34.364684 
L 91.52938 35.847001 
L 91.865862 36.650518 
L 92.202345 35.382228 
L 92.538827 32.602871 
L 92.875309 35.493394 
L 93.211792 36.292257 
L 93.548274 36.003393 
L 93.884757 39.469329 
L 94.221239 37.524898 
L 94.557721 36.30359 
L 94.894204 36.60757 
L 95.230686 38.066809 
L 95.567169 35.659384 
L 95.903651 36.874273 
L 96.240133 38.654564 
L 96.576616 36.000779 
L 96.913098 37.172781 
L 97.249581 37.808 
L 97.586063 36.222899 
L 97.922546 33.966976 
L 98.259028 32.468045 
L 98.59551 34.315294 
L 98.931993 33.256331 
L 99.268475 37.555786 
L 99.94144 30.643905 
L 100.277922 35.019978 
L 100.614405 35.233501 
L 100.950887 33.692516 
L 101.28737 33.669659 
L 101.960334 28.725154 
L 102.296817 30.541236 
L 102.633299 30.584527 
L 102.969782 32.985425 
L 103.306264 34.296602 
L 103.642747 34.892419 
L 103.979229 33.655568 
L 104.315711 34.7309 
L 104.652194 34.587415 
L 104.988676 32.475801 
L 105.325159 31.486777 
L 105.661641 33.108682 
L 105.998123 33.49709 
L 106.671088 38.583891 
L 107.007571 34.38427 
L 107.344053 32.980198 
L 107.680535 32.448841 
L 108.017018 30.590297 
L 108.3535 32.875061 
L 108.689983 31.785232 
L 109.026465 30.253686 
L 109.362948 31.547668 
L 110.035912 29.931205 
L 110.372395 31.852871 
L 110.708877 29.623518 
L 111.04536 32.728435 
L 111.381842 33.891191 
L 111.718324 33.845156 
L 112.054807 36.374637 
L 112.391289 36.926284 
L 112.727772 35.703356 
L 113.064254 32.091795 
L 113.400736 31.609155 
L 113.737219 35.385024 
L 114.073701 35.253056 
L 114.410184 36.224053 
L 114.746666 34.854339 
L 115.083149 31.518583 
L 115.756113 32.938114 
L 116.092596 29.996688 
L 116.429078 30.203226 
L 116.765561 26.587145 
L 117.102043 28.440699 
L 117.438525 31.524421 
L 117.775008 31.869912 
L 118.11149 37.31878 
L 118.447973 38.20875 
L 118.784455 35.667072 
L 119.120937 37.481232 
L 119.45742 36.683088 
L 119.793902 39.516893 
L 120.130385 36.618697 
L 120.80335 33.836192 
L 121.139832 29.929974 
L 121.476314 30.24946 
L 121.812797 33.03305 
L 122.485762 28.511295 
L 122.822244 31.31984 
L 123.158726 30.620368 
L 123.495209 32.773813 
L 123.831691 33.799824 
L 124.168174 30.503171 
L 124.504656 31.314781 
L 124.841139 31.366815 
L 125.514103 37.120962 
L 125.850586 35.612876 
L 126.187068 35.714116 
L 126.523551 32.960047 
L 126.860033 32.823738 
L 127.196515 33.295053 
L 127.532998 30.838315 
L 127.86948 33.919756 
L 128.542445 37.241513 
L 128.878927 38.813095 
L 129.21541 39.08245 
L 129.551892 39.141552 
L 129.888375 37.752925 
L 130.224857 39.759821 
L 130.897822 41.481235 
L 131.234304 40.353697 
L 131.570787 42.195211 
L 131.907269 41.962427 
L 132.243752 39.292427 
L 132.580234 34.951315 
L 132.916716 37.610472 
L 133.253199 34.696159 
L 133.589681 35.268241 
L 134.262646 41.042559 
L 134.599128 41.678205 
L 134.935611 40.221966 
L 135.272093 40.405387 
L 135.608576 39.612692 
L 135.945058 45.875087 
L 136.281541 42.74802 
L 136.618023 44.618546 
L 136.954505 44.340744 
L 137.290988 36.823416 
L 137.62747 35.42681 
L 137.963953 39.53009 
L 138.300435 38.345082 
L 138.636917 43.307752 
L 138.9734 43.351292 
L 139.309882 39.401981 
L 139.646365 39.727297 
L 140.319329 44.366405 
L 140.655812 44.602949 
L 140.992294 48.20268 
L 141.328777 41.50773 
L 142.001742 42.763017 
L 142.338224 53.021996 
L 142.674706 46.901534 
L 143.011189 43.144543 
L 143.347671 44.851453 
L 143.684154 49.098335 
L 144.020636 46.71603 
L 144.693601 44.244547 
L 145.030083 46.116388 
L 145.366566 52.189975 
L 145.703048 52.570145 
L 146.03953 48.863813 
L 146.376013 41.896107 
L 146.712495 40.533206 
L 147.048978 40.995011 
L 148.058425 50.467705 
L 148.394907 55.051715 
L 148.73139 61.518531 
L 149.067872 59.876605 
L 149.404355 55.387244 
L 149.740837 57.337667 
L 150.077319 64.213387 
L 150.413802 62.318678 
L 150.750284 61.41143 
L 151.086767 58.993337 
L 151.423249 57.963207 
L 151.759731 62.604126 
L 152.432696 65.511416 
L 152.769179 66.724184 
L 153.105661 63.220374 
L 153.442144 70.498284 
L 153.778626 67.909647 
L 154.115108 68.907922 
L 154.451591 57.944534 
L 154.788073 60.707182 
L 155.124556 56.973832 
L 155.461038 59.73672 
L 155.79752 60.785481 
L 156.134003 62.470733 
L 156.806968 54.78706 
L 157.14345 58.901065 
L 157.479932 61.048504 
L 157.816415 61.386945 
L 158.152897 59.927653 
L 158.48938 63.132217 
L 158.825862 70.089159 
L 159.162345 84.513975 
L 159.498827 91.36515 
L 159.835309 134.810578 
L 160.171792 77.394122 
L 160.508274 75.859985 
L 160.844757 120.55241 
L 161.181239 73.456377 
L 161.517721 70.749489 
L 161.854204 74.414387 
L 162.527169 72.03808 
L 162.863651 73.595315 
L 163.200133 69.208772 
L 163.536616 68.54751 
L 163.873098 69.129029 
L 164.209581 91.490194 
L 164.546063 105.512214 
L 164.882546 132.03335 
L 165.219028 78.321515 
L 165.55551 75.715961 
L 166.228475 104.830524 
L 166.564958 81.175999 
L 166.90144 128.343005 
L 167.237922 118.971726 
L 167.574405 77.399238 
L 167.910887 82.23611 
L 168.24737 75.498541 
L 168.583852 135.988602 
L 168.920334 116.234746 
L 169.256817 133.657352 
L 169.593299 138.104927 
L 169.929782 134.254736 
L 170.266264 136.590678 
L 170.602747 136.96447 
L 170.939229 138.708665 
L 171.275711 139.333807 
L 171.612194 139.379032 
L 171.948676 140.008103 
L 172.285159 140.183244 
L 172.621641 139.201339 
L 172.958123 140.439294 
L 173.294606 134.816428 
L 173.631088 138.117253 
L 173.967571 136.136492 
L 174.304053 136.846357 
L 174.640535 138.961994 
L 174.977018 138.953802 
L 175.3135 140.039129 
L 175.649983 139.772171 
L 175.986465 139.758621 
L 176.322948 140.510104 
L 176.65943 140.915225 
L 176.995912 141.707722 
L 177.332395 141.181213 
L 177.668877 140.316649 
L 178.00536 138.979035 
L 178.341842 140.203622 
L 178.678324 140.666015 
L 179.014807 138.354603 
L 180.024254 141.990763 
L 180.360736 142.215023 
L 180.697219 142.756468 
L 181.033701 141.802172 
L 181.370184 141.710164 
L 181.706666 142.196419 
L 182.043149 142.315143 
L 182.379631 142.25567 
L 182.716113 141.444561 
L 183.052596 140.310551 
L 183.389078 140.901802 
L 183.725561 140.96262 
L 184.062043 141.850213 
L 184.398525 141.434757 
L 184.735008 141.528309 
L 185.07149 141.392161 
L 185.407973 141.747701 
L 185.744455 141.37356 
L 186.080938 141.583121 
L 186.41742 140.555402 
L 186.753902 141.005331 
L 187.090385 141.699408 
L 187.426867 141.623317 
L 187.76335 142.148298 
L 188.099832 141.866789 
L 188.436314 141.841104 
L 189.109279 143.47514 
L 189.445762 143.638689 
L 189.782244 143.660307 
L 190.118726 142.823934 
L 190.455209 143.457212 
L 190.791691 143.115737 
L 191.128174 143.77144 
L 191.464656 143.976018 
L 192.137621 142.064901 
L 192.474103 141.901036 
L 192.810586 142.637728 
L 193.147068 142.3579 
L 193.483551 143.703992 
L 194.156515 144.275531 
L 194.492998 143.845257 
L 194.82948 141.894254 
L 195.502445 142.62761 
L 195.838927 141.906053 
L 196.17541 143.604961 
L 196.511892 143.041056 
L 196.848375 143.513445 
L 197.184857 143.595458 
L 197.52134 143.442394 
L 197.857822 143.468721 
L 198.194304 143.618816 
L 198.530787 143.641226 
L 199.203752 143.216175 
L 199.540234 142.475593 
L 199.876716 142.60967 
L 200.213199 143.229464 
L 200.549681 143.04662 
L 200.886164 143.613975 
L 201.222646 143.847748 
L 201.559128 143.803307 
L 201.895611 143.561975 
L 202.232093 143.93448 
L 202.568576 142.889349 
L 202.905058 142.992083 
L 203.578023 143.873356 
L 203.914505 143.442822 
L 204.250988 143.601469 
L 204.58747 143.943502 
L 204.923953 144.480071 
L 205.260435 143.367523 
L 205.596917 143.888109 
L 205.9334 143.589425 
L 206.269882 144.563991 
L 206.942847 144.666266 
L 207.615812 143.290848 
L 207.952294 144.111131 
L 208.288777 142.728082 
L 208.625259 143.913278 
L 208.961742 144.174574 
L 209.298224 145.000458 
L 209.634706 145.288734 
L 209.971189 145.028477 
L 210.307671 145.544104 
L 210.980636 144.749295 
L 211.317118 143.145869 
L 211.990083 144.924582 
L 212.326566 144.92104 
L 212.663048 144.56623 
L 212.99953 143.406092 
L 213.336013 143.838716 
L 213.672495 143.80785 
L 214.008978 143.453838 
L 214.34546 144.075084 
L 214.681943 143.303178 
L 215.018425 144.282394 
L 215.354907 143.849942 
L 215.69139 143.977072 
L 216.027872 144.502007 
L 216.364355 144.053732 
L 216.700837 144.132016 
L 217.037319 143.644072 
L 217.373802 143.535079 
L 217.710284 144.001217 
L 218.046767 143.619362 
L 218.383249 144.183996 
L 218.719731 143.072854 
L 219.056214 144.033787 
L 219.392696 144.247313 
L 219.729179 143.281765 
L 220.065661 144.237215 
L 220.402144 144.537599 
L 220.738626 144.392261 
L 221.075108 145.184781 
L 221.411591 144.008932 
L 222.084556 144.674898 
L 222.421038 144.294097 
L 222.75752 143.419805 
L 223.094003 144.395677 
L 223.766968 144.904457 
L 224.10345 144.600377 
L 224.439932 144.446232 
L 224.776415 144.054791 
L 225.112897 144.912993 
L 225.44938 144.743002 
L 225.785862 144.922775 
L 226.122345 143.922005 
L 226.458827 143.817735 
L 226.795309 143.946237 
L 227.468274 142.102159 
L 227.804757 142.383623 
L 228.141239 143.558223 
L 228.477721 142.915026 
L 228.814204 143.302597 
L 229.150686 142.630407 
L 229.487169 142.735777 
L 229.823651 144.074492 
L 230.160133 143.217329 
L 230.496616 143.089988 
L 230.833098 144.003361 
L 231.169581 143.816504 
L 231.506063 143.350451 
L 231.842546 142.62226 
L 232.179028 141.075652 
L 232.851993 142.968202 
L 233.188475 143.655119 
L 233.524958 143.154562 
L 233.86144 143.066947 
L 234.197922 143.457892 
L 234.870887 143.021241 
L 235.20737 143.307828 
L 235.880334 142.274431 
L 236.216817 143.26344 
L 236.553299 143.351502 
L 236.889782 143.697764 
L 237.226264 143.393681 
L 237.562747 142.488672 
L 237.899229 142.94742 
L 238.235711 143.839919 
L 238.572194 143.144914 
L 238.908676 142.842489 
L 239.245159 143.443136 
L 239.581641 143.738331 
L 239.918123 143.053005 
L 240.254606 142.918404 
L 240.591088 143.13694 
L 240.927571 142.388108 
L 241.600535 142.297494 
L 241.937018 142.916463 
L 242.2735 142.133713 
L 242.609983 142.89254 
L 242.946465 142.417377 
L 243.282948 142.891321 
L 243.61943 142.974129 
L 243.955912 142.575202 
L 244.292395 141.254778 
L 244.628877 141.504313 
L 244.96536 141.240622 
L 245.301842 141.823478 
L 245.638324 142.18324 
L 245.974807 141.61059 
L 246.311289 142.439034 
L 246.647772 141.725875 
L 247.320736 142.79595 
L 247.657219 142.739529 
L 247.993701 141.814827 
L 248.330184 142.166023 
L 248.666666 141.996059 
L 249.003149 140.606966 
L 249.339631 141.008854 
L 249.676113 140.88609 
L 250.349078 141.847894 
L 250.685561 141.665321 
L 251.022043 140.693976 
L 251.358525 140.270542 
L 251.695008 140.377211 
L 252.03149 141.20339 
L 252.367973 141.365869 
L 252.704455 138.766346 
L 253.040938 139.525253 
L 253.37742 139.543693 
L 253.713902 140.067573 
L 254.050385 138.746549 
L 254.72335 140.227739 
L 255.059832 140.40204 
L 255.396314 137.651138 
L 255.732797 137.286042 
L 256.069279 139.307118 
L 256.405762 136.625295 
L 256.742244 139.047484 
L 257.078726 139.449265 
L 257.415209 138.998484 
L 257.751691 137.199436 
L 258.088174 137.831281 
L 258.424656 138.209613 
L 258.761139 138.943034 
L 259.097621 139.39983 
L 259.434103 138.739595 
L 259.770586 138.457333 
L 260.107068 137.275867 
L 260.443551 139.703416 
L 260.780033 138.563953 
L 261.116515 138.472296 
L 261.452998 140.295321 
L 261.78948 137.141579 
L 262.125963 136.68031 
L 262.462445 136.76896 
L 262.798927 74.976113 
L 263.13541 72.792085 
L 263.471892 84.301773 
L 263.808375 74.142942 
L 264.144857 75.994666 
L 264.48134 74.783701 
L 264.817822 70.438624 
L 265.154304 71.596018 
L 265.490787 72.088349 
L 265.827269 71.191142 
L 266.163752 68.84355 
L 266.500234 96.233796 
L 266.836716 69.802499 
L 267.173199 73.854032 
L 267.509681 73.229642 
L 267.846164 69.719134 
L 268.182646 74.8655 
L 268.519128 71.318338 
L 268.855611 77.511647 
L 269.192093 70.465818 
L 269.865058 69.047906 
L 270.201541 66.230757 
L 270.538023 72.480088 
L 270.874505 75.830311 
L 271.210988 73.386523 
L 271.54747 73.193763 
L 271.883953 69.085753 
L 272.220435 60.135486 
L 272.556917 68.39599 
L 272.8934 65.039169 
L 273.229882 62.96095 
L 273.566365 59.851333 
L 273.902847 55.535329 
L 274.239329 49.346518 
L 274.575812 59.572896 
L 274.912294 58.944028 
L 275.248777 57.363008 
L 275.585259 58.341115 
L 275.921742 60.821723 
L 276.258224 64.852759 
L 276.594706 63.776476 
L 277.604154 47.503074 
L 278.277118 55.675666 
L 278.613601 53.234972 
L 278.950083 49.613221 
L 279.286566 48.884824 
L 279.95953 58.47473 
L 280.296013 60.686942 
L 281.641943 56.938056 
L 282.314907 47.278616 
L 282.65139 49.133171 
L 282.987872 49.674058 
L 283.324355 49.310647 
L 283.660837 51.225775 
L 283.997319 48.360352 
L 284.670284 38.091401 
L 285.006767 39.931948 
L 285.343249 40.60653 
L 285.679731 48.372159 
L 286.016214 51.190565 
L 286.689179 41.038638 
L 287.025661 43.158421 
L 287.362144 42.69129 
L 287.698626 50.733953 
L 288.035108 50.18416 
L 288.371591 45.576945 
L 288.708073 44.201011 
L 289.044556 46.144877 
L 289.381038 42.656817 
L 289.71752 45.733589 
L 290.054003 44.602789 
L 290.390485 41.309254 
L 290.726968 42.851166 
L 291.06345 37.458887 
L 291.399932 36.883138 
L 291.736415 35.728987 
L 292.072897 38.92589 
L 292.40938 38.406446 
L 292.745862 40.417813 
L 293.082345 38.85174 
L 293.418827 36.089861 
L 293.755309 35.823961 
L 294.091792 38.132965 
L 294.428274 37.170764 
L 294.764757 38.9046 
L 295.437721 39.435682 
L 295.774204 42.044093 
L 296.110686 40.771985 
L 296.447169 37.408978 
L 296.783651 37.301777 
L 297.120133 39.250564 
L 297.456616 38.524743 
L 298.129581 35.513959 
L 298.466063 35.893548 
L 298.802546 37.537583 
L 299.139028 31.652011 
L 299.47551 35.269547 
L 299.811993 36.540574 
L 300.148475 34.434317 
L 300.82144 36.986441 
L 301.157922 36.378045 
L 301.494405 37.781918 
L 301.830887 37.572568 
L 302.16737 35.101983 
L 302.840334 27.613317 
L 303.176817 31.265651 
L 303.513299 32.671725 
L 303.849782 35.198623 
L 304.186264 35.86282 
L 304.522747 37.220941 
L 305.195711 38.056424 
L 305.532194 37.1909 
L 305.868676 37.19787 
L 306.205159 37.575579 
L 306.541641 36.513475 
L 306.878123 34.382489 
L 307.214606 35.21636 
L 307.551088 34.59981 
L 307.887571 34.934136 
L 308.224053 32.792979 
L 308.560535 33.117317 
L 308.897018 36.218322 
L 309.2335 37.026049 
L 309.569983 36.906285 
L 309.906465 39.479027 
L 310.242948 35.94374 
L 310.57943 34.483493 
L 310.915912 34.045458 
L 311.252395 32.150699 
L 311.588877 35.380401 
L 311.92536 35.96853 
L 312.261842 41.181492 
L 312.598324 38.265384 
L 312.934807 31.10553 
L 313.271289 27.776892 
L 313.607772 28.323174 
L 313.944254 27.805259 
L 314.280736 33.218389 
L 314.617219 35.764201 
L 314.953701 33.301976 
L 315.290184 33.888753 
L 315.626666 32.441451 
L 315.963149 34.300782 
L 316.299631 34.088864 
L 316.636113 35.849278 
L 316.972596 33.19904 
L 317.309078 35.464936 
L 317.645561 36.582329 
L 317.982043 31.547485 
L 318.318525 30.0124 
L 318.655008 30.009809 
L 318.99149 26.797145 
L 319.327973 29.64299 
L 319.664455 29.439161 
L 320.000938 30.666051 
L 320.33742 29.77223 
L 320.673902 32.350199 
L 321.010385 31.830044 
L 321.346867 27.000412 
L 321.68335 26.601229 
L 322.019832 26.853596 
L 322.356314 29.327283 
L 322.692797 29.156884 
L 323.365762 32.248042 
L 323.702244 32.383648 
L 324.038726 33.029183 
L 324.375209 39.0165 
L 324.711691 36.850438 
L 325.048174 40.51916 
L 325.384656 36.57043 
L 325.721139 34.527816 
L 326.057621 36.021084 
L 326.394103 33.707135 
L 326.730586 33.932044 
L 327.403551 28.081812 
L 327.740033 29.839716 
L 328.076515 30.665929 
L 328.412998 30.757693 
L 329.085963 34.493481 
L 329.422445 32.902717 
L 329.758927 33.333262 
L 330.09541 32.807499 
L 330.431892 31.554416 
L 330.768375 37.315127 
L 331.104857 33.58475 
L 331.44134 33.493276 
L 331.777822 34.437932 
L 332.114304 32.523563 
L 332.450787 31.820782 
L 332.787269 33.575198 
L 333.123752 33.409208 
L 333.796716 32.100285 
L 334.133199 28.200086 
L 334.469681 33.939526 
L 335.142646 37.65912 
L 336.152093 33.976306 
L 336.488576 34.116811 
L 336.825058 36.827703 
L 337.161541 34.300782 
L 337.498023 40.2471 
L 337.834505 42.139223 
L 338.50747 40.088722 
L 339.180435 34.786915 
L 339.516917 34.895629 
L 339.8534 40.224182 
L 340.526365 34.017512 
L 340.862847 36.27585 
L 341.199329 34.282602 
L 341.535812 35.097803 
L 342.208777 40.1433 
L 342.545259 37.022404 
L 342.881742 37.564689 
L 343.218224 40.976231 
L 343.554706 37.907177 
L 344.227671 35.460251 
L 344.564154 34.928298 
L 344.900636 35.224384 
L 345.573601 40.531655 
L 345.910083 38.388083 
L 346.246566 37.123399 
L 346.583048 41.167485 
L 347.592495 40.10759 
L 347.928978 40.230785 
L 348.601943 38.379088 
L 348.938425 41.513572 
L 349.274907 38.148211 
L 349.61139 37.591214 
L 349.947872 36.48844 
L 350.284355 35.933263 
L 350.620837 38.599336 
L 350.957319 38.06716 
L 351.293802 40.235546 
L 351.630284 37.823299 
L 351.966767 39.164165 
L 352.303249 39.865731 
L 352.639731 41.604289 
L 352.976214 45.186321 
L 353.312696 44.453473 
L 353.649179 40.897611 
L 353.985661 46.999958 
L 354.322144 39.322513 
L 354.658626 43.387411 
L 354.995108 44.037428 
L 355.331591 48.091039 
L 355.668073 54.731778 
L 356.004556 54.681655 
L 356.67752 40.980758 
L 357.014003 39.592303 
L 357.350485 46.190171 
L 357.686968 46.09282 
L 358.02345 50.351735 
L 358.359932 50.099877 
L 358.696415 44.960587 
L 359.032897 56.809343 
L 359.705862 47.469985 
L 360.042345 48.999033 
L 360.378827 45.682591 
L 360.715309 48.296114 
L 361.051792 55.279853 
L 361.388274 51.633044 
L 361.724757 54.39879 
L 362.061239 58.561955 
L 362.397721 58.241801 
L 362.734204 58.267742 
L 363.070686 59.581184 
L 363.407169 61.833034 
L 363.743651 62.17992 
L 364.080133 65.054315 
L 364.416616 56.652455 
L 364.753098 58.33888 
L 365.089581 61.835392 
L 365.426063 60.23984 
L 365.762546 66.486688 
L 366.099028 65.193719 
L 366.43551 60.050042 
L 366.771993 58.956324 
L 367.108475 61.742753 
L 367.444958 57.255788 
L 367.78144 60.688635 
L 368.117922 62.760915 
L 368.454405 61.779675 
L 368.790887 70.874114 
L 369.12737 66.14344 
L 369.463852 68.914402 
L 369.800334 73.110386 
L 370.136817 67.74206 
L 370.473299 76.373877 
L 370.809782 115.394113 
L 370.809782 115.394113 
" clip-path="url(#p006351830c)" style="fill: none; stroke-dasharray: 9.6,2.4,1.5,2.4; stroke-dashoffset: 0; stroke: #008000; stroke-width: 1.5"/>
   </g>
   <g id="line2d_24">
    <path d="M 73.359329 36.702689 
L 73.695812 37.028173 
L 74.032294 36.785482 
L 74.368777 38.008822 
L 74.705259 38.007852 
L 75.041742 37.759619 
L 75.378224 38.63941 
L 75.714706 36.85286 
L 76.051189 36.488815 
L 76.387671 35.804015 
L 76.724154 35.764277 
L 77.060636 37.515109 
L 78.070083 36.905062 
L 78.406566 37.235644 
L 78.743048 37.208782 
L 79.07953 36.935309 
L 79.416013 35.976738 
L 80.088978 35.913012 
L 80.42546 36.218345 
L 80.761943 35.521203 
L 81.098425 36.015398 
L 81.434907 35.85796 
L 81.77139 36.022528 
L 82.107872 35.688531 
L 82.444355 35.573657 
L 82.780837 34.901849 
L 83.117319 34.693676 
L 83.790284 34.99884 
L 84.126767 34.619702 
L 84.463249 35.164303 
L 84.799731 34.89112 
L 85.472696 35.892188 
L 85.809179 35.869438 
L 86.145661 35.245498 
L 86.818626 35.035063 
L 87.155108 35.184447 
L 87.491591 36.205292 
L 87.828073 35.976287 
L 88.164556 35.233615 
L 88.501038 34.858611 
L 88.83752 34.741216 
L 89.174003 35.091735 
L 89.510485 34.867361 
L 89.846968 34.251545 
L 90.18345 34.478869 
L 90.856415 34.30769 
L 91.192897 34.397001 
L 91.52938 34.313101 
L 91.865862 34.519211 
L 92.202345 34.408755 
L 92.538827 34.736539 
L 92.875309 34.892755 
L 93.211792 34.638677 
L 93.548274 34.874766 
L 94.557721 34.337601 
L 95.230686 34.34415 
L 95.567169 34.092502 
L 95.903651 34.11597 
L 96.913098 34.851176 
L 97.249581 34.708769 
L 97.922546 34.65351 
L 98.931993 34.188851 
L 99.268475 34.058686 
L 99.604958 34.296143 
L 99.94144 34.116788 
L 100.614405 34.237866 
L 101.623852 34.160729 
L 101.960334 34.002182 
L 102.296817 34.353527 
L 102.633299 34.066152 
L 102.969782 34.031183 
L 103.306264 34.221535 
L 103.642747 34.136282 
L 103.979229 34.540945 
L 104.988676 33.735945 
L 105.325159 33.665922 
L 105.661641 33.78937 
L 105.998123 34.067795 
L 106.671088 34.041095 
L 107.007571 34.091569 
L 107.344053 33.933733 
L 108.017018 34.087107 
L 108.689983 33.813862 
L 109.026465 34.001853 
L 110.372395 34.152155 
L 111.04536 34.084814 
L 111.381842 34.18312 
L 111.718324 34.025719 
L 112.391289 34.223828 
L 112.727772 34.048438 
L 113.400736 34.166873 
L 114.410184 33.799847 
L 114.746666 33.921904 
L 115.083149 33.856497 
L 115.419631 34.146438 
L 116.092596 33.675956 
L 116.429078 33.966609 
L 116.765561 33.989932 
L 118.11149 33.542796 
L 119.45742 33.925686 
L 119.793902 33.967044 
L 120.130385 33.884443 
L 120.80335 33.946197 
L 121.476314 33.732789 
L 122.822244 34.220802 
L 123.158726 33.939931 
L 124.168174 33.671035 
L 124.504656 33.824851 
L 125.177621 33.648491 
L 125.514103 33.732866 
L 126.187068 33.626108 
L 126.523551 33.753621 
L 126.860033 33.605888 
L 127.532998 33.897113 
L 127.86948 33.895845 
L 128.205963 34.067123 
L 128.542445 34.106937 
L 128.878927 34.026491 
L 129.21541 33.779283 
L 129.551892 33.737756 
L 129.888375 33.993058 
L 130.897822 33.966609 
L 131.234304 33.736687 
L 131.907269 33.830277 
L 132.243752 33.634277 
L 132.580234 33.642026 
L 132.916716 33.396278 
L 133.926164 33.759559 
L 134.262646 34.129145 
L 134.599128 34.196699 
L 134.935611 34.026544 
L 135.272093 34.143267 
L 135.608576 34.090538 
L 135.945058 34.283167 
L 136.618023 33.988404 
L 136.954505 33.894217 
L 137.290988 33.627858 
L 137.62747 33.644754 
L 137.963953 33.832616 
L 138.636917 33.530462 
L 138.9734 33.713058 
L 139.309882 33.671386 
L 139.982847 33.891978 
L 140.319329 33.66836 
L 141.328777 33.893201 
L 141.665259 34.118729 
L 143.011189 33.822261 
L 143.347671 33.855778 
L 143.684154 33.690797 
L 144.357118 34.032658 
L 145.366566 34.256749 
L 146.712495 34.368933 
L 147.048978 34.423167 
L 147.38546 34.348475 
L 147.721943 34.468346 
L 148.058425 34.457159 
L 148.73139 33.978049 
L 149.067872 34.147409 
L 149.404355 33.957561 
L 149.740837 33.993042 
L 150.413802 34.387503 
L 150.750284 34.439834 
L 151.423249 34.347222 
L 151.759731 34.293339 
L 152.096214 34.71732 
L 152.432696 34.519112 
L 152.769179 34.635727 
L 153.105661 34.623279 
L 153.442144 34.109543 
L 153.778626 34.005116 
L 154.115108 34.277604 
L 154.451591 34.209255 
L 154.788073 34.5454 
L 155.124556 34.5559 
L 155.461038 34.283076 
L 155.79752 34.300889 
L 156.470485 34.621949 
L 156.806968 34.641336 
L 157.14345 34.883562 
L 157.479932 34.432582 
L 158.152897 34.510889 
L 158.48938 35.25687 
L 159.162345 34.542412 
L 159.498827 34.652539 
L 159.835309 34.941083 
L 160.844757 34.615285 
L 161.181239 34.73806 
L 161.517721 35.19925 
L 161.854204 35.24235 
L 162.190686 34.942787 
L 162.527169 34.457327 
L 162.863651 34.355544 
L 163.200133 34.38709 
L 164.209581 35.055497 
L 164.546063 35.471623 
L 164.882546 36.237128 
L 165.219028 36.042833 
L 165.55551 35.520042 
L 165.891993 35.717134 
L 166.228475 36.626469 
L 167.237922 35.926286 
L 167.574405 35.790711 
L 167.910887 36.394521 
L 168.920334 37.060124 
L 169.256817 36.50361 
L 169.593299 37.74591 
L 169.929782 37.283849 
L 170.266264 37.452139 
L 170.602747 35.822318 
L 170.939229 36.115576 
L 171.275711 35.693712 
L 171.948676 36.161084 
L 172.285159 36.37252 
L 172.958123 35.453771 
L 173.631088 36.180051 
L 173.967571 36.234958 
L 174.304053 36.04553 
L 174.640535 36.471689 
L 174.977018 37.669567 
L 175.649983 44.526969 
L 175.986465 142.752364 
L 176.322948 39.424242 
L 176.65943 39.000269 
L 176.995912 142.733821 
L 177.332395 38.424221 
L 177.668877 37.838912 
L 178.00536 38.639326 
L 178.678324 38.099883 
L 179.014807 38.450196 
L 179.351289 37.527504 
L 179.687772 37.386312 
L 180.024254 37.501223 
L 180.360736 44.35495 
L 180.697219 142.677725 
L 181.033701 142.749105 
L 181.370184 39.705701 
L 181.706666 38.964589 
L 182.043149 43.29293 
L 182.379631 142.670405 
L 182.716113 40.637552 
L 183.052596 142.744802 
L 183.389078 142.730776 
L 183.725561 39.403777 
L 184.062043 41.009549 
L 184.398525 38.924216 
L 184.735008 142.753675 
L 185.744455 142.756239 
L 193.483551 142.759857 
L 229.150686 142.762478 
L 278.613601 142.754683 
L 278.950083 38.809465 
L 279.286566 38.267608 
L 279.623048 41.708028 
L 279.95953 38.584396 
L 280.296013 39.034543 
L 280.632495 38.757638 
L 280.968978 37.765794 
L 281.641943 38.10712 
L 281.978425 37.921903 
L 282.314907 37.454951 
L 282.65139 47.476064 
L 282.987872 37.659892 
L 283.324355 38.493686 
L 283.660837 38.386088 
L 283.997319 37.609272 
L 284.333802 38.754726 
L 284.670284 37.953143 
L 285.006767 39.398833 
L 285.343249 37.78768 
L 286.016214 37.495255 
L 286.352696 36.973664 
L 287.025661 38.989371 
L 287.362144 38.406377 
L 287.698626 38.362115 
L 288.035108 37.503669 
L 288.371591 36.081906 
L 288.708073 37.325742 
L 289.381038 36.461128 
L 290.054003 35.524749 
L 290.390485 34.980515 
L 290.726968 35.959352 
L 291.06345 35.925965 
L 291.399932 35.728941 
L 291.736415 35.845832 
L 292.072897 36.140351 
L 292.40938 36.741961 
L 292.745862 36.586471 
L 293.418827 35.232026 
L 293.755309 34.842036 
L 294.428274 35.53891 
L 295.437721 34.934557 
L 296.447169 36.138051 
L 297.793098 35.679704 
L 298.129581 35.13262 
L 298.466063 34.825201 
L 299.139028 34.99586 
L 299.47551 34.97149 
L 299.811993 35.119957 
L 300.148475 34.90272 
L 300.82144 34.192932 
L 301.494405 34.361191 
L 301.830887 34.887605 
L 302.16737 35.124175 
L 302.840334 34.397024 
L 303.176817 34.531293 
L 303.513299 34.508023 
L 303.849782 35.067182 
L 304.186264 35.046679 
L 304.522747 34.709869 
L 304.859229 34.613313 
L 305.195711 34.739993 
L 305.532194 34.510797 
L 305.868676 34.712192 
L 306.205159 34.642834 
L 306.541641 34.413928 
L 306.878123 34.516085 
L 307.214606 34.151734 
L 307.887571 34.02523 
L 308.224053 34.239991 
L 308.560535 34.214031 
L 308.897018 34.347451 
L 309.906465 34.031183 
L 310.242948 34.186016 
L 310.57943 34.128151 
L 311.252395 34.267685 
L 311.588877 34.280592 
L 311.92536 34.45926 
L 312.261842 34.376934 
L 312.598324 34.146843 
L 312.934807 34.131903 
L 313.271289 34.263467 
L 313.944254 34.121816 
L 314.280736 34.011131 
L 314.953701 34.147799 
L 315.290184 33.75466 
L 315.626666 33.986187 
L 315.963149 34.077218 
L 316.299631 33.940076 
L 316.972596 34.108282 
L 317.309078 34.07102 
L 317.982043 34.153515 
L 318.655008 33.714884 
L 318.99149 33.46601 
L 319.664455 33.812219 
L 320.000938 33.987968 
L 321.68335 34.128449 
L 322.692797 34.081306 
L 323.029279 33.935583 
L 323.702244 33.947076 
L 324.038726 33.970132 
L 324.375209 33.826235 
L 324.711691 33.842099 
L 325.048174 34.053146 
L 326.057621 34.280439 
L 326.730586 33.940665 
L 327.403551 33.778511 
L 327.740033 33.996046 
L 328.076515 34.041859 
L 328.412998 34.395748 
L 328.74948 34.2083 
L 329.085963 33.715526 
L 329.422445 33.475746 
L 330.09541 33.478161 
L 330.431892 33.845423 
L 330.768375 34.025902 
L 331.104857 33.862832 
L 331.44134 33.897274 
L 331.777822 33.797562 
L 332.114304 33.92237 
L 332.450787 33.913719 
L 332.787269 34.031175 
L 333.123752 33.855045 
L 333.796716 34.082766 
L 334.133199 33.744688 
L 335.142646 33.410996 
L 335.479128 33.600217 
L 336.488576 33.615921 
L 336.825058 33.786321 
L 337.161541 33.757075 
L 337.498023 33.429237 
L 338.170988 33.406747 
L 338.50747 33.5784 
L 338.843953 33.574051 
L 339.8534 33.793863 
L 340.189882 33.838974 
L 340.526365 34.242994 
L 340.862847 34.108626 
L 341.199329 34.352999 
L 341.872294 33.941627 
L 342.208777 34.041981 
L 342.545259 33.887943 
L 342.881742 33.901752 
L 343.554706 33.49858 
L 344.227671 33.673052 
L 344.564154 33.683002 
L 345.237118 33.936179 
L 345.573601 33.833395 
L 346.246566 33.822757 
L 346.583048 33.737244 
L 346.91953 34.126012 
L 347.256013 33.884879 
L 349.947872 33.775286 
L 350.284355 33.508728 
L 350.620837 33.890014 
L 351.293802 34.159926 
L 352.639731 33.912573 
L 352.976214 34.097492 
L 353.312696 33.931364 
L 353.649179 34.329164 
L 353.985661 34.467819 
L 354.658626 34.33083 
L 355.331591 33.96129 
L 355.668073 33.965753 
L 356.004556 34.327544 
L 356.67752 33.91161 
L 357.014003 34.056187 
L 357.350485 33.925946 
L 358.02345 34.144879 
L 358.359932 34.325871 
L 358.696415 34.12232 
L 359.032897 34.151436 
L 359.36938 34.380724 
L 360.042345 34.092471 
L 360.715309 33.967419 
L 361.051792 33.990337 
L 361.724757 34.354841 
L 362.397721 34.123757 
L 362.734204 34.39273 
L 364.753098 34.210416 
L 365.089581 34.419981 
L 365.426063 34.198189 
L 366.43551 34.037908 
L 366.771993 34.220137 
L 367.108475 34.189034 
L 367.444958 34.334819 
L 367.78144 34.174392 
L 368.790887 34.429013 
L 369.12737 34.677039 
L 369.463852 34.630684 
L 369.800334 34.387908 
L 370.136817 34.792004 
L 370.473299 34.284474 
L 370.809782 34.547685 
L 371.146264 34.602019 
L 371.482747 34.867552 
L 371.819229 35.44509 
L 372.155711 35.439328 
L 372.828676 34.393234 
L 373.165159 34.290481 
L 373.501641 34.736218 
L 373.838123 34.748354 
L 374.174606 35.045311 
L 374.511088 35.035185 
L 374.847571 34.666035 
L 375.184053 35.640211 
L 375.857018 34.842135 
L 376.1935 34.944025 
L 376.529983 34.713728 
L 376.866465 34.890295 
L 377.202948 35.49182 
L 377.53943 35.165488 
L 377.875912 35.404626 
L 378.212395 35.862407 
L 378.88536 35.837372 
L 379.221842 35.990081 
L 379.558324 36.288765 
L 379.894807 36.343886 
L 380.231289 36.775822 
L 380.567772 35.666988 
L 380.904254 35.828798 
L 381.240736 36.290905 
L 381.577219 36.079101 
L 381.913701 37.010032 
L 382.250184 36.809882 
L 382.586666 36.063733 
L 382.923149 35.916718 
L 383.259631 36.271555 
L 383.596113 35.725686 
L 384.269078 36.428574 
L 384.605561 36.284906 
L 384.942043 37.829566 
L 385.278525 36.977385 
L 385.615008 37.448028 
L 385.95149 38.334857 
L 386.287973 37.249491 
L 386.624455 39.099163 
L 386.960938 142.721751 
L 386.960938 142.721751 
" clip-path="url(#p006351830c)" style="fill: none; stroke-dasharray: 1.5,2.475; stroke-dashoffset: 0; stroke: #ff0000; stroke-width: 1.5"/>
   </g>
   <g id="patch_3">
    <path d="M 52.160938 173.52 
L 52.160938 7.2 
" style="fill: none; stroke: #000000; stroke-width: 0.8; stroke-linejoin: miter; stroke-linecap: square"/>
   </g>
   <g id="patch_4">
    <path d="M 386.960938 173.52 
L 386.960938 7.2 
" style="fill: none; stroke: #000000; stroke-width: 0.8; stroke-linejoin: miter; stroke-linecap: square"/>
   </g>
   <g id="patch_5">
    <path d="M 52.160938 173.52 
L 386.960938 173.52 
" style="fill: none; stroke: #000000; stroke-width: 0.8; stroke-linejoin: miter; stroke-linecap: square"/>
   </g>
   <g id="patch_6">
    <path d="M 52.160938 7.2 
L 386.960938 7.2 
" style="fill: none; stroke: #000000; stroke-width: 0.8; stroke-linejoin: miter; stroke-linecap: square"/>
   </g>
   <g id="legend_1">
    <g id="patch_7">
     <path d="M 59.160938 168.52 
L 160.248438 168.52 
Q 162.248438 168.52 162.248438 166.52 
L 162.248438 108.8075 
Q 162.248438 106.8075 160.248438 106.8075 
L 59.160938 106.8075 
Q 57.160938 106.8075 57.160938 108.8075 
L 57.160938 166.52 
Q 57.160938 168.52 59.160938 168.52 
z
" style="fill: #ffffff; opacity: 0.8; stroke: #cccccc; stroke-linejoin: miter"/>
    </g>
    <g id="line2d_25">
     <path d="M 61.160938 114.905938 
L 71.160938 114.905938 
L 81.160938 114.905938 
" style="fill: none; stroke: #1f77b4; stroke-width: 1.5; stroke-linecap: square"/>
    </g>
    <g id="text_13">
     <!-- 1-step preds -->
     <g transform="translate(89.160938 118.405938)scale(0.1 -0.1)">
      <defs>
       <path id="DejaVuSans-2d" d="M 313 2009 
L 1997 2009 
L 1997 1497 
L 313 1497 
L 313 2009 
z
" transform="scale(0.015625)"/>
       <path id="DejaVuSans-73" d="M 2834 3397 
L 2834 2853 
Q 2591 2978 2328 3040 
Q 2066 3103 1784 3103 
Q 1356 3103 1142 2972 
Q 928 2841 928 2578 
Q 928 2378 1081 2264 
Q 1234 2150 1697 2047 
L 1894 2003 
Q 2506 1872 2764 1633 
Q 3022 1394 3022 966 
Q 3022 478 2636 193 
Q 2250 -91 1575 -91 
Q 1294 -91 989 -36 
Q 684 19 347 128 
L 347 722 
Q 666 556 975 473 
Q 1284 391 1588 391 
Q 1994 391 2212 530 
Q 2431 669 2431 922 
Q 2431 1156 2273 1281 
Q 2116 1406 1581 1522 
L 1381 1569 
Q 847 1681 609 1914 
Q 372 2147 372 2553 
Q 372 3047 722 3315 
Q 1072 3584 1716 3584 
Q 2034 3584 2315 3537 
Q 2597 3491 2834 3397 
z
" transform="scale(0.015625)"/>
       <path id="DejaVuSans-70" d="M 1159 525 
L 1159 -1331 
L 581 -1331 
L 581 3500 
L 1159 3500 
L 1159 2969 
Q 1341 3281 1617 3432 
Q 1894 3584 2278 3584 
Q 2916 3584 3314 3078 
Q 3713 2572 3713 1747 
Q 3713 922 3314 415 
Q 2916 -91 2278 -91 
Q 1894 -91 1617 61 
Q 1341 213 1159 525 
z
M 3116 1747 
Q 3116 2381 2855 2742 
Q 2594 3103 2138 3103 
Q 1681 3103 1420 2742 
Q 1159 2381 1159 1747 
Q 1159 1113 1420 752 
Q 1681 391 2138 391 
Q 2594 391 2855 752 
Q 3116 1113 3116 1747 
z
" transform="scale(0.015625)"/>
       <path id="DejaVuSans-20" transform="scale(0.015625)"/>
       <path id="DejaVuSans-72" d="M 2631 2963 
Q 2534 3019 2420 3045 
Q 2306 3072 2169 3072 
Q 1681 3072 1420 2755 
Q 1159 2438 1159 1844 
L 1159 0 
L 581 0 
L 581 3500 
L 1159 3500 
L 1159 2956 
Q 1341 3275 1631 3429 
Q 1922 3584 2338 3584 
Q 2397 3584 2469 3576 
Q 2541 3569 2628 3553 
L 2631 2963 
z
" transform="scale(0.015625)"/>
       <path id="DejaVuSans-64" d="M 2906 2969 
L 2906 4863 
L 3481 4863 
L 3481 0 
L 2906 0 
L 2906 525 
Q 2725 213 2448 61 
Q 2172 -91 1784 -91 
Q 1150 -91 751 415 
Q 353 922 353 1747 
Q 353 2572 751 3078 
Q 1150 3584 1784 3584 
Q 2172 3584 2448 3432 
Q 2725 3281 2906 2969 
z
M 947 1747 
Q 947 1113 1208 752 
Q 1469 391 1925 391 
Q 2381 391 2643 752 
Q 2906 1113 2906 1747 
Q 2906 2381 2643 2742 
Q 2381 3103 1925 3103 
Q 1469 3103 1208 2742 
Q 947 2381 947 1747 
z
" transform="scale(0.015625)"/>
      </defs>
      <use xlink:href="#DejaVuSans-31"/>
      <use xlink:href="#DejaVuSans-2d" x="63.623047"/>
      <use xlink:href="#DejaVuSans-73" x="99.707031"/>
      <use xlink:href="#DejaVuSans-74" x="151.806641"/>
      <use xlink:href="#DejaVuSans-65" x="191.015625"/>
      <use xlink:href="#DejaVuSans-70" x="252.539062"/>
      <use xlink:href="#DejaVuSans-20" x="316.015625"/>
      <use xlink:href="#DejaVuSans-70" x="347.802734"/>
      <use xlink:href="#DejaVuSans-72" x="411.279297"/>
      <use xlink:href="#DejaVuSans-65" x="450.142578"/>
      <use xlink:href="#DejaVuSans-64" x="511.666016"/>
      <use xlink:href="#DejaVuSans-73" x="575.142578"/>
     </g>
    </g>
    <g id="line2d_26">
     <path d="M 61.160938 129.584063 
L 71.160938 129.584063 
L 81.160938 129.584063 
" style="fill: none; stroke-dasharray: 5.55,2.4; stroke-dashoffset: 0; stroke: #bf00bf; stroke-width: 1.5"/>
    </g>
    <g id="text_14">
     <!-- 4-step preds -->
     <g transform="translate(89.160938 133.084063)scale(0.1 -0.1)">
      <use xlink:href="#DejaVuSans-34"/>
      <use xlink:href="#DejaVuSans-2d" x="63.623047"/>
      <use xlink:href="#DejaVuSans-73" x="99.707031"/>
      <use xlink:href="#DejaVuSans-74" x="151.806641"/>
      <use xlink:href="#DejaVuSans-65" x="191.015625"/>
      <use xlink:href="#DejaVuSans-70" x="252.539062"/>
      <use xlink:href="#DejaVuSans-20" x="316.015625"/>
      <use xlink:href="#DejaVuSans-70" x="347.802734"/>
      <use xlink:href="#DejaVuSans-72" x="411.279297"/>
      <use xlink:href="#DejaVuSans-65" x="450.142578"/>
      <use xlink:href="#DejaVuSans-64" x="511.666016"/>
      <use xlink:href="#DejaVuSans-73" x="575.142578"/>
     </g>
    </g>
    <g id="line2d_27">
     <path d="M 61.160938 144.262188 
L 71.160938 144.262188 
L 81.160938 144.262188 
" style="fill: none; stroke-dasharray: 9.6,2.4,1.5,2.4; stroke-dashoffset: 0; stroke: #008000; stroke-width: 1.5"/>
    </g>
    <g id="text_15">
     <!-- 16-step preds -->
     <g transform="translate(89.160938 147.762188)scale(0.1 -0.1)">
      <use xlink:href="#DejaVuSans-31"/>
      <use xlink:href="#DejaVuSans-36" x="63.623047"/>
      <use xlink:href="#DejaVuSans-2d" x="127.246094"/>
      <use xlink:href="#DejaVuSans-73" x="163.330078"/>
      <use xlink:href="#DejaVuSans-74" x="215.429688"/>
      <use xlink:href="#DejaVuSans-65" x="254.638672"/>
      <use xlink:href="#DejaVuSans-70" x="316.162109"/>
      <use xlink:href="#DejaVuSans-20" x="379.638672"/>
      <use xlink:href="#DejaVuSans-70" x="411.425781"/>
      <use xlink:href="#DejaVuSans-72" x="474.902344"/>
      <use xlink:href="#DejaVuSans-65" x="513.765625"/>
      <use xlink:href="#DejaVuSans-64" x="575.289062"/>
      <use xlink:href="#DejaVuSans-73" x="638.765625"/>
     </g>
    </g>
    <g id="line2d_28">
     <path d="M 61.160938 158.940313 
L 71.160938 158.940313 
L 81.160938 158.940313 
" style="fill: none; stroke-dasharray: 1.5,2.475; stroke-dashoffset: 0; stroke: #ff0000; stroke-width: 1.5"/>
    </g>
    <g id="text_16">
     <!-- 64-step preds -->
     <g transform="translate(89.160938 162.440313)scale(0.1 -0.1)">
      <use xlink:href="#DejaVuSans-36"/>
      <use xlink:href="#DejaVuSans-34" x="63.623047"/>
      <use xlink:href="#DejaVuSans-2d" x="127.246094"/>
      <use xlink:href="#DejaVuSans-73" x="163.330078"/>
      <use xlink:href="#DejaVuSans-74" x="215.429688"/>
      <use xlink:href="#DejaVuSans-65" x="254.638672"/>
      <use xlink:href="#DejaVuSans-70" x="316.162109"/>
      <use xlink:href="#DejaVuSans-20" x="379.638672"/>
      <use xlink:href="#DejaVuSans-70" x="411.425781"/>
      <use xlink:href="#DejaVuSans-72" x="474.902344"/>
      <use xlink:href="#DejaVuSans-65" x="513.765625"/>
      <use xlink:href="#DejaVuSans-64" x="575.289062"/>
      <use xlink:href="#DejaVuSans-73" x="638.765625"/>
     </g>
    </g>
   </g>
  </g>
 </g>
 <defs>
  <clipPath id="p006351830c">
   <rect x="52.160938" y="7.2" width="334.8" height="166.32"/>
  </clipPath>
 </defs>
</svg>
